<svg width="140" height="144" viewBox="0 0 140 144" fill="none" xmlns="http://www.w3.org/2000/svg">
<path d="M23.6626 25.7267L85.6206 25.7971L106.19 25.8093L112.092 25.8061C113.182 25.803 114.319 25.7309 115.402 25.8365C116.426 25.9362 117.412 26.468 118.185 27.1206C119.487 28.2187 119.931 29.5419 120.073 31.1856C120.281 31.2744 120.484 31.3724 120.683 31.4795C120.882 31.5866 121.075 31.7024 121.264 31.8269C121.452 31.9513 121.634 32.0839 121.811 32.2247C121.987 32.3654 122.157 32.5138 122.319 32.6697C122.401 32.7482 122.481 32.8286 122.559 32.911C122.637 32.9934 122.712 33.0777 122.786 33.1638C122.86 33.25 122.931 33.3379 123 33.4276C123.069 33.5173 123.136 33.6086 123.2 33.7016C123.265 33.7946 123.327 33.8892 123.387 33.9853C123.447 34.0815 123.504 34.179 123.559 34.2779C123.614 34.3769 123.666 34.4771 123.716 34.5786C123.765 34.6802 123.813 34.7829 123.857 34.8868C123.902 34.9906 123.944 35.0956 123.983 35.2016C124.022 35.3075 124.059 35.4145 124.093 35.5223C124.127 35.63 124.158 35.7386 124.187 35.848C124.215 35.9573 124.241 36.0672 124.264 36.1778C124.286 36.2885 124.307 36.3997 124.324 36.5113C124.341 36.6229 124.356 36.7348 124.367 36.8472C124.379 36.9595 124.388 37.0721 124.394 37.1849C124.4 37.2976 124.403 37.4104 124.403 37.5234L124.393 90.9786L124.388 106.405L124.375 111.103C124.37 111.888 124.429 112.732 124.326 113.508C124.173 114.666 123.584 115.781 122.753 116.602C121.019 118.313 118.897 118.241 116.623 118.225L51.453 118.157L34.414 118.176C31.7715 118.179 29.0691 118.296 26.4334 118.155C25.5027 118.105 24.5911 117.951 23.7344 117.574C21.8648 116.752 20.9822 115.22 20.2832 113.4C19.1793 113.105 18.2158 112.648 17.3915 111.844C16.4191 110.896 15.7943 109.566 15.6288 108.227C15.5179 107.331 15.5784 106.398 15.5871 105.495L15.6061 101.526L15.6095 87.0596L15.6431 36.1111L15.643 33.0046C15.6493 30.9802 15.6108 28.9323 17.1695 27.3979C19.0326 25.5638 21.2488 25.7238 23.6626 25.7267Z" fill="#201D00"/>
<path d="M16.0046 38.1031L119.811 38.1982C119.688 43.6094 119.837 49.0483 119.837 54.4629L119.82 89.0459L119.814 102.043C119.813 104.024 119.965 106.918 119.723 108.826C119.579 109.968 119.042 110.881 118.287 111.732C118.053 111.963 117.803 112.178 117.54 112.376C116.758 112.953 115.713 113.211 114.753 113.242C112.311 113.322 109.84 113.225 107.394 113.221L92.2395 113.206L47.6483 113.154L28.2022 113.17L23.4888 113.171C22.4366 113.174 21.2867 113.26 20.2489 113.073C18.9807 112.843 17.6748 111.864 16.9449 110.834C16.3714 110.024 15.9884 109.047 15.9285 108.056C15.8319 106.458 15.933 104.808 15.9335 103.205L15.9383 92.754L15.9474 61.4472L15.9663 44.8336L15.9561 40.4382C15.9539 39.6857 15.8777 38.8423 16.0046 38.1031Z" fill="#EDE7FF"/>
<path d="M87.0746 46.622C88.4341 46.7065 89.9247 47.1597 91.1728 47.7013C94.5341 49.1595 97.4491 52.1086 98.8431 55.4984C98.8885 55.608 98.9324 55.7181 98.9748 55.8288C99.0174 55.9394 99.0587 56.0505 99.0986 56.162C99.1383 56.2736 99.1768 56.3856 99.2138 56.4982C99.2509 56.6106 99.2866 56.7235 99.321 56.8367C99.3552 56.95 99.3882 57.0637 99.4197 57.1777C99.4511 57.2917 99.4812 57.4061 99.5099 57.5209C99.5385 57.6356 99.5658 57.7506 99.5917 57.8658C99.6175 57.9812 99.6419 58.0968 99.6649 58.2127C99.6879 58.3286 99.7095 58.4446 99.7296 58.5609C99.7497 58.6772 99.7684 58.7938 99.7857 58.9105C99.8029 59.0272 99.8187 59.1441 99.8331 59.2612C99.8474 59.3782 99.8603 59.4954 99.8717 59.6127C99.8831 59.73 99.8932 59.8474 99.9017 59.9648C99.9103 60.0824 99.9174 60.1999 99.9231 60.3174C99.9287 60.4351 99.9328 60.5527 99.9355 60.6703C99.9382 60.7879 99.9395 60.9055 99.9394 61.0231C99.9392 61.1408 99.9375 61.2583 99.9344 61.3758C99.9312 61.4933 99.9266 61.6107 99.9206 61.728C99.9146 61.8453 99.9071 61.9625 99.8982 62.0796C99.8893 62.1967 99.8789 62.3135 99.867 62.4303C99.8552 62.547 99.8419 62.6636 99.8271 62.78C99.8124 62.8964 99.7962 63.0125 99.7786 63.1284C99.7609 63.2443 99.7418 63.3599 99.7213 63.4753C99.7009 63.5907 99.679 63.7057 99.6555 63.8205C99.6322 63.9352 99.6074 64.0496 99.5812 64.1637C99.5549 64.2779 99.5273 64.3916 99.4982 64.5048C99.4692 64.6182 99.4387 64.7312 99.4069 64.8437C99.375 64.9562 99.3417 65.0683 99.3071 65.18C99.2724 65.2917 99.2363 65.4028 99.1988 65.5135C99.1614 65.6242 99.1225 65.7344 99.0823 65.8441C99.0421 65.9538 99.0006 66.063 98.9576 66.1716C98.9146 66.2801 98.8704 66.3882 98.8248 66.4956C98.1554 68.0698 97.2704 69.5206 96.0576 70.7285C95.0148 71.7669 93.8278 72.5471 92.6343 73.396L87.0541 77.2909L83.013 80.1181C81.9608 80.8644 80.9151 81.6858 79.768 82.285C78.6507 82.8687 77.4694 83.086 76.3173 83.5423L76.2543 83.5678C75.9578 84.2753 75.7277 85.0081 75.4084 85.7074C74.7019 87.2548 73.5776 88.8189 72.3171 89.9641C71.1257 91.0466 69.7946 91.8739 68.4671 92.7736L63.6461 96.0642L58.1403 99.8467C56.4627 100.999 54.7607 102.253 52.878 103.066C50.6807 104.014 48.5258 104.423 46.1124 104.291C44.4782 104.196 42.8193 103.678 41.3629 102.914C37.9617 101.131 35.1607 98.0627 33.9875 94.3984C32.8049 90.704 33.0371 86.9675 34.8148 83.5796C35.0109 83.2136 35.2224 82.8568 35.4492 82.5093C35.6761 82.1619 35.9177 81.825 36.1739 81.4988C36.43 81.1724 36.6999 80.8578 36.9834 80.555C37.2669 80.2523 37.5632 79.9623 37.872 79.6851C38.826 78.832 39.9133 78.1194 40.9656 77.3916L45.8115 74.0914L50.887 70.6317C51.9972 69.875 53.087 69.0856 54.2502 68.4086C55.1882 67.8625 56.145 67.391 57.193 67.0856C58.1371 64.5393 59.2864 62.5081 61.388 60.7513C62.6286 59.7145 64.0279 58.8588 65.3668 57.9516L71.2419 53.9266L76.845 50.0165C78.14 49.1237 79.4496 48.1327 80.9047 47.5071C82.8143 46.6862 84.9936 46.4207 87.0746 46.622Z" fill="#201D00"/>
<path d="M65.5571 65.787C68.8635 66.5118 71.805 68.7521 73.7711 71.4741C73.8385 71.5683 73.9047 71.6633 73.9697 71.759C74.0347 71.8548 74.0986 71.9514 74.1613 72.0486C74.2239 72.146 74.2853 72.244 74.3456 72.3428C74.4059 72.4415 74.4649 72.541 74.5226 72.6412C74.5805 72.7413 74.6371 72.8422 74.6923 72.9436C74.7477 73.0452 74.8018 73.1474 74.8546 73.2502C74.9075 73.353 74.959 73.4564 75.0092 73.5603C75.0595 73.6644 75.1085 73.769 75.1562 73.8741C75.2039 73.9793 75.2503 74.085 75.2954 74.1913C75.3405 74.2975 75.3843 74.4042 75.4267 74.5115C75.4692 74.6188 75.5103 74.7266 75.5501 74.8349C75.5899 74.943 75.6284 75.0517 75.6656 75.1609C75.7027 75.27 75.7384 75.3795 75.7728 75.4895C75.8073 75.5995 75.8403 75.7098 75.872 75.8204C75.9037 75.9311 75.934 76.0422 75.963 76.1537C75.9919 76.265 76.0195 76.3767 76.0456 76.4887C76.0718 76.6007 76.0966 76.7131 76.12 76.8256C76.1434 76.9382 76.1654 77.051 76.186 77.1641C76.2066 77.277 76.2258 77.3903 76.2437 77.5037C76.2614 77.6172 76.2778 77.7308 76.2927 77.8446C76.3078 77.9585 76.3213 78.0724 76.3334 78.1864C76.3456 78.3005 76.3563 78.4147 76.3656 78.529C76.375 78.6433 76.3828 78.7576 76.3893 78.872C76.3958 78.9865 76.4009 79.1009 76.4045 79.2153C76.4081 79.3298 76.4103 79.4443 76.4111 79.5588C76.4119 79.6733 76.4113 79.7877 76.4092 79.9021C76.4071 80.0164 76.4036 80.1308 76.3988 80.245C76.3938 80.3592 76.3875 80.4733 76.3798 80.5873C76.372 80.7013 76.3629 80.8152 76.3523 80.9289C76.3416 81.0427 76.3296 81.1563 76.3163 81.2696C76.3028 81.383 76.2879 81.4961 76.2717 81.609C76.2555 81.7219 76.2378 81.8346 76.2187 81.9471C75.6008 85.7565 73.5183 88.9639 70.375 91.1531C67.8567 92.9069 65.282 94.5832 62.7577 96.3283L58.1245 99.5028C56.0909 100.895 54.1063 102.363 51.7602 103.214C49.5433 104.019 47.2073 104.235 44.858 103.792C41.3482 103.13 38.1106 100.817 36.0675 97.9042C36.0024 97.8105 35.9384 97.7161 35.8757 97.6208C35.8129 97.5256 35.7513 97.4297 35.6909 97.3329C35.6304 97.2363 35.5711 97.1389 35.513 97.0409C35.4549 96.9428 35.398 96.8441 35.3424 96.7447C35.2867 96.6453 35.2322 96.5452 35.179 96.4445C35.1257 96.3438 35.0737 96.2425 35.0229 96.1407C34.9722 96.0388 34.9226 95.9363 34.8743 95.8332C34.826 95.7302 34.779 95.6266 34.7332 95.5224C34.6874 95.4182 34.643 95.3136 34.5999 95.2084C34.5566 95.1031 34.5147 94.9975 34.4741 94.8914C34.4335 94.7852 34.3942 94.6785 34.3562 94.5714C34.3182 94.4644 34.2815 94.357 34.2461 94.2491C34.2107 94.1412 34.1766 94.0329 34.1439 93.9241C34.1112 93.8155 34.0798 93.7065 34.0497 93.5971C34.0197 93.4877 33.9909 93.3781 33.9635 93.268C33.9361 93.158 33.9101 93.0477 33.8854 92.9371C33.8608 92.8264 33.8375 92.7156 33.8156 92.6045C33.7936 92.4933 33.7729 92.382 33.7537 92.2705C33.7345 92.1589 33.7167 92.0472 33.7002 91.9353C33.6837 91.8234 33.6687 91.7113 33.655 91.5989C33.6413 91.4867 33.6289 91.3744 33.6179 91.2619C33.6069 91.1494 33.5974 91.0369 33.5892 90.9242C33.581 90.8115 33.5741 90.6988 33.5687 90.5861C33.5633 90.4733 33.5593 90.3605 33.5567 90.2478C33.5541 90.1349 33.5528 90.0221 33.553 89.9093C33.553 89.7966 33.5545 89.6839 33.5575 89.5712C33.5604 89.4586 33.5647 89.346 33.5704 89.2334C33.576 89.1209 33.5831 89.0086 33.5916 88.8963C33.6001 88.784 33.6099 88.6719 33.6212 88.56C33.6324 88.448 33.645 88.3362 33.659 88.2247C33.673 88.113 33.6884 88.0016 33.7052 87.8905C33.7219 87.7794 33.74 87.6684 33.7595 87.5578C33.9879 86.2391 34.431 85.0236 35.0382 83.8396C36.8562 80.2955 39.5035 78.712 42.6549 76.5621L48.5469 72.5243C51.3146 70.6645 53.9989 68.5519 57.134 67.3241C56.5459 69.1362 56.4908 71.0684 56.7074 72.9633C54.4103 74.5007 52.216 76.2035 49.9171 77.7449C48.2876 78.818 46.6681 79.9056 45.0587 81.0077C43.8831 81.7969 42.5979 82.5558 41.5769 83.5367C41.4596 83.6503 41.3457 83.7673 41.2353 83.8876C41.1248 84.0078 41.018 84.1311 40.9147 84.2576C40.8113 84.384 40.7117 84.5132 40.6158 84.6454C40.5199 84.7776 40.428 84.9125 40.3399 85.0501C40.2518 85.1876 40.1677 85.3276 40.0876 85.4701C40.0076 85.6126 39.9317 85.7573 39.8599 85.9042C39.7882 86.0511 39.7208 86.2 39.6576 86.3509C39.5944 86.5019 39.5356 86.6545 39.481 86.8089C39.4319 86.9479 39.3863 87.0881 39.3443 87.2295C39.3022 87.3709 39.2638 87.5134 39.229 87.6569C39.1942 87.8004 39.163 87.9447 39.1354 88.0899C39.108 88.2351 39.0841 88.381 39.064 88.5276C39.0439 88.6742 39.0274 88.8212 39.0146 88.9688C39.0019 89.1163 38.9929 89.2641 38.9877 89.4123C38.9824 89.5605 38.9808 89.7088 38.983 89.8572C38.9852 90.0056 38.9911 90.1539 39.0008 90.3022C39.0104 90.4505 39.0237 90.5985 39.0409 90.7463C39.058 90.8941 39.0788 91.0414 39.1032 91.1882C39.1277 91.3351 39.1558 91.4814 39.1877 91.627C39.2195 91.7728 39.2549 91.9176 39.2939 92.0616C39.333 92.2057 39.3756 92.3487 39.4218 92.4908C39.4681 92.6329 39.5178 92.7737 39.571 92.9135C39.6243 93.0532 39.681 93.1916 39.7412 93.3287C39.8013 93.4657 39.8648 93.6013 39.9317 93.7353C39.9945 93.8611 40.0602 93.9854 40.129 94.1082C40.1977 94.231 40.2694 94.3521 40.344 94.4714C40.4186 94.5909 40.496 94.7086 40.5762 94.8244C40.6565 94.9402 40.7394 95.054 40.8251 95.166C40.9108 95.2779 40.9991 95.3878 41.0901 95.4955C41.181 95.6032 41.2745 95.7087 41.3705 95.8121C41.4664 95.9154 41.5648 96.0165 41.6657 96.1152C41.7665 96.2139 41.8696 96.3101 41.975 96.4039C42.0803 96.4977 42.1879 96.589 42.2977 96.6776C42.4074 96.7664 42.5192 96.8524 42.633 96.9358C42.7468 97.0191 42.8625 97.0997 42.9801 97.1776C43.0977 97.2555 43.2171 97.3305 43.3383 97.4026C43.4594 97.4748 43.5822 97.544 43.7066 97.6104C43.8309 97.6766 43.9567 97.7398 44.0841 97.8001C44.2114 97.8604 44.3401 97.9176 44.47 97.9717C44.6 98.0258 44.7312 98.0767 44.8635 98.1245C45.0019 98.1721 45.1414 98.2162 45.2818 98.2569C45.4224 98.2976 45.5637 98.3349 45.7058 98.3687C45.848 98.4025 45.9908 98.4327 46.1344 98.4595C46.2779 98.4863 46.4218 98.5095 46.5663 98.5292C46.7109 98.5489 46.8558 98.565 47.0009 98.5776C47.146 98.5901 47.2913 98.5992 47.4368 98.6047C47.5822 98.6101 47.7276 98.6119 47.873 98.6101C48.0183 98.6084 48.1635 98.6031 48.3085 98.5942C48.4534 98.5852 48.598 98.5727 48.7422 98.5567C48.8863 98.5406 49.0299 98.521 49.173 98.4979C49.3161 98.4748 49.4583 98.4481 49.5999 98.4179C49.7414 98.3876 49.8821 98.3539 50.0218 98.3168C50.1615 98.2796 50.3002 98.239 50.4378 98.195C50.5754 98.1509 50.7117 98.1034 50.8467 98.0526C50.9818 98.0018 51.1155 97.9477 51.2476 97.8902C51.3799 97.8327 51.5106 97.7719 51.6396 97.708C52.7329 97.1785 53.7182 96.3982 54.7127 95.7094L58.6735 92.9985L64.6247 88.8905C66.0923 87.8752 67.7132 86.8947 68.9583 85.6132C69.7707 84.7773 70.3025 83.6439 70.6587 82.5384C71.4344 80.1305 71.2176 77.7097 70.0263 75.4297C68.5438 72.5925 66.296 71.4408 63.3794 70.4881C63.5894 68.6349 64.2672 67.1262 65.5571 65.787Z" fill="#FF00EA"/>
<path d="M87.7819 47.0417C89.4069 47.3292 90.9903 47.8478 92.4368 48.6673C95.5827 50.4493 98.1028 53.664 99.0886 57.1154C100.168 60.8936 99.6083 64.7474 97.7088 68.0986C97.0442 69.2711 96.1974 70.2724 95.1861 71.161C93.2128 72.895 90.5651 74.4711 88.3927 76.0093L83.1417 79.694C82.0134 80.4902 80.882 81.3996 79.6607 82.0457C78.6172 82.5978 77.4496 82.9104 76.3075 83.2066C76.7014 81.3966 76.7836 79.7817 76.5886 77.9342C77.4869 77.2731 78.4463 76.6831 79.3715 76.0588C81.7998 74.4199 84.1736 72.7047 86.5847 71.0419C88.1228 69.9813 90.7992 68.3901 91.9966 67.1025C93.1613 65.85 94.0097 64.2334 94.3005 62.5352C94.3233 62.3937 94.3426 62.2517 94.3585 62.1091C94.3744 61.9665 94.3868 61.8235 94.3957 61.6802C94.4046 61.5368 94.41 61.3933 94.412 61.2496C94.4139 61.1058 94.4124 60.962 94.4073 60.8182C94.4023 60.6744 94.3937 60.5306 94.3816 60.3871C94.3697 60.2435 94.3542 60.1002 94.3352 59.9573C94.3163 59.8143 94.2939 59.6718 94.268 59.5297C94.2421 59.3877 94.2129 59.2463 94.1802 59.1054C94.1476 58.9647 94.1115 58.8247 94.0721 58.6855C94.0327 58.5463 93.9898 58.408 93.9437 58.2707C93.8976 58.1335 93.8482 57.9973 93.7955 57.8622C93.7429 57.7272 93.687 57.5934 93.6278 57.4609C93.5687 57.3285 93.5065 57.1974 93.4411 57.0676C93.3757 56.938 93.3072 56.81 93.2357 56.6835C93.1641 56.5571 93.0896 56.4324 93.012 56.3093C92.9345 56.1863 92.8541 56.0652 92.7708 55.9459C91.4762 54.1192 89.2665 52.7346 87.076 52.3461C83.8979 51.7826 82.1022 52.8221 79.6397 54.548L70.8305 60.6271C69.6799 61.4141 68.5359 62.2107 67.3987 63.0167C66.4397 63.6941 65.4198 64.34 64.6207 65.207C63.4695 66.4556 62.5922 68.1718 62.3081 69.8601C61.9387 72.0553 62.4852 74.4815 63.81 76.3149C65.4118 78.5316 67.5242 79.6022 70.154 80.0601C69.9674 81.9672 69.4953 83.5123 68.2329 84.9692C64.99 84.4022 61.9799 82.3731 59.9626 79.7872C57.7027 76.8905 56.547 73.3063 56.9777 69.6873C57.4259 65.9241 59.253 62.6343 62.2625 60.3613C63.1976 59.6552 64.2187 59.0447 65.1871 58.3821L71.8973 53.7839L76.739 50.4253C78.0744 49.4911 79.4943 48.352 81.0104 47.7293C83.1516 46.8498 85.4886 46.709 87.7819 47.0417Z" fill="#FF00EA"/>
<path d="M56.828 74.2814C57.1514 74.5697 57.4696 76.0426 57.691 76.5391C58.0426 77.3436 58.4581 78.115 58.9375 78.8531C61.0314 82.044 64.2618 84.4103 67.9896 85.2355C66.8839 86.2034 65.6437 87.0087 64.4328 87.8393L59.6394 91.1267L55.6802 93.9085C54.0461 95.0699 52.4261 96.4017 50.513 97.0824C49.0069 97.5531 47.5097 97.7017 45.9469 97.3165C43.9805 96.832 42.2595 95.4713 41.2072 93.7525C40.161 92.0433 39.7065 89.8563 40.1794 87.9238C40.4718 86.7287 41.1164 85.4678 41.9538 84.5688C43.5348 82.8717 46.2264 81.3768 48.171 80.0524C51.0336 78.1027 53.8353 76.0336 56.828 74.2814Z" fill="#EDE7FF"/>
<path d="M86.4271 53.3882C86.4487 53.39 86.4705 53.3907 86.492 53.3935C88.6048 53.682 90.5826 54.9501 91.839 56.6691C93.0593 58.3383 93.484 60.4428 93.1588 62.442C92.9328 63.8318 92.2386 65.1991 91.2995 66.2339C89.8719 67.807 87.5256 69.15 85.7584 70.3733L76.4529 76.792C76.1956 75.8413 75.8951 74.9251 75.5172 74.0131C75.1325 73.1048 74.6841 72.2329 74.1169 71.4203C72.1378 68.5843 69.1117 66.2311 65.6843 65.5686C65.8418 65.4202 66.0046 65.2776 66.1726 65.141C67.3614 64.1679 68.6865 63.3285 69.9428 62.4422C72.5266 60.6156 75.1298 58.8163 77.7522 57.0443C79.338 55.9742 80.9371 54.5874 82.6981 53.8377C83.9131 53.3205 85.1144 53.2542 86.4271 53.3882Z" fill="#EDE7FF"/>
<path d="M86.4174 52.6105C87.9027 52.7477 89.3192 53.3501 90.5289 54.2287C92.4024 55.5893 93.5855 57.5632 93.9674 59.8217C94.3625 62.1584 93.7161 64.2533 92.356 66.119C91.9271 66.7072 91.4724 67.1762 90.8982 67.6262C89.2917 68.8854 87.5077 69.9754 85.8355 71.1523C82.9449 73.1867 80.0609 75.3229 77.0785 77.2193C76.9142 77.3236 76.7889 77.3986 76.5945 77.4264L76.513 77.3447L76.5452 77.1379C77.4151 76.3917 78.615 75.7346 79.5668 75.0645L88.7274 68.7173C91.1439 67.0235 92.9789 65.4414 93.4583 62.3515C93.7767 60.2995 93.3271 58.1837 92.0803 56.4712C92.0007 56.3614 91.9184 56.2535 91.8335 56.1477C91.7486 56.0417 91.6611 55.9379 91.5711 55.8363C91.481 55.7346 91.3886 55.6352 91.2938 55.538C91.1989 55.4408 91.1017 55.3459 91.0021 55.2534C90.9026 55.161 90.8009 55.071 90.697 54.9834C90.5932 54.8959 90.4872 54.8109 90.3792 54.7286C90.2711 54.6462 90.1612 54.5665 90.0494 54.4895C89.9375 54.4125 89.8238 54.3382 89.7084 54.2668C89.5929 54.1954 89.4758 54.1268 89.357 54.0611C89.2383 53.9953 89.1181 53.9326 88.9963 53.8727C88.8745 53.8129 88.7514 53.7561 88.627 53.7023C88.5025 53.6486 88.3769 53.5979 88.2501 53.5502C88.1232 53.5026 87.9952 53.4582 87.8663 53.4169C87.7374 53.3756 87.6076 53.3375 87.4769 53.3026C87.3463 53.2676 87.2149 53.2359 87.0827 53.2075C86.9506 53.1791 86.8179 53.154 86.6846 53.1321C84.0823 52.709 82.2013 53.5599 80.1668 55.0307C76.7264 57.5044 73.1621 59.8268 69.6874 62.257C68.2444 63.2662 66.5017 64.2751 65.2787 65.54C64.4509 66.3964 63.7841 67.6161 63.4037 68.7437C63.3617 68.866 63.3227 68.9892 63.2869 69.1135C63.2511 69.2378 63.2184 69.363 63.1889 69.4891C63.1594 69.6152 63.1331 69.742 63.1099 69.8695C63.0868 69.997 63.0669 70.1251 63.0501 70.2538C63.0334 70.3824 63.0199 70.5115 63.0097 70.6409C62.9994 70.7704 62.9924 70.9001 62.9886 71.0301C62.9849 71.16 62.9844 71.29 62.987 71.4201C62.9898 71.5503 62.9958 71.6804 63.0051 71.8103C63.0143 71.9404 63.0267 72.0701 63.0424 72.1996C63.0582 72.329 63.0772 72.4582 63.0993 72.5869C63.1214 72.7155 63.1467 72.8436 63.1753 72.9712C63.2038 73.0988 63.2354 73.2257 63.2703 73.3518C63.3052 73.4779 63.3431 73.6032 63.3841 73.7276C63.4252 73.852 63.4694 73.9754 63.5166 74.0978C63.5637 74.2201 63.6138 74.3413 63.667 74.4613C63.7202 74.5812 63.7763 74.6998 63.8354 74.8172C64.688 76.4892 66.5078 78.3278 68.37 78.8239C68.9263 78.9721 69.5157 78.912 70.0669 79.1041C70.083 79.1467 70.1038 79.1879 70.1151 79.2319C70.1586 79.3998 70.1047 79.5214 70.0052 79.6444C69.918 79.6618 69.8895 79.6723 69.7886 79.6649C69.5141 79.645 69.192 79.533 68.9227 79.4625C67.1912 79.0089 65.7606 78.0981 64.585 76.7435C64.495 76.6412 64.4076 76.5368 64.3227 76.4302C64.2379 76.3236 64.1558 76.215 64.0764 76.1045C63.997 75.9939 63.9204 75.8814 63.8466 75.7671C63.7727 75.6528 63.7018 75.5368 63.6338 75.4191C63.5658 75.3013 63.5007 75.182 63.4387 75.0611C63.3766 74.9402 63.3177 74.818 63.2617 74.6942C63.2058 74.5705 63.153 74.4456 63.1033 74.3193C63.0537 74.1931 63.0071 74.0658 62.9638 73.9374C62.9206 73.8089 62.8805 73.6796 62.8437 73.5493C62.8069 73.419 62.7735 73.288 62.7433 73.1563C62.7131 73.0244 62.6863 72.892 62.6628 72.759C62.6392 72.6259 62.619 72.4925 62.6023 72.3586C62.5854 72.2247 62.572 72.0906 62.5621 71.9562C62.552 71.8217 62.5454 71.6872 62.5422 71.5526C62.539 71.418 62.5392 71.2834 62.5427 71.149C62.5463 71.0146 62.5533 70.8804 62.5637 70.7465C62.7232 68.5205 63.8189 66.1984 65.5329 64.7735C66.5259 63.9481 67.635 63.2251 68.6922 62.4827L75.1761 58.0185L79.3703 55.1311C80.3984 54.4232 81.4431 53.5976 82.5984 53.1055C83.789 52.5981 85.127 52.4768 86.4174 52.6105Z" fill="#FEFEFE"/>
<path d="M63.3138 70.8567C65.4293 71.404 67.4398 72.4337 68.8323 74.1693C68.922 74.2811 69.0091 74.395 69.0933 74.511C69.1777 74.627 69.2591 74.7449 69.3376 74.8647C69.4162 74.9846 69.4918 75.1062 69.5644 75.2296C69.637 75.353 69.7066 75.4781 69.7732 75.6047C69.8397 75.7314 69.9031 75.8596 69.9634 75.9892C70.0237 76.1188 70.0808 76.2498 70.1347 76.3821C70.1886 76.5144 70.2392 76.6479 70.2866 76.7825C70.334 76.9171 70.378 77.0527 70.4187 77.1894C70.4595 77.326 70.4968 77.4635 70.5308 77.6019C70.5649 77.7402 70.5955 77.8792 70.6226 78.0189C70.6498 78.1585 70.6735 78.2987 70.6937 78.4394C70.7141 78.5801 70.7309 78.721 70.7443 78.8623C70.7576 79.0037 70.7675 79.1453 70.774 79.2869C70.7803 79.4286 70.7832 79.5702 70.7826 79.7119C70.782 79.8536 70.7779 79.9951 70.7703 80.1364C70.7627 80.2778 70.7517 80.4187 70.7372 80.5593C70.4801 82.9408 69.47 84.9482 67.5847 86.4125C65.2839 88.1997 62.7558 89.7671 60.3632 91.4376L55.1954 95.0224C53.9217 95.9048 52.6113 96.9414 51.1785 97.5547C49.7766 98.155 48.1616 98.4285 46.6275 98.2195C46.492 98.2005 46.3569 98.1782 46.2224 98.1526C46.0878 98.127 45.9539 98.098 45.8206 98.0658C45.6874 98.0337 45.5549 97.9982 45.4233 97.9595C45.2916 97.9208 45.1609 97.8789 45.0312 97.8337C44.9015 97.7886 44.7729 97.7403 44.6454 97.6889C44.5181 97.6374 44.3919 97.5829 44.2671 97.5253C44.1422 97.4677 44.0187 97.4071 43.8968 97.3434C43.7748 97.2798 43.6544 97.2132 43.5355 97.1437C43.4168 97.0742 43.2997 97.0019 43.1844 96.9267C43.0691 96.8514 42.9556 96.7734 42.844 96.6927C42.7325 96.6119 42.6229 96.5285 42.5154 96.4424C42.4078 96.3564 42.3024 96.2678 42.1991 96.1766C42.0959 96.0854 41.9949 95.9918 41.8962 95.8957C41.7975 95.7996 41.7012 95.7013 41.6073 95.6005C41.5134 95.4998 41.422 95.3969 41.333 95.2918C41.2442 95.1867 41.1579 95.0795 41.0743 94.9702C40.9897 94.8597 40.9079 94.7472 40.8288 94.6328C40.7497 94.5185 40.6735 94.4023 40.6 94.2844C40.5265 94.1664 40.4559 94.0468 40.3882 93.9256C40.3205 93.8042 40.2558 93.6814 40.194 93.5572C40.1323 93.4329 40.0736 93.3073 40.0179 93.1803C39.9624 93.0533 39.9099 92.925 39.8605 92.7955C39.8111 92.6661 39.7648 92.5356 39.7217 92.404C39.6787 92.2726 39.6389 92.1402 39.6022 92.0068C39.5656 91.8735 39.5323 91.7394 39.5022 91.6046C39.4722 91.4697 39.4454 91.3343 39.4221 91.1984C39.3986 91.0624 39.3785 90.926 39.3616 90.7891C39.3449 90.6524 39.3315 90.5153 39.3214 90.378C39.3113 90.2407 39.3046 90.1033 39.3013 89.9658C39.298 89.8283 39.298 89.6908 39.3014 89.5534C39.3048 89.4162 39.3116 89.2791 39.3218 89.1423C39.3319 89.0053 39.3453 88.8688 39.3622 88.7328C39.5727 87.0165 40.2413 85.4933 41.3748 84.1986C42.5379 82.8702 44.2068 81.9976 45.6507 80.9982C49.1312 78.5888 52.7327 76.3114 56.1177 73.7709C56.2261 73.6791 56.3443 73.5609 56.4667 73.4902C56.6227 73.4005 56.6581 73.4148 56.8159 73.4694C57.0429 74.0513 55.6269 74.6557 55.2182 74.9213C52.7345 76.5348 50.3136 78.2613 47.8598 79.9211C46.0954 81.1146 43.3784 82.7203 41.9433 84.1863C41.0929 85.0549 40.4383 86.1742 40.0698 87.3353C40.0309 87.4609 39.9951 87.5874 39.9626 87.715C39.9301 87.8424 39.9007 87.9707 39.8747 88.0998C39.8486 88.2289 39.8258 88.3586 39.8063 88.4889C39.7867 88.6193 39.7704 88.7501 39.7575 88.8815C39.7445 89.0128 39.7348 89.1444 39.7285 89.2764C39.722 89.4083 39.719 89.5404 39.7193 89.6727C39.7195 89.8049 39.723 89.9371 39.7299 90.0693C39.7368 90.2015 39.747 90.3336 39.7604 90.4654C39.7739 90.5973 39.7906 90.7288 39.8107 90.8599C39.8307 90.9911 39.854 91.1218 39.8805 91.2519C39.9071 91.382 39.9369 91.5115 39.9699 91.6404C40.0029 91.7692 40.0391 91.8971 40.0784 92.0242C40.1178 92.1515 40.1603 92.2776 40.206 92.4028C40.2516 92.528 40.3003 92.652 40.3522 92.7749C40.404 92.8978 40.4589 93.0194 40.5167 93.1397C40.5746 93.26 40.6353 93.3788 40.6991 93.4962C40.7605 93.6116 40.8246 93.7255 40.8916 93.8379C40.9585 93.9502 41.0281 94.061 41.1004 94.1701C41.1726 94.2792 41.2475 94.3865 41.325 94.4921C41.4025 94.5977 41.4825 94.7015 41.5649 94.8033C41.6474 94.9051 41.7323 95.0048 41.8195 95.1025C41.9069 95.2003 41.9965 95.296 42.0883 95.3895C42.1802 95.4829 42.2744 95.5742 42.3706 95.6632C42.4669 95.7522 42.5653 95.8388 42.6657 95.9231C42.766 96.0074 42.8684 96.0892 42.9727 96.1686C43.0771 96.248 43.1833 96.3248 43.2913 96.3991C43.3992 96.4735 43.5089 96.5452 43.6203 96.6142C43.7317 96.6832 43.8447 96.7495 43.9592 96.813C44.0738 96.8766 44.1897 96.9374 44.307 96.9954C44.4244 97.0534 44.5431 97.1085 44.6631 97.1608C44.7831 97.2131 44.9042 97.2624 45.0264 97.3087C45.1487 97.3552 45.272 97.3986 45.3962 97.4391C47.5583 98.1222 49.9081 97.8165 51.8668 96.7812C52.8985 96.2358 53.8269 95.515 54.7813 94.8511L59.3356 91.6907L64.4596 88.1659C65.8122 87.2384 67.3247 86.3141 68.4693 85.1335C69.2293 84.3498 69.8332 83.1378 70.132 82.0862C70.1699 81.9561 70.2045 81.8251 70.2358 81.6931C70.267 81.5611 70.2949 81.4283 70.3195 81.2948C70.3439 81.1612 70.365 81.0271 70.3826 80.8924C70.4003 80.7577 70.4146 80.6225 70.4254 80.4868C70.4362 80.3512 70.4436 80.2153 70.4474 80.0792C70.4513 79.9431 70.4518 79.8069 70.4488 79.6706C70.4456 79.5342 70.4392 79.398 70.4293 79.262C70.4194 79.1258 70.406 78.99 70.3891 78.8544C70.3723 78.7187 70.3521 78.5835 70.3284 78.4488C70.3048 78.3141 70.2778 78.1799 70.2473 78.0463C70.2169 77.9128 70.1832 77.7801 70.1461 77.6482C70.1089 77.5162 70.0685 77.3851 70.0247 77.2551C69.981 77.125 69.934 76.996 69.8838 76.8681C69.8336 76.7403 69.7801 76.6137 69.7235 76.4883C69.667 76.363 69.6073 76.2391 69.5444 76.1167C69.4817 75.9943 69.4158 75.8734 69.347 75.7542C68.4785 74.2238 67.0149 72.8468 65.3896 72.151C64.7478 71.8763 64.0556 71.6989 63.3875 71.5026C63.2819 71.314 63.3165 71.0708 63.3138 70.8567Z" fill="#FEFEFE"/>
<path d="M63.3181 71.7485C65.4988 72.275 67.4154 73.4344 68.709 75.31C69.194 76.0131 70.168 77.9445 70.0182 78.7764C68.4058 78.5964 67.138 78.1091 65.9228 76.9977C64.4755 75.6738 63.4259 73.7046 63.3181 71.7485Z" fill="#EDE7FF"/>
<path d="M20.8351 25.9945C21.7227 25.8728 22.729 25.9561 23.6306 25.9562L29.0699 25.9605L47.6768 25.9617L112.867 26.0233C114.989 26.019 116.691 25.9843 118.294 27.5945C120.033 29.3407 119.868 31.5212 119.867 33.788L119.853 37.9467L115.354 37.9412L15.9257 37.8774C15.8551 36.4443 15.9114 34.9871 15.9303 33.552C15.946 32.3628 15.8422 31.0529 16.116 29.8914C16.1583 29.7081 16.211 29.5278 16.274 29.3505C16.337 29.1731 16.41 28.9999 16.4929 28.8309C16.5757 28.6617 16.6679 28.4978 16.7697 28.3391C16.8713 28.1805 16.9817 28.028 17.1008 27.8819C18.0479 26.7238 19.3643 26.1492 20.8351 25.9945Z" fill="#9E8EFF"/>
<path d="M78.2085 28.3798C80.5386 28.3139 82.8838 28.3658 85.2154 28.3677L97.8232 28.3749L108.82 28.3772C110.058 28.3774 111.374 28.275 112.601 28.3719C113.136 28.4142 113.638 28.5735 114.088 28.8676C114.904 29.4011 115.483 30.2853 115.678 31.2324C115.859 32.1059 115.672 32.9721 115.17 33.7087C114.572 34.586 113.731 35.0762 112.703 35.2862L88.2744 35.2761L81.7762 35.2842C80.6001 35.2859 79.359 35.3641 78.1904 35.2503C77.5923 35.1921 77.0527 35.0287 76.5569 34.6826C75.7976 34.1526 75.2166 33.25 75.094 32.3283C74.9639 31.3487 75.1714 30.5307 75.7738 29.7373C76.3774 28.9426 77.2334 28.5105 78.2085 28.3798Z" fill="#201D00"/>
<path d="M78.2089 28.6536C80.4648 28.5807 82.7396 28.6386 84.9973 28.6402L97.6426 28.6489L108.2 28.6538C109.612 28.6482 111.111 28.543 112.512 28.666C113.097 28.7173 113.634 28.9017 114.108 29.2494C114.851 29.7935 115.284 30.5956 115.417 31.4913C115.537 32.3026 115.329 33.0198 114.834 33.6707C114.24 34.4506 113.526 34.858 112.554 34.985C110.672 35.0855 108.752 35.0087 106.867 35.0028L92.6214 34.9617L82.9655 34.9917C81.4928 34.9936 79.9433 35.1033 78.4808 34.9756C77.808 34.9168 77.1699 34.7241 76.6227 34.3188C76.5811 34.2876 76.5402 34.2554 76.5001 34.2222C76.4601 34.1891 76.4209 34.1549 76.3826 34.1198C76.3442 34.0847 76.3067 34.0487 76.2702 34.0116C76.2336 33.9747 76.1979 33.9369 76.1632 33.8983C76.1286 33.8596 76.0949 33.8201 76.0621 33.7798C76.0293 33.7395 75.9976 33.6984 75.9669 33.6565C75.9362 33.6146 75.9066 33.572 75.878 33.5286C75.8494 33.4853 75.8219 33.4414 75.7955 33.3967C75.769 33.352 75.7437 33.3067 75.7196 33.2608C75.6955 33.2149 75.6725 33.1684 75.6506 33.1215C75.6287 33.0744 75.608 33.0269 75.5885 32.9788C75.569 32.9307 75.5507 32.8823 75.5335 32.8334C75.5165 32.7845 75.5006 32.7352 75.4858 32.6855C75.4712 32.6357 75.4578 32.5857 75.4457 32.5353C75.4334 32.485 75.4225 32.4343 75.4129 32.3834C75.4031 32.3325 75.3947 32.2814 75.3876 32.2301C75.3803 32.1797 75.3742 32.1291 75.3693 32.0784C75.3645 32.0276 75.361 31.9768 75.3588 31.9259C75.3565 31.875 75.3555 31.8241 75.3559 31.7731C75.3562 31.7221 75.3578 31.6712 75.3607 31.6203C75.3635 31.5694 75.3676 31.5187 75.3731 31.468C75.3785 31.4173 75.3852 31.3668 75.3932 31.3164C75.4012 31.2661 75.4103 31.216 75.4208 31.1661C75.4313 31.1162 75.4431 31.0666 75.456 31.0173C75.469 30.968 75.4833 30.9191 75.4987 30.8704C75.5141 30.8218 75.5307 30.7736 75.5486 30.7258C75.5665 30.6781 75.5855 30.6308 75.6058 30.5839C75.626 30.5371 75.6474 30.4908 75.67 30.4451C75.6926 30.3993 75.7164 30.3541 75.7412 30.3094C75.766 30.2649 75.792 30.221 75.819 30.1777C75.8461 30.1343 75.8742 30.0917 75.9034 30.0497C75.9326 30.0079 75.9629 29.9667 75.9941 29.9263C76.5535 29.1893 77.3013 28.781 78.2089 28.6536Z" fill="#EDE7FF"/>
<path d="M31.5404 28.8474C31.5778 28.8458 31.6153 28.8451 31.6527 28.8453C31.6902 28.8454 31.7276 28.8465 31.7649 28.8485C31.8023 28.8505 31.8396 28.8534 31.8768 28.8572C31.9141 28.8609 31.9512 28.8655 31.9883 28.8711C32.0253 28.8767 32.0621 28.8831 32.0988 28.8905C32.1355 28.8978 32.172 28.9061 32.2083 28.9152C32.2447 28.9243 32.2807 28.9342 32.3165 28.945C32.3523 28.9559 32.3879 28.9676 32.4231 28.9801C32.4584 28.9927 32.4933 29.0061 32.5278 29.0203C32.5624 29.0345 32.5966 29.0496 32.6305 29.0655C32.6643 29.0813 32.6978 29.0981 32.7308 29.1156C32.7638 29.1331 32.7964 29.1513 32.8285 29.1704C32.8607 29.1895 32.8924 29.2093 32.9235 29.2299C32.9547 29.2504 32.9853 29.2718 33.0154 29.2938C33.0456 29.3159 33.0752 29.3387 33.1042 29.3622C33.1331 29.3857 33.1616 29.4098 33.1894 29.4348C33.2173 29.4596 33.2445 29.4851 33.271 29.5113C33.2977 29.5374 33.3236 29.5642 33.3489 29.5916C33.3741 29.6191 33.3987 29.6472 33.4226 29.6758C33.4465 29.7044 33.4697 29.7335 33.4922 29.7632C33.5146 29.7929 33.5364 29.8232 33.5573 29.8539C33.5783 29.8847 33.5986 29.916 33.618 29.9477C33.6375 29.9794 33.6562 30.0117 33.6741 30.0443C33.6921 30.077 33.7091 30.11 33.7254 30.1434C33.7417 30.1769 33.7571 30.2107 33.7717 30.245C33.7864 30.2792 33.8001 30.3137 33.813 30.3486C33.826 30.3835 33.8381 30.4186 33.8493 30.454C33.8606 30.4895 33.8709 30.5253 33.8803 30.5613C33.8898 30.5971 33.8984 30.6333 33.9061 30.6697C33.9137 30.7061 33.9205 30.7426 33.9265 30.7793C33.9324 30.816 33.9374 30.8528 33.9415 30.8897C33.9456 30.9267 33.9488 30.9637 33.9511 31.0008C33.9534 31.0379 33.9548 31.075 33.9554 31.1122C33.9558 31.1493 33.9554 31.1865 33.9541 31.2237C33.9527 31.2608 33.9505 31.2979 33.9473 31.3349C33.9442 31.372 33.9402 31.4089 33.9352 31.4457C33.9303 31.4826 33.9245 31.5193 33.9177 31.5558C33.9109 31.5923 33.9033 31.6287 33.8948 31.6649C33.8862 31.7011 33.8768 31.737 33.8666 31.7728C33.8563 31.8085 33.8451 31.8439 33.8331 31.8792C33.8211 31.9144 33.8082 31.9493 33.7945 31.9839C33.7808 32.0184 33.7662 32.0527 33.7508 32.0866C33.7354 32.1204 33.7192 32.1539 33.7021 32.187C33.6851 32.2201 33.6673 32.2528 33.6487 32.2851C33.6301 32.3172 33.6107 32.349 33.5905 32.3803C33.5703 32.4116 33.5494 32.4424 33.5276 32.4727C33.5059 32.503 33.4835 32.5328 33.4604 32.5619C33.4372 32.5911 33.4134 32.6198 33.3888 32.6479C33.3643 32.6759 33.3391 32.7034 33.3132 32.7303C33.2873 32.7571 33.2607 32.7833 33.2336 32.8088C33.2065 32.8344 33.1787 32.8594 33.1502 32.8836C33.1219 32.9078 33.0929 32.9313 33.0633 32.9541C33.0339 32.9769 33.0038 32.9991 32.9731 33.0204C32.9425 33.0418 32.9114 33.0624 32.8797 33.0823C32.8481 33.1022 32.816 33.1214 32.7835 33.1397C32.7509 33.158 32.7179 33.1756 32.6845 33.1923C32.6511 33.2091 32.6172 33.225 32.583 33.2401C32.5488 33.2552 32.5143 33.2695 32.4795 33.2831C32.4445 33.2965 32.4093 33.3091 32.3738 33.3209C32.3383 33.3326 32.3025 33.3435 32.2665 33.3535C32.2304 33.3635 32.1941 33.3727 32.1576 33.3811C32.1211 33.3894 32.0844 33.3968 32.0476 33.4033C32.0107 33.4098 31.9737 33.4154 31.9365 33.4201C31.8995 33.4249 31.8622 33.4287 31.8249 33.4316C31.774 33.4357 31.723 33.438 31.6719 33.4386C31.6209 33.4393 31.5699 33.4383 31.5188 33.4356C31.4678 33.4329 31.417 33.4285 31.3662 33.4225C31.3155 33.4165 31.2651 33.4088 31.2149 33.3994C31.1647 33.3901 31.1149 33.3791 31.0654 33.3666C31.016 33.3539 30.967 33.3396 30.9185 33.3237C30.8699 33.3079 30.822 33.2905 30.7747 33.2715C30.7274 33.2525 30.6807 33.232 30.6347 33.21C30.5887 33.1879 30.5436 33.1643 30.4992 33.1393C30.4547 33.1143 30.4111 33.0878 30.3685 33.06C30.3259 33.032 30.2842 33.0027 30.2435 32.9722C30.2029 32.9415 30.1632 32.9096 30.1246 32.8764C30.086 32.8431 30.0486 32.8086 30.0123 32.773C29.9761 32.7372 29.9411 32.7004 29.9073 32.6624C29.8735 32.6243 29.841 32.5853 29.8098 32.5451C29.7786 32.505 29.7488 32.4639 29.7203 32.4218C29.6918 32.3797 29.6648 32.3367 29.6393 32.2928C29.6137 32.249 29.5895 32.2044 29.5669 32.1589C29.5443 32.1134 29.5233 32.0673 29.5037 32.0205C29.4842 31.9736 29.4663 31.9262 29.4499 31.8781C29.4335 31.8301 29.4188 31.7817 29.4056 31.7327C29.3925 31.6837 29.381 31.6343 29.3712 31.5845C29.3614 31.5348 29.3532 31.4848 29.3466 31.4345C29.3401 31.3843 29.3353 31.3338 29.3322 31.2832C29.3291 31.2327 29.3276 31.182 29.3279 31.1313C29.3281 31.0806 29.33 31.0299 29.3337 30.9794C29.3372 30.9289 29.3425 30.8785 29.3495 30.8282C29.3565 30.7781 29.3651 30.7281 29.3754 30.6784C29.3857 30.6288 29.3977 30.5796 29.4113 30.5307C29.4249 30.4818 29.4401 30.4335 29.4568 30.3856C29.4737 30.3378 29.4921 30.2905 29.5121 30.2439C29.532 30.1972 29.5535 30.1512 29.5766 30.106C29.5997 30.0607 29.6242 30.0163 29.6501 29.9727C29.6762 29.9291 29.7036 29.8863 29.7324 29.8445C29.7613 29.8026 29.7915 29.7618 29.8231 29.722C29.8546 29.6822 29.8875 29.6434 29.9217 29.6057C29.9558 29.568 29.9912 29.5315 30.0279 29.4961C30.0644 29.4608 30.1021 29.4267 30.1411 29.3938C30.1799 29.3609 30.2199 29.3293 30.2609 29.2991C30.3018 29.2689 30.3437 29.24 30.3866 29.2124C30.4296 29.185 30.4733 29.1589 30.518 29.1342C30.5626 29.1096 30.608 29.0865 30.6542 29.0649C30.7004 29.0432 30.7472 29.0232 30.7947 29.0046C30.8423 28.986 30.8904 28.9691 30.939 28.9537C30.9877 28.9383 31.0368 28.9245 31.0864 28.9123C31.136 28.9001 31.1859 28.8897 31.2361 28.8808C31.2864 28.8719 31.337 28.8647 31.3878 28.8591C31.4385 28.8535 31.4894 28.8496 31.5404 28.8474Z" fill="#201D00"/>
<path d="M31.1998 29.2065C31.2311 29.1995 31.2626 29.1932 31.2942 29.1876C31.3259 29.1821 31.3576 29.1774 31.3894 29.1733C31.4212 29.1693 31.4532 29.166 31.4853 29.1636C31.5172 29.1611 31.5493 29.1594 31.5814 29.1584C31.6135 29.1575 31.6455 29.1573 31.6776 29.1579C31.7097 29.1585 31.7418 29.1598 31.7739 29.1619C31.8059 29.1641 31.8379 29.167 31.8698 29.1706C31.9016 29.1743 31.9334 29.1787 31.9651 29.1839C31.9968 29.1891 32.0283 29.195 32.0597 29.2017C32.0911 29.2085 32.1223 29.2159 32.1533 29.224C32.1844 29.2323 32.2152 29.2412 32.2457 29.2509C32.2764 29.2605 32.3067 29.2709 32.3368 29.2821C32.3668 29.2933 32.3966 29.3052 32.4262 29.3177C32.4557 29.3303 32.4849 29.3435 32.5138 29.3575C32.5426 29.3714 32.571 29.3861 32.5992 29.4014C32.6273 29.4167 32.6551 29.4327 32.6825 29.4494C32.7099 29.4661 32.7368 29.4834 32.7633 29.5014C32.7899 29.5193 32.816 29.5378 32.8416 29.557C32.8672 29.5763 32.8923 29.5962 32.9169 29.6166C32.9416 29.637 32.9658 29.658 32.9894 29.6796C33.013 29.7011 33.0362 29.7232 33.0587 29.7459C33.0813 29.7686 33.1033 29.7918 33.1247 29.8155C33.1461 29.8393 33.1669 29.8636 33.1871 29.8883C33.2074 29.913 33.227 29.9382 33.246 29.9639C33.2651 29.9895 33.2834 30.0156 33.3012 30.0422C33.3189 30.0688 33.336 30.0958 33.3524 30.1232C33.3688 30.1506 33.3846 30.1783 33.3997 30.2065C33.4148 30.2346 33.4291 30.2631 33.4429 30.2919C33.4566 30.3207 33.4696 30.3499 33.4818 30.3793C33.4941 30.4087 33.5056 30.4385 33.5165 30.4686C33.5273 30.4985 33.5374 30.5287 33.5467 30.5592C33.556 30.5897 33.5647 30.6204 33.5725 30.6513C33.5804 30.6822 33.5875 30.7133 33.5938 30.7446C33.6002 30.7759 33.6058 30.8072 33.6106 30.8387C33.6154 30.8702 33.6194 30.9018 33.6227 30.9336C33.626 30.9652 33.6285 30.9969 33.6301 31.0288C33.6319 31.0606 33.6328 31.0924 33.633 31.1243C33.6332 31.1563 33.6326 31.1881 33.6313 31.2199C33.6298 31.2518 33.6277 31.2835 33.6248 31.3152C33.6219 31.347 33.6182 31.3786 33.6137 31.4103C33.6092 31.4418 33.604 31.4733 33.598 31.5046C33.592 31.5359 33.5852 31.567 33.5778 31.598C33.5702 31.629 33.5619 31.6598 33.5529 31.6904C33.5439 31.721 33.5341 31.7513 33.5237 31.7814C33.5132 31.8115 33.5019 31.8414 33.4899 31.871C33.478 31.9006 33.4654 31.9299 33.452 31.9588C33.4387 31.9878 33.4246 32.0164 33.4098 32.0447C33.395 32.073 33.3796 32.1009 33.3635 32.1285C33.3473 32.1561 33.3305 32.1832 33.3131 32.2099C33.2956 32.2367 33.2775 32.263 33.2589 32.2889C33.2401 32.3148 33.2207 32.3402 33.2007 32.3652C33.1808 32.3901 33.1602 32.4145 33.139 32.4385C33.1178 32.4625 33.0961 32.4859 33.0738 32.5089C33.0515 32.5318 33.0286 32.5542 33.0053 32.576C32.9819 32.5979 32.9579 32.6191 32.9335 32.6398C32.9091 32.6604 32.8842 32.6805 32.8587 32.7C32.8334 32.7195 32.8075 32.7383 32.7812 32.7566C32.7548 32.7748 32.7281 32.7925 32.7009 32.8095C32.6738 32.8265 32.6462 32.8427 32.6182 32.8583C32.5903 32.8739 32.5619 32.8889 32.5332 32.9032C32.5045 32.9175 32.4754 32.931 32.4461 32.9439C32.4167 32.9568 32.387 32.969 32.357 32.9804C32.3271 32.9919 32.2969 33.0027 32.2664 33.0127C32.2359 33.0226 32.2052 33.0319 32.1742 33.0405C32.1317 33.0522 32.0888 33.0625 32.0456 33.0714C32.0024 33.0803 31.9589 33.0878 31.9153 33.0938C31.8715 33.0999 31.8276 33.1045 31.7835 33.1076C31.7395 33.1108 31.6954 33.1124 31.6513 33.1126C31.6072 33.1129 31.5631 33.1117 31.519 33.1091C31.475 33.1064 31.431 33.1022 31.3872 33.0967C31.3434 33.0911 31.2999 33.0841 31.2566 33.0756C31.2132 33.0671 31.1702 33.0573 31.1276 33.046C31.085 33.0347 31.0427 33.0221 31.0009 33.008C30.9591 32.9939 30.9178 32.9784 30.8771 32.9616C30.8363 32.9449 30.7961 32.9268 30.7566 32.9073C30.717 32.8879 30.6781 32.8672 30.6399 32.8451C30.6018 32.8231 30.5644 32.7999 30.5278 32.7754C30.4912 32.751 30.4555 32.7253 30.4205 32.6985C30.3856 32.6716 30.3517 32.6436 30.3187 32.6146C30.2857 32.5855 30.2536 32.5554 30.2226 32.5242C30.1916 32.493 30.1617 32.4608 30.1328 32.4277C30.1039 32.3945 30.0762 32.3604 30.0497 32.3254C30.0231 32.2904 29.9977 32.2546 29.9735 32.2179C29.9494 32.1812 29.9265 32.1438 29.9049 32.1056C29.8831 32.0674 29.8628 32.0286 29.8438 31.9891C29.8246 31.9495 29.8069 31.9094 29.7906 31.8687C29.7742 31.828 29.7591 31.7869 29.7455 31.7452C29.7319 31.7035 29.7197 31.6614 29.7089 31.6188C29.6981 31.5764 29.6888 31.5336 29.6809 31.4904C29.6729 31.4474 29.6664 31.4041 29.6613 31.3605C29.6563 31.317 29.6528 31.2733 29.6507 31.2295C29.6486 31.1858 29.6479 31.142 29.6487 31.0982C29.6495 31.0544 29.6518 31.0107 29.6556 30.967C29.6593 30.9233 29.6646 30.8799 29.6713 30.8365C29.6779 30.7932 29.686 30.7501 29.6955 30.7073C29.7051 30.6645 29.7161 30.6221 29.7284 30.5801C29.7408 30.538 29.7546 30.4965 29.7698 30.4553C29.785 30.4141 29.8015 30.3735 29.8193 30.3335C29.8373 30.2934 29.8566 30.254 29.8771 30.2153C29.8976 30.1764 29.9193 30.1384 29.9424 30.101C29.9656 30.0637 29.9899 30.0271 30.0154 29.9914C30.0409 29.9556 30.0676 29.9207 30.0954 29.8867C30.1233 29.8528 30.1523 29.8198 30.1825 29.7877C30.2125 29.7556 30.2436 29.7246 30.2758 29.6945C30.3079 29.6645 30.3411 29.6356 30.3752 29.6077C30.4092 29.5799 30.4442 29.5532 30.48 29.5277C30.5159 29.5022 30.5526 29.4779 30.5902 29.4547C30.6277 29.4316 30.666 29.4098 30.7049 29.3892C30.7439 29.3686 30.7835 29.3493 30.8237 29.3313C30.864 29.3134 30.9049 29.2968 30.9462 29.2815C30.9876 29.2662 31.0294 29.2523 31.0717 29.2398C31.1141 29.2273 31.1568 29.2162 31.1998 29.2065Z" fill="#CEC5FF"/>
<path d="M24.0045 28.8638C24.0419 28.8607 24.0794 28.8585 24.117 28.8572C24.1546 28.8561 24.1922 28.8557 24.2297 28.8562C24.2672 28.8568 24.3048 28.8583 24.3423 28.8607C24.3799 28.863 24.4173 28.8663 24.4546 28.8705C24.492 28.8746 24.5292 28.8797 24.5663 28.8858C24.6033 28.8918 24.6403 28.8987 24.677 28.9064C24.7137 28.9142 24.7502 28.9229 24.7866 28.9324C24.823 28.9419 24.8591 28.9523 24.8948 28.9636C24.9307 28.9749 24.9662 28.9871 25.0014 29C25.0366 29.013 25.0715 29.0269 25.1061 29.0416C25.1406 29.0564 25.1748 29.0719 25.2085 29.0883C25.2423 29.1046 25.2757 29.1218 25.3086 29.1397C25.3415 29.1577 25.374 29.1764 25.406 29.1959C25.4381 29.2155 25.4696 29.2358 25.5006 29.2568C25.5315 29.2779 25.562 29.2997 25.592 29.3223C25.6219 29.3448 25.6513 29.368 25.6802 29.392C25.7089 29.4159 25.7371 29.4406 25.7647 29.4659C25.7923 29.4913 25.8192 29.5172 25.8455 29.5438C25.8719 29.5705 25.8975 29.5978 25.9225 29.6256C25.9475 29.6535 25.9718 29.682 25.9953 29.711C26.0189 29.7401 26.0418 29.7697 26.0638 29.7997C26.0859 29.8299 26.1073 29.8606 26.128 29.8918C26.1486 29.923 26.1685 29.9547 26.1875 29.9869C26.2065 30.019 26.2248 30.0515 26.2423 30.0845C26.2598 30.1176 26.2764 30.151 26.2922 30.1849C26.308 30.2187 26.323 30.2529 26.3371 30.2874C26.3513 30.322 26.3646 30.3569 26.377 30.3922C26.3895 30.4273 26.401 30.4628 26.4117 30.4986C26.4223 30.5344 26.4321 30.5704 26.441 30.6066C26.4499 30.6428 26.4579 30.6792 26.465 30.7159C26.4722 30.7525 26.4784 30.7893 26.4838 30.8262C26.489 30.8631 26.4934 30.9001 26.4969 30.9373C26.5004 30.9744 26.503 31.0117 26.5047 31.0489C26.5063 31.0862 26.5071 31.1234 26.507 31.1607C26.5068 31.198 26.5057 31.2354 26.5037 31.2726C26.5017 31.3099 26.4988 31.347 26.495 31.3841C26.4911 31.4212 26.4864 31.4582 26.4808 31.495C26.4752 31.5319 26.4687 31.5687 26.4612 31.6053C26.4538 31.6418 26.4454 31.6782 26.4362 31.7144C26.427 31.7506 26.4169 31.7865 26.4059 31.8222C26.3949 31.8577 26.3831 31.8931 26.3703 31.9282C26.3576 31.9634 26.344 31.9981 26.3295 32.0325C26.3151 32.067 26.2999 32.1011 26.2838 32.1347C26.2676 32.1685 26.2506 32.2018 26.233 32.2347C26.2152 32.2675 26.1966 32.2999 26.1773 32.3319C26.1579 32.3639 26.1378 32.3954 26.1169 32.4265C26.0961 32.4575 26.0744 32.4879 26.052 32.5179C26.0296 32.5479 26.0065 32.5773 25.9827 32.6061C25.9589 32.635 25.9343 32.6632 25.9091 32.6909C25.8839 32.7185 25.858 32.7455 25.8315 32.7719C25.8049 32.7983 25.7777 32.8241 25.7499 32.8491C25.7221 32.8742 25.6937 32.8986 25.6647 32.9224C25.6357 32.9461 25.6061 32.9691 25.5759 32.9914C25.5458 33.0137 25.5152 33.0352 25.484 33.0559C25.4528 33.0768 25.4211 33.0968 25.3889 33.116C25.3567 33.1353 25.324 33.1538 25.2909 33.1715C25.2578 33.1891 25.2243 33.206 25.1904 33.2222C25.1565 33.2382 25.1222 33.2534 25.0875 33.2677C25.0529 33.2822 25.0179 33.2958 24.9826 33.3085C24.9472 33.3212 24.9116 33.333 24.8756 33.344C24.8398 33.3549 24.8036 33.365 24.7672 33.3743C24.7308 33.3835 24.6942 33.3918 24.6574 33.3993C24.6206 33.4067 24.5836 33.4133 24.5464 33.419C24.5092 33.4247 24.472 33.4295 24.4346 33.4333C24.3841 33.4385 24.3334 33.4421 24.2827 33.444C24.232 33.4459 24.1812 33.4462 24.1304 33.4447C24.0797 33.4433 24.029 33.4403 23.9783 33.4355C23.9278 33.4308 23.8775 33.4244 23.8273 33.4165C23.7771 33.4084 23.7273 33.3987 23.6778 33.3875C23.6283 33.3762 23.5792 33.3633 23.5306 33.3488C23.4819 33.3343 23.4338 33.3182 23.3863 33.3005C23.3386 33.2829 23.2917 33.2637 23.2454 33.243C23.1991 33.2223 23.1535 33.2001 23.1086 33.1764C23.0638 33.1528 23.0199 33.1276 22.9767 33.1011C22.9335 33.0745 22.8912 33.0465 22.8499 33.0171C22.8086 32.9878 22.7683 32.9571 22.729 32.9252C22.6897 32.8932 22.6515 32.86 22.6145 32.8255C22.5774 32.791 22.5416 32.7554 22.5068 32.7185C22.4721 32.6817 22.4387 32.6438 22.4066 32.6048C22.3744 32.5658 22.3435 32.5258 22.314 32.4848C22.2844 32.4437 22.2563 32.4018 22.2296 32.359C22.2029 32.3161 22.1776 32.2723 22.1537 32.2278C22.1299 32.1833 22.1075 32.138 22.0866 32.092C22.0659 32.0461 22.0466 31.9995 22.0288 31.9523C22.011 31.9049 21.9949 31.8572 21.9803 31.8089C21.9658 31.7606 21.9528 31.7118 21.9414 31.6627C21.9301 31.6135 21.9204 31.5641 21.9124 31.5143C21.9043 31.4645 21.898 31.4146 21.8933 31.3644C21.8886 31.3141 21.8855 31.2638 21.884 31.2134C21.8827 31.163 21.883 31.1126 21.885 31.0622C21.8869 31.0118 21.8906 30.9615 21.8958 30.9115C21.9011 30.8613 21.9081 30.8114 21.9167 30.7617C21.9253 30.712 21.9356 30.6626 21.9474 30.6135C21.9593 30.5646 21.9728 30.516 21.9879 30.4679C22.0031 30.4198 22.0198 30.3721 22.038 30.325C22.0563 30.278 22.0761 30.2316 22.0975 30.1859C22.1189 30.1402 22.1417 30.0952 22.166 30.0509C22.1904 30.0067 22.2162 29.9632 22.2435 29.9207C22.2707 29.8781 22.2993 29.8364 22.3293 29.7958C22.3593 29.7551 22.3906 29.7154 22.4233 29.6767C22.4558 29.6381 22.4897 29.6006 22.5248 29.5642C22.5599 29.5277 22.5962 29.4925 22.6337 29.4585C22.6712 29.4244 22.7097 29.3915 22.7493 29.36C22.789 29.3285 22.8297 29.2983 22.8713 29.2695C22.913 29.2406 22.9555 29.2131 22.9989 29.187C23.0424 29.1609 23.0867 29.1363 23.1318 29.1131C23.1769 29.0899 23.2228 29.0682 23.2694 29.048C23.3158 29.0278 23.363 29.0092 23.4108 28.9921C23.4586 28.9749 23.5069 28.9594 23.5557 28.9455C23.6046 28.9316 23.6538 28.9192 23.7034 28.9084C23.7531 28.8978 23.803 28.8887 23.8531 28.8813C23.9034 28.8737 23.9539 28.8679 24.0045 28.8638Z" fill="#201D00"/>
<path d="M23.8696 29.192C23.902 29.1865 23.9343 29.182 23.9668 29.1782C23.9993 29.1743 24.0319 29.1713 24.0646 29.1691C24.0973 29.1668 24.13 29.1654 24.1627 29.1648C24.1954 29.1641 24.2281 29.1643 24.2608 29.1652C24.2936 29.1662 24.3263 29.1679 24.359 29.1704C24.3917 29.1729 24.4242 29.1762 24.4566 29.1803C24.4892 29.1844 24.5215 29.1893 24.5538 29.1949C24.586 29.2006 24.6181 29.2071 24.6501 29.2143C24.6819 29.2215 24.7136 29.2295 24.7452 29.2382C24.7767 29.247 24.808 29.2565 24.839 29.2667C24.8701 29.277 24.901 29.288 24.9315 29.2999C24.962 29.3116 24.9922 29.3241 25.0221 29.3373C25.052 29.3506 25.0816 29.3645 25.1108 29.3791C25.14 29.3938 25.1688 29.4092 25.1974 29.4252C25.2258 29.4413 25.2538 29.4581 25.2815 29.4755C25.3092 29.4929 25.3364 29.5109 25.3631 29.5296C25.3899 29.5484 25.4162 29.5678 25.442 29.5878C25.4678 29.6078 25.4931 29.6285 25.5179 29.6497C25.5426 29.6709 25.5668 29.6927 25.5906 29.7152C25.6143 29.7376 25.6374 29.7605 25.6601 29.784C25.6827 29.8075 25.7046 29.8316 25.726 29.8562C25.7474 29.8808 25.7682 29.9059 25.7883 29.9315C25.8085 29.9572 25.828 29.9832 25.847 30.0097C25.8658 30.0363 25.8841 30.0633 25.9017 30.0907C25.9192 30.1182 25.9361 30.146 25.9522 30.1743C25.9685 30.2025 25.984 30.2311 25.9987 30.2601C26.0135 30.2891 26.0275 30.3185 26.0409 30.3482C26.0542 30.3778 26.0669 30.4078 26.0787 30.4381C26.0906 30.4684 26.1017 30.4989 26.112 30.5297C26.1224 30.5606 26.132 30.5916 26.1409 30.623C26.1497 30.6543 26.1578 30.6858 26.1651 30.7175C26.1723 30.7491 26.1788 30.781 26.1845 30.813C26.1903 30.845 26.1952 30.8771 26.1994 30.9094C26.2035 30.9416 26.2068 30.9739 26.2094 31.0062C26.2119 31.0387 26.2137 31.0712 26.2146 31.1036C26.2156 31.1361 26.2158 31.1686 26.2151 31.2012C26.2145 31.2336 26.2131 31.2661 26.2108 31.2985C26.2086 31.3309 26.2056 31.3632 26.2017 31.3955C26.1979 31.4278 26.1933 31.46 26.1879 31.4921C26.1825 31.5241 26.1763 31.5561 26.1693 31.5878C26.1623 31.6195 26.1545 31.6511 26.1461 31.6825C26.1375 31.7139 26.1282 31.745 26.1181 31.7759C26.1081 31.8069 26.0973 31.8376 26.0857 31.868C26.0742 31.8983 26.0619 31.9284 26.0487 31.9583C26.0357 31.9881 26.0219 32.0175 26.0074 32.0467C25.9929 32.0758 25.9777 32.1046 25.9618 32.133C25.9459 32.1614 25.9293 32.1894 25.912 32.217C25.8947 32.2446 25.8767 32.2717 25.8581 32.2985C25.8395 32.3252 25.8203 32.3515 25.8004 32.3773C25.7804 32.4031 25.7599 32.4284 25.7387 32.4532C25.7175 32.478 25.6958 32.5023 25.6735 32.5261C25.6511 32.5497 25.6282 32.5729 25.6047 32.5956C25.5812 32.6183 25.5571 32.6403 25.5325 32.6618C25.5079 32.6833 25.4829 32.7041 25.4573 32.7243C25.4317 32.7446 25.4056 32.7642 25.379 32.7832C25.3524 32.8022 25.3254 32.8205 25.298 32.8382C25.2704 32.8559 25.2426 32.8729 25.2143 32.8893C25.186 32.9056 25.1572 32.9212 25.1281 32.9361C25.0991 32.9511 25.0696 32.9653 25.0399 32.9788C25.0101 32.9924 24.98 33.0052 24.9496 33.0172C24.9192 33.0293 24.8885 33.0406 24.8576 33.0512C24.8266 33.0617 24.7954 33.0715 24.7639 33.0806C24.7325 33.0896 24.7008 33.0979 24.669 33.1055C24.6371 33.113 24.6051 33.1197 24.5729 33.1257C24.5404 33.1318 24.5077 33.137 24.4748 33.1414C24.442 33.1459 24.4091 33.1496 24.3761 33.1523C24.343 33.1551 24.31 33.1572 24.2769 33.1585C24.2438 33.1596 24.2107 33.16 24.1775 33.1596C24.1444 33.1592 24.1114 33.1579 24.0783 33.1558C24.0452 33.1539 24.0122 33.151 23.9792 33.1473C23.9463 33.1437 23.9135 33.1393 23.8808 33.134C23.8481 33.1287 23.8156 33.1227 23.7831 33.1158C23.7508 33.109 23.7186 33.1013 23.6866 33.0928C23.6545 33.0844 23.6227 33.0752 23.5911 33.0652C23.5596 33.0552 23.5284 33.0444 23.4974 33.0329C23.4663 33.0213 23.4356 33.0091 23.4051 32.996C23.3747 32.983 23.3447 32.9693 23.315 32.9548C23.2852 32.9402 23.2558 32.9249 23.2269 32.909C23.198 32.8931 23.1694 32.8764 23.1413 32.8591C23.1131 32.8417 23.0854 32.8236 23.0581 32.8049C23.0309 32.7863 23.0041 32.7669 22.9779 32.7469C22.9516 32.7269 22.9258 32.7062 22.9005 32.6849C22.8753 32.6636 22.8506 32.6418 22.8264 32.6192C22.8022 32.5967 22.7786 32.5737 22.7556 32.55C22.7325 32.5263 22.7102 32.5021 22.6884 32.4774C22.6666 32.4526 22.6454 32.4274 22.6248 32.4017C22.6043 32.3758 22.5844 32.3495 22.5651 32.3228C22.5458 32.296 22.5273 32.2688 22.5094 32.2411C22.4914 32.2134 22.4743 32.1853 22.4578 32.1568C22.4413 32.1283 22.4256 32.0994 22.4105 32.0701C22.3954 32.0408 22.3811 32.0112 22.3675 31.9812C22.3539 31.9511 22.341 31.9208 22.329 31.8902C22.3169 31.8595 22.3056 31.8286 22.295 31.7975C22.2845 31.7663 22.2748 31.7349 22.2658 31.7032C22.2568 31.6716 22.2486 31.6398 22.2412 31.6078C22.2339 31.5757 22.2273 31.5434 22.2215 31.5111C22.2157 31.4787 22.2107 31.4462 22.2065 31.4135C22.2023 31.381 22.199 31.3483 22.1965 31.3154C22.194 31.2827 22.1922 31.2499 22.1913 31.2169C22.1904 31.1841 22.1903 31.1512 22.1909 31.1183C22.1917 31.0855 22.1933 31.0526 22.1956 31.0198C22.198 30.987 22.2011 30.9542 22.2052 30.9216C22.2092 30.889 22.214 30.8565 22.2196 30.8241C22.2252 30.7916 22.2316 30.7594 22.2387 30.7273C22.246 30.6952 22.254 30.6633 22.2628 30.6316C22.2715 30.5999 22.2811 30.5685 22.2915 30.5372C22.3019 30.506 22.313 30.475 22.3249 30.4443C22.3368 30.4136 22.3495 30.3832 22.3629 30.3531C22.3763 30.3231 22.3904 30.2934 22.4053 30.2639C22.4202 30.2346 22.4358 30.2057 22.4522 30.1771C22.4686 30.1484 22.4856 30.1202 22.5032 30.0925C22.521 30.0647 22.5394 30.0374 22.5585 30.0105C22.5776 29.9837 22.5974 29.9573 22.6178 29.9314C22.6382 29.9055 22.6593 29.8801 22.681 29.8552C22.7026 29.8303 22.7249 29.806 22.7478 29.7822C22.7706 29.7584 22.7941 29.7352 22.8182 29.7125C22.8422 29.69 22.8668 29.6679 22.892 29.6465C22.9171 29.6251 22.9427 29.6043 22.9688 29.5841C22.995 29.5639 23.0217 29.5444 23.0488 29.5255C23.076 29.5067 23.1036 29.4886 23.1316 29.4711C23.1596 29.4536 23.1881 29.4367 23.217 29.4206C23.2459 29.4045 23.2751 29.3891 23.3048 29.3743C23.3344 29.3597 23.3644 29.3458 23.3947 29.3326C23.4251 29.3194 23.4558 29.3069 23.4867 29.2952C23.5177 29.2835 23.5489 29.2725 23.5804 29.2623C23.6119 29.2522 23.6436 29.2428 23.6756 29.2342C23.7076 29.2255 23.7397 29.2177 23.7721 29.2107C23.8044 29.2036 23.8369 29.1974 23.8696 29.192Z" fill="#573BFF"/>
<path d="M38.6207 28.9178C38.6577 28.9125 38.6949 28.908 38.7322 28.9044C38.7694 28.9009 38.8067 28.8982 38.8441 28.8965C38.8814 28.8948 38.9188 28.894 38.9563 28.8941C38.9937 28.8942 39.0311 28.8952 39.0685 28.897C39.1059 28.899 39.1432 28.9018 39.1805 28.9056C39.2177 28.9094 39.2548 28.914 39.2918 28.9196C39.3288 28.9252 39.3657 28.9316 39.4023 28.939C39.439 28.9463 39.4755 28.9546 39.5117 28.9637C39.5481 28.9729 39.5841 28.9829 39.6199 28.9938C39.6556 29.0047 39.6911 29.0165 39.7263 29.0292C39.7615 29.0418 39.7964 29.0554 39.831 29.0698C39.8655 29.0841 39.8996 29.0992 39.9334 29.1152C39.9672 29.1313 40.0005 29.1481 40.0334 29.1658C40.0664 29.1834 40.0989 29.2018 40.1309 29.221C40.1629 29.2403 40.1945 29.2604 40.2255 29.2811C40.2565 29.3019 40.287 29.3234 40.317 29.3456C40.3469 29.3679 40.3763 29.3909 40.4052 29.4146C40.434 29.4383 40.4622 29.4627 40.4897 29.4878C40.5174 29.5129 40.5444 29.5387 40.5707 29.5651C40.597 29.5915 40.6227 29.6185 40.6477 29.6462C40.6726 29.6738 40.697 29.702 40.7206 29.7309C40.7442 29.7597 40.7671 29.7891 40.7892 29.8191C40.8113 29.849 40.8327 29.8795 40.8533 29.9105C40.874 29.9415 40.8938 29.973 40.9128 30.0049C40.9319 30.0369 40.9502 30.0694 40.9676 30.1022C40.9851 30.1351 41.0017 30.1685 41.0175 30.2021C41.0333 30.2358 41.0483 30.2698 41.0624 30.3042C41.0765 30.3387 41.0898 30.3734 41.1022 30.4084C41.1145 30.4435 41.126 30.4788 41.1367 30.5144C41.1474 30.55 41.1571 30.5859 41.1659 30.6221C41.1748 30.6581 41.1828 30.6944 41.1898 30.731C41.1968 30.7674 41.203 30.804 41.2083 30.8408C41.2135 30.8776 41.2179 30.9145 41.2213 30.9515C41.2247 30.9885 41.2272 31.0255 41.2287 31.0627C41.2303 31.0998 41.2309 31.1369 41.2306 31.1741C41.2304 31.2112 41.2292 31.2484 41.2271 31.2854C41.225 31.3225 41.222 31.3595 41.2181 31.3965C41.214 31.4335 41.2091 31.4703 41.2034 31.507C41.1977 31.5437 41.191 31.5803 41.1834 31.6167C41.1758 31.653 41.1673 31.6892 41.1579 31.7252C41.1485 31.7611 41.1382 31.7968 41.1271 31.8323C41.116 31.8678 41.104 31.903 41.091 31.9379C41.0781 31.9727 41.0643 32.0073 41.0497 32.0415C41.0351 32.0757 41.0196 32.1095 41.0034 32.143C40.9871 32.1764 40.97 32.2095 40.9522 32.2421C40.9342 32.2748 40.9155 32.3069 40.8959 32.3385C40.8764 32.3702 40.8561 32.4014 40.835 32.4321C40.8139 32.4629 40.7921 32.4931 40.7695 32.5227C40.7469 32.5524 40.7237 32.5814 40.6997 32.6099C40.6757 32.6384 40.651 32.6663 40.6256 32.6936C40.6002 32.7209 40.5741 32.7476 40.5474 32.7736C40.5207 32.7996 40.4933 32.825 40.4654 32.8497C40.4374 32.8744 40.4088 32.8984 40.3796 32.9217C40.3505 32.9449 40.3208 32.9674 40.2905 32.9893C40.2602 33.0111 40.2294 33.0322 40.1981 33.0526C40.1667 33.0729 40.1349 33.0925 40.1026 33.1113C40.0703 33.1301 40.0376 33.148 40.0044 33.1652C39.9712 33.1823 39.9376 33.1987 39.9036 33.2142C39.8696 33.2298 39.8352 33.2445 39.8005 33.2583C39.7657 33.2722 39.7307 33.2852 39.6954 33.2974C39.6599 33.3095 39.6243 33.3208 39.5883 33.3312C39.5524 33.3416 39.5163 33.3511 39.4798 33.3596C39.4434 33.3683 39.4068 33.376 39.37 33.3829C39.3332 33.3897 39.2963 33.3956 39.2592 33.4007C39.2223 33.4057 39.1853 33.4099 39.1483 33.4131C39.1112 33.4163 39.0741 33.4186 39.0369 33.4199C38.9997 33.4214 38.9625 33.4219 38.9253 33.4215C38.8881 33.421 38.8509 33.4197 38.8138 33.4176C38.7766 33.4153 38.7395 33.4122 38.7026 33.4082C38.6655 33.4042 38.6286 33.3993 38.5919 33.3935C38.5551 33.3876 38.5185 33.3809 38.4821 33.3734C38.4457 33.3658 38.4095 33.3573 38.3734 33.348C38.3375 33.3386 38.3017 33.3284 38.2661 33.3173C38.2307 33.3063 38.1955 33.2944 38.1605 33.2816C38.1257 33.2688 38.0911 33.2552 38.0569 33.2407C38.0226 33.2262 37.9887 33.2109 37.9553 33.1948C37.9218 33.1787 37.8887 33.1617 37.8561 33.144C37.8234 33.1264 37.7912 33.1079 37.7594 33.0886C37.7277 33.0693 37.6964 33.0492 37.6657 33.0284C37.6349 33.0076 37.6047 32.9861 37.575 32.9638C37.5454 32.9415 37.5162 32.9185 37.4876 32.8949C37.4591 32.8712 37.4312 32.8468 37.4038 32.8218C37.3764 32.7967 37.3497 32.771 37.3236 32.7447C37.2975 32.7183 37.2721 32.6913 37.2474 32.6637C37.2226 32.6362 37.1985 32.6081 37.1751 32.5793C37.1518 32.5505 37.1292 32.5212 37.1073 32.4914C37.0853 32.4615 37.0641 32.4311 37.0437 32.4003C37.0232 32.3694 37.0036 32.3381 36.9848 32.3062C36.9658 32.2744 36.9477 32.2421 36.9305 32.2094C36.9132 32.1767 36.8968 32.1436 36.8811 32.11C36.8654 32.0765 36.8506 32.0427 36.8367 32.0084C36.8227 31.9742 36.8095 31.9397 36.7972 31.9048C36.7849 31.8699 36.7735 31.8348 36.763 31.7994C36.7524 31.7639 36.7428 31.7282 36.734 31.6923C36.7252 31.6564 36.7173 31.6203 36.7103 31.5841C36.7032 31.5478 36.6971 31.5114 36.692 31.4748C36.6868 31.4382 36.6825 31.4015 36.6791 31.3648C36.6757 31.328 36.6732 31.2911 36.6716 31.2541C36.67 31.2172 36.6693 31.1803 36.6696 31.1434C36.6698 31.1065 36.6709 31.0695 36.673 31.0326C36.6751 30.9958 36.678 30.959 36.6819 30.9223C36.6857 30.8855 36.6905 30.8488 36.6962 30.8123C36.7018 30.7758 36.7084 30.7394 36.7159 30.7033C36.7234 30.6671 36.7318 30.6312 36.741 30.5954C36.7503 30.5595 36.7604 30.524 36.7713 30.4888C36.7823 30.4535 36.7942 30.4184 36.807 30.3837C36.8197 30.349 36.8333 30.3146 36.8477 30.2806C36.8621 30.2465 36.8774 30.2128 36.8935 30.1795C36.9096 30.1462 36.9265 30.1132 36.9442 30.0808C36.9618 30.0483 36.9803 30.0163 36.9997 29.9847C37.0189 29.9531 37.039 29.922 37.0598 29.8913C37.0806 29.8607 37.1022 29.8306 37.1245 29.8011C37.1469 29.7715 37.1699 29.7424 37.1936 29.7139C37.2173 29.6856 37.2417 29.6577 37.2668 29.6304C37.2919 29.6032 37.3177 29.5765 37.3441 29.5505C37.3706 29.5245 37.3976 29.4992 37.4252 29.4745C37.4529 29.4498 37.4812 29.4257 37.5101 29.4023C37.539 29.379 37.5683 29.3565 37.5983 29.3346C37.6283 29.3127 37.6588 29.2915 37.6899 29.271C37.7208 29.2507 37.7523 29.2311 37.7844 29.2122C37.8164 29.1933 37.8488 29.1752 37.8816 29.1579C37.9145 29.1406 37.9478 29.1241 37.9815 29.1084C38.0152 29.0927 38.0492 29.0778 38.0837 29.0638C38.1181 29.0497 38.1529 29.0365 38.188 29.0242C38.223 29.0118 38.2584 29.0004 38.2941 28.9898C38.3297 28.9791 38.3655 28.9694 38.4017 28.9605C38.4378 28.9516 38.4742 28.9436 38.5107 28.9365C38.5472 28.9294 38.5839 28.9231 38.6207 28.9178Z" fill="#201D00"/>
<path d="M38.4531 29.262C38.4948 29.2508 38.5368 29.2411 38.5792 29.2329C38.6217 29.2245 38.6643 29.2176 38.7071 29.212C38.75 29.2064 38.793 29.2023 38.8361 29.1995C38.8792 29.1969 38.9223 29.1956 38.9655 29.1956C39.0088 29.1957 39.052 29.1973 39.0952 29.2003C39.1383 29.2031 39.1812 29.2075 39.2241 29.2132C39.2668 29.219 39.3093 29.2261 39.3517 29.2347C39.3941 29.2432 39.4361 29.2531 39.4778 29.2644C39.5195 29.2757 39.5608 29.2884 39.6017 29.3024C39.6425 29.3164 39.6828 29.3316 39.7226 29.3483C39.7625 29.365 39.8017 29.383 39.8404 29.4022C39.879 29.4214 39.9169 29.4418 39.9542 29.4635C39.9915 29.4852 40.0281 29.5081 40.0638 29.5322C40.0996 29.5563 40.1344 29.5815 40.1684 29.6079C40.2025 29.6343 40.2357 29.6618 40.268 29.6903C40.3002 29.7188 40.3315 29.7484 40.3617 29.779C40.392 29.8097 40.4213 29.8412 40.4495 29.8737C40.4776 29.9062 40.5047 29.9396 40.5307 29.9739C40.5566 30.0083 40.5814 30.0434 40.605 30.0793C40.6286 30.1152 40.651 30.1519 40.6723 30.1893C40.6934 30.2266 40.7133 30.2647 40.732 30.3033C40.7506 30.3421 40.768 30.3814 40.784 30.4212C40.8001 30.461 40.8148 30.5013 40.8281 30.5421C40.8415 30.5829 40.8535 30.6241 40.8641 30.6657C40.8747 30.7072 40.8839 30.7491 40.8918 30.7913C40.8997 30.8335 40.9061 30.8759 40.9111 30.9185C40.9161 30.9611 40.9197 31.0038 40.9219 31.0467C40.9241 31.0895 40.9248 31.1323 40.924 31.1752C40.9233 31.2181 40.9213 31.2609 40.9178 31.3037C40.9142 31.3464 40.9093 31.389 40.9029 31.4315C40.8966 31.474 40.8888 31.5161 40.8796 31.558C40.8704 31.5999 40.8599 31.6415 40.848 31.6827C40.8361 31.7239 40.8228 31.7647 40.8081 31.8051C40.7934 31.8454 40.7775 31.8853 40.7602 31.9246C40.7429 31.9639 40.7243 32.0026 40.7045 32.0406C40.6846 32.0787 40.6635 32.1162 40.6411 32.1529C40.6187 32.1896 40.5952 32.2255 40.5704 32.2607C40.5457 32.2959 40.5198 32.3302 40.4927 32.3637C40.4657 32.3971 40.4375 32.4297 40.4083 32.4613C40.3792 32.4929 40.3489 32.5235 40.3177 32.5532C40.2865 32.5828 40.2543 32.6114 40.2212 32.6389C40.188 32.6665 40.154 32.6929 40.1191 32.7181C40.0843 32.7435 40.0486 32.7676 40.012 32.7905C39.9755 32.8135 39.9383 32.8352 39.9004 32.8558C39.8625 32.8763 39.8239 32.8955 39.7847 32.9135C39.7454 32.9316 39.7057 32.9483 39.6653 32.9636C39.6249 32.979 39.5841 32.9931 39.5428 33.0058C39.5015 33.0185 39.4599 33.0298 39.4179 33.0398C39.387 33.0472 39.3558 33.0538 39.3245 33.0597C39.2932 33.0655 39.2617 33.0706 39.2302 33.075C39.1986 33.0793 39.1669 33.0829 39.1352 33.0857C39.1035 33.0885 39.0717 33.0905 39.0399 33.0918C39.008 33.093 38.9762 33.0936 38.9443 33.0934C38.9124 33.0931 38.8806 33.092 38.8488 33.0902C38.8171 33.0884 38.7853 33.0858 38.7537 33.0824C38.722 33.0791 38.6904 33.075 38.6589 33.0702C38.6274 33.0653 38.5961 33.0596 38.5648 33.0533C38.5336 33.0469 38.5026 33.0398 38.4718 33.0319C38.4409 33.024 38.4103 33.0154 38.3798 33.0061C38.3494 32.9967 38.3192 32.9866 38.2892 32.9758C38.2593 32.9649 38.2297 32.9534 38.2003 32.9413C38.171 32.929 38.1419 32.916 38.1131 32.9023C38.0844 32.8887 38.056 32.8743 38.028 32.8594C37.9999 32.8443 37.9723 32.8286 37.9451 32.8123C37.9178 32.7959 37.891 32.7788 37.8646 32.7612C37.8381 32.7436 37.8121 32.7253 37.7866 32.7064C37.761 32.6874 37.736 32.6679 37.7113 32.6478C37.6868 32.6277 37.6628 32.607 37.6392 32.5856C37.6156 32.5644 37.5926 32.5426 37.5701 32.5202C37.5476 32.4977 37.5257 32.4748 37.5044 32.4514C37.483 32.4279 37.4622 32.404 37.442 32.3795C37.4218 32.355 37.4023 32.33 37.3834 32.3047C37.3643 32.2793 37.346 32.2534 37.3284 32.2272C37.3106 32.2009 37.2936 32.1741 37.2771 32.147C37.2608 32.1199 37.2451 32.0924 37.2301 32.0645C37.215 32.0366 37.2007 32.0084 37.1869 31.9799C37.1733 31.9513 37.1604 31.9224 37.1481 31.8932C37.1359 31.864 37.1244 31.8345 37.1136 31.8048C37.1028 31.775 37.0928 31.745 37.0834 31.7147C37.0741 31.6845 37.0655 31.654 37.0577 31.6234C37.0498 31.5928 37.0427 31.562 37.0364 31.531C37.0301 31.5 37.0246 31.4689 37.0198 31.4376C37.015 31.4063 37.0109 31.375 37.0077 31.3435C37.0045 31.312 37.002 31.2804 37.0002 31.2489C36.9986 31.2174 36.9977 31.1858 36.9975 31.1541C36.9974 31.1225 36.998 31.0909 36.9994 31.0592C37.0008 31.0277 37.003 30.9962 37.0059 30.9646C37.0088 30.9332 37.0125 30.9018 37.0169 30.8704C37.0214 30.8392 37.0267 30.808 37.0328 30.7769C37.0387 30.7458 37.0455 30.715 37.053 30.6842C37.0606 30.6535 37.0689 30.623 37.0779 30.5927C37.0869 30.5624 37.0966 30.5322 37.1071 30.5024C37.1176 30.4725 37.1289 30.4429 37.1409 30.4136C37.1528 30.3843 37.1654 30.3553 37.1788 30.3266C37.1921 30.2979 37.2062 30.2696 37.221 30.2415C37.2358 30.2135 37.2512 30.1859 37.2673 30.1586C37.2834 30.1313 37.3002 30.1044 37.3177 30.078C37.335 30.0515 37.3531 30.0255 37.3719 29.9998C37.3906 29.9742 37.4099 29.9491 37.4298 29.9245C37.4498 29.8998 37.4703 29.8756 37.4915 29.8519C37.5126 29.8283 37.5343 29.8052 37.5566 29.7825C37.5788 29.7599 37.6016 29.7378 37.6249 29.7163C37.6483 29.6948 37.6721 29.6739 37.6966 29.6535C37.721 29.6331 37.7458 29.6134 37.7712 29.5942C37.7965 29.575 37.8223 29.5565 37.8486 29.5387C37.8748 29.5207 37.9015 29.5034 37.9286 29.4868C37.9557 29.4702 37.9831 29.4542 38.011 29.4389C38.0389 29.4236 38.0671 29.409 38.0958 29.3951C38.1244 29.3811 38.1533 29.3678 38.1825 29.3553C38.2118 29.3428 38.2413 29.3309 38.2711 29.3198C38.301 29.3088 38.331 29.2984 38.3613 29.2887C38.3917 29.2791 38.4223 29.2701 38.4531 29.262Z" fill="white"/>
<path d="M120.062 31.4288C121.403 32.1375 122.492 33.0242 123.276 34.3367C123.822 35.2511 124.067 36.2203 124.114 37.278C124.2 39.1715 124.152 41.0878 124.161 42.9843L124.175 54.4199L124.164 88.178L124.156 105.24L124.159 109.875C124.159 111.225 124.3 112.768 123.95 114.076C123.927 114.158 123.902 114.24 123.875 114.321C123.848 114.402 123.82 114.483 123.789 114.563C123.758 114.642 123.725 114.721 123.691 114.799C123.656 114.878 123.619 114.955 123.581 115.031C123.542 115.107 123.502 115.183 123.459 115.257C123.417 115.332 123.373 115.405 123.327 115.477C123.281 115.549 123.233 115.62 123.184 115.69C123.134 115.76 123.083 115.829 123.03 115.896C122.977 115.964 122.923 116.03 122.867 116.094C122.81 116.159 122.753 116.222 122.693 116.284C122.634 116.346 122.573 116.407 122.511 116.465C122.449 116.524 122.385 116.582 122.32 116.638C122.255 116.693 122.188 116.747 122.12 116.8C122.053 116.853 121.983 116.903 121.913 116.953C121.843 117.002 121.771 117.049 121.698 117.095C121.626 117.14 121.552 117.184 121.477 117.226C120.589 117.734 119.661 117.872 118.651 117.904C115.719 117.996 112.775 117.926 109.842 117.925L95.742 117.94L53.0903 117.899L33.9928 117.882L29.3495 117.88C27.8887 117.881 26.2356 118.021 24.8168 117.65C24.4368 117.538 24.0649 117.429 23.7062 117.259C22.0524 116.478 21.1795 115.073 20.5781 113.421C20.9344 113.465 21.3021 113.466 21.661 113.47C30.1122 113.565 38.5744 113.465 47.0264 113.442L83.0368 113.452L104.958 113.506L111.418 113.525C112.695 113.531 114.013 113.605 115.284 113.485C115.357 113.478 115.43 113.469 115.502 113.459C115.575 113.449 115.647 113.437 115.719 113.424C115.791 113.411 115.863 113.396 115.934 113.38C116.006 113.363 116.077 113.346 116.147 113.326C116.218 113.307 116.288 113.287 116.358 113.264C116.428 113.242 116.497 113.218 116.566 113.193C116.635 113.168 116.703 113.142 116.77 113.114C116.838 113.086 116.905 113.057 116.971 113.026C117.038 112.995 117.104 112.963 117.168 112.929C117.234 112.896 117.298 112.861 117.361 112.825C117.425 112.788 117.488 112.751 117.55 112.712C117.611 112.673 117.672 112.633 117.733 112.592C117.793 112.55 117.852 112.508 117.911 112.464C117.969 112.42 118.026 112.375 118.083 112.328C118.139 112.282 118.195 112.235 118.249 112.186C118.304 112.137 118.357 112.088 118.41 112.037C118.465 111.982 118.519 111.926 118.573 111.869C118.626 111.812 118.678 111.753 118.729 111.694C118.78 111.635 118.829 111.575 118.877 111.513C118.926 111.452 118.973 111.39 119.019 111.327C119.064 111.263 119.109 111.199 119.152 111.134C119.195 111.069 119.236 111.003 119.277 110.937C119.317 110.87 119.356 110.802 119.394 110.734C119.431 110.666 119.467 110.597 119.502 110.527C119.537 110.457 119.57 110.386 119.601 110.315C119.633 110.244 119.663 110.172 119.692 110.1C119.721 110.028 119.748 109.955 119.774 109.881C119.8 109.808 119.824 109.734 119.847 109.659C119.869 109.585 119.89 109.51 119.91 109.434C119.929 109.359 119.947 109.283 119.964 109.207C119.98 109.131 119.995 109.055 120.008 108.978C120.022 108.901 120.033 108.824 120.043 108.747C120.151 107.849 120.103 106.916 120.101 106.011L120.094 101.448L120.093 85.9317L120.062 31.4288Z" fill="#7B63DC"/>
</svg>
