<svg width="140" height="144" viewBox="0 0 140 144" fill="none" xmlns="http://www.w3.org/2000/svg">
<path d="M23.6627 16.4693L85.6206 16.5398L106.19 16.552L112.092 16.5488C113.182 16.5456 114.319 16.4736 115.402 16.5792C116.426 16.6789 117.412 17.2106 118.185 17.8633C119.487 18.9614 119.931 20.2846 120.073 21.9283C120.281 22.0171 120.484 22.1151 120.683 22.2222C120.882 22.3293 121.075 22.4451 121.264 22.5695C121.452 22.694 121.634 22.8266 121.811 22.9673C121.987 23.1081 122.157 23.2565 122.319 23.4124C122.401 23.4909 122.481 23.5713 122.559 23.6537C122.637 23.7361 122.713 23.8204 122.786 23.9065C122.86 23.9926 122.931 24.0806 123 24.1703C123.069 24.2599 123.136 24.3513 123.2 24.4443C123.265 24.5373 123.327 24.6319 123.387 24.728C123.447 24.8241 123.504 24.9217 123.559 25.0206C123.614 25.1196 123.666 25.2198 123.716 25.3213C123.765 25.4228 123.813 25.5256 123.857 25.6294C123.902 25.7333 123.944 25.8382 123.983 25.9442C124.022 26.0502 124.059 26.1571 124.093 26.265C124.127 26.3727 124.158 26.4813 124.187 26.5907C124.215 26.7 124.241 26.8099 124.264 26.9205C124.286 27.0312 124.307 27.1423 124.324 27.2539C124.341 27.3655 124.356 27.4775 124.367 27.5899C124.379 27.7022 124.388 27.8148 124.394 27.9276C124.4 28.0403 124.403 28.1531 124.403 28.2661L124.393 75.5498L124.388 90.9758L124.375 95.6745C124.37 96.4594 124.429 97.303 124.326 98.0797C124.173 99.2378 123.584 100.353 122.753 101.174C121.019 102.884 118.897 102.812 116.623 102.796L51.453 102.728L34.4141 102.747C31.7716 102.75 29.0692 102.867 26.4334 102.726C25.5028 102.676 24.5911 102.522 23.7344 102.146C21.8648 101.323 20.9822 99.7914 20.2832 97.9716C19.1794 97.6758 18.2158 97.2196 17.3915 96.4156C16.4191 95.4671 15.7944 94.137 15.6288 92.7986C15.5179 91.9021 15.5784 90.9688 15.5871 90.0658L15.6061 86.0973L15.6095 71.6309L15.6431 26.8538L15.643 23.7473C15.6493 21.7229 15.6108 19.675 17.1695 18.1406C19.0326 16.3065 21.2489 16.4665 23.6627 16.4693Z" fill="#201D00"/>
<path d="M60.4458 111.491L60.4458 111.491L60.4466 111.488L62.6178 102.595H81.8884L84.5548 111.493L87.5098 122.548C88.1633 124.993 86.3209 127.393 83.7904 127.393H61.2096C58.6791 127.393 56.8367 124.993 57.4902 122.548L60.4458 111.491Z" fill="#7B63DC" stroke="#201D00" stroke-width="0.3"/>
<path d="M120.062 22.1719C121.403 22.8807 122.492 23.7674 123.276 25.0799C123.822 25.9942 124.067 26.9634 124.114 28.0212C124.2 29.9146 124.152 31.831 124.161 33.7274L124.176 45.1631L124.164 72.7498L124.156 89.8117L124.159 94.4472C124.159 95.7971 124.3 97.3402 123.95 98.6476C123.927 98.73 123.902 98.8118 123.875 98.893C123.848 98.9741 123.82 99.0546 123.789 99.1343C123.758 99.2141 123.725 99.293 123.691 99.3711C123.656 99.4493 123.619 99.5265 123.581 99.6029C123.542 99.6792 123.502 99.7546 123.459 99.829C123.417 99.9034 123.373 99.9767 123.327 100.049C123.281 100.121 123.233 100.192 123.184 100.262C123.134 100.332 123.083 100.401 123.03 100.468C122.977 100.535 122.923 100.601 122.867 100.666C122.81 100.731 122.753 100.794 122.693 100.856C122.634 100.918 122.573 100.978 122.511 101.037C122.449 101.096 122.385 101.153 122.32 101.209C122.255 101.265 122.188 101.319 122.12 101.372C122.053 101.424 121.983 101.475 121.913 101.524C121.843 101.573 121.771 101.621 121.698 101.666C121.626 101.712 121.552 101.756 121.477 101.798C120.589 102.306 119.661 102.444 118.651 102.475C115.719 102.567 112.775 102.498 109.842 102.497L95.742 102.512L53.0903 102.47L33.9928 102.453L29.3496 102.452C27.8887 102.453 26.2356 102.592 24.8168 102.221C24.4369 102.11 24.065 102 23.7062 101.831C22.0524 101.05 21.1795 99.645 20.5781 97.9929C20.9345 98.0364 21.3021 98.0377 21.661 98.0418C30.1122 98.1372 38.5745 98.0366 47.0265 98.0141L83.0369 98.0236L104.958 98.0775L111.418 98.0972C112.695 98.1029 114.013 98.1771 115.284 98.0569C115.357 98.0497 115.43 98.041 115.502 98.0308C115.575 98.0206 115.647 98.0088 115.719 97.9956C115.791 97.9823 115.863 97.9676 115.934 97.9513C116.006 97.9351 116.077 97.9174 116.147 97.8982C116.218 97.879 116.288 97.8583 116.358 97.8361C116.428 97.8139 116.497 97.7902 116.566 97.7651C116.635 97.7401 116.703 97.7135 116.77 97.6855C116.838 97.6576 116.905 97.6283 116.971 97.5974C117.038 97.5667 117.104 97.5346 117.169 97.5011C117.234 97.4676 117.298 97.4327 117.361 97.3965C117.425 97.3602 117.488 97.3227 117.55 97.2839C117.611 97.245 117.673 97.2049 117.733 97.1635C117.793 97.1221 117.852 97.0794 117.911 97.0356C117.969 96.9917 118.027 96.9466 118.083 96.9002C118.139 96.854 118.195 96.8065 118.249 96.7579C118.304 96.7092 118.357 96.6594 118.41 96.6086C118.465 96.5536 118.519 96.4976 118.573 96.4405C118.626 96.3833 118.678 96.3251 118.729 96.2658C118.78 96.2066 118.829 96.1463 118.878 96.085C118.926 96.0237 118.973 95.9615 119.019 95.8983C119.064 95.8351 119.109 95.771 119.152 95.706C119.195 95.6409 119.236 95.575 119.277 95.5083C119.317 95.4415 119.356 95.374 119.394 95.3057C119.431 95.2374 119.467 95.1683 119.502 95.0985C119.537 95.0287 119.57 94.9582 119.601 94.8871C119.633 94.8159 119.663 94.7441 119.692 94.6717C119.721 94.5993 119.748 94.5264 119.774 94.4529C119.8 94.3794 119.824 94.3053 119.847 94.2308C119.869 94.1564 119.89 94.0815 119.91 94.0061C119.929 93.9307 119.947 93.855 119.964 93.7789C119.98 93.7028 119.995 93.6264 120.008 93.5497C120.022 93.473 120.033 93.3961 120.043 93.3189C120.151 92.4203 120.103 91.4876 120.101 90.5826L120.094 86.0195L120.093 70.5035L120.062 22.1719Z" fill="#7B63DC"/>
<path d="M55.4465 107.061L55.4465 107.061L55.4469 107.06L57.6187 97.8639H76.8873L79.5542 107.064L82.631 119.534C83.2299 121.962 81.3929 124.307 78.8931 124.307H56.1069C53.6071 124.307 51.7701 121.961 52.369 119.534L55.4465 107.061Z" fill="#9E8EFF" stroke="#201D00" stroke-width="0.3"/>
<path d="M16.0045 28.8458L119.811 28.9409C119.688 34.3521 119.837 39.791 119.837 45.2056L119.82 73.6172L119.814 86.6146C119.813 88.5951 119.965 91.4897 119.723 93.3975C119.579 94.5389 119.042 95.4521 118.287 96.3028C118.053 96.5343 117.803 96.7489 117.54 96.9468C116.758 97.524 115.713 97.7822 114.753 97.8137C112.311 97.8936 109.84 97.7958 107.394 97.7919L92.2395 97.7768L47.6482 97.7252L28.2022 97.7409L23.4888 97.7427C22.4366 97.7456 21.2866 97.8312 20.2489 97.6438C18.9807 97.4147 17.6748 96.4354 16.9449 95.4049C16.3714 94.5952 15.9883 93.6182 15.9285 92.627C15.8319 91.0291 15.933 89.3788 15.9335 87.7762L15.9383 77.3252L15.9474 46.0185L15.9662 35.5763L15.956 31.1808C15.9539 30.4284 15.8776 29.5849 16.0045 28.8458Z" fill="#EDE7FF"/>
<rect x="50" y="42" width="38" height="38" rx="19" fill="#FF00EA"/>
<path d="M61 61.5L65.311 65.3799C65.6997 65.7297 66.2922 65.721 66.6705 65.36L77 55.5" stroke="white" stroke-width="4" stroke-linecap="round"/>
<path d="M20.8351 16.7372C21.7226 16.6154 22.7289 16.6988 23.6305 16.6988L29.0698 16.7032L47.6767 16.7043L112.867 16.766C114.989 16.7617 116.691 16.727 118.294 18.3371C120.033 20.0834 119.868 22.2639 119.867 24.5306L119.853 28.6894L115.354 28.6839L15.9256 28.6201C15.8551 27.187 15.9113 25.7298 15.9303 24.2947C15.946 23.1055 15.8422 21.7956 16.1159 20.6341C16.1582 20.4507 16.2109 20.2704 16.2739 20.0931C16.3369 19.9158 16.4099 19.7426 16.4928 19.5735C16.5756 19.4044 16.6679 19.2404 16.7696 19.0818C16.8713 18.9231 16.9817 18.7707 17.1008 18.6245C18.0478 17.4664 19.3642 16.8918 20.8351 16.7372Z" fill="#9E8EFF"/>
<path d="M78.2084 19.1219C80.5385 19.0561 82.8837 19.108 85.2153 19.1099L97.8231 19.1171L108.82 19.1194C110.058 19.1195 111.373 19.0172 112.601 19.1141C113.136 19.1564 113.638 19.3157 114.088 19.6098C114.904 20.1433 115.483 21.0275 115.678 21.9746C115.859 22.8481 115.672 23.7143 115.17 24.4509C114.572 25.3282 113.731 25.8183 112.703 26.0284L88.2743 26.0183L81.7761 26.0264C80.6 26.0281 79.3589 26.1063 78.1904 25.9925C77.5923 25.9343 77.0526 25.7709 76.5568 25.4248C75.7975 24.8948 75.2165 23.9922 75.0939 23.0705C74.9638 22.0909 75.1713 21.2729 75.7738 20.4795C76.3773 19.6847 77.2333 19.2527 78.2084 19.1219Z" fill="#201D00"/>
<path d="M78.2089 19.3953C80.4647 19.3224 82.7395 19.3803 84.9973 19.3819L97.6425 19.3906L108.2 19.3955C109.612 19.3899 111.111 19.2847 112.512 19.4077C113.097 19.459 113.634 19.6434 114.108 19.9911C114.851 20.5352 115.284 21.3373 115.417 22.233C115.537 23.0443 115.329 23.7615 114.834 24.4124C114.24 25.1923 113.526 25.5997 112.554 25.7267C110.672 25.8272 108.752 25.7504 106.867 25.7445L92.6213 25.7034L82.9654 25.7334C81.4928 25.7353 79.9432 25.845 78.4808 25.7173C77.808 25.6585 77.1698 25.4658 76.6226 25.0605C76.581 25.0293 76.5402 24.9971 76.5 24.9639C76.46 24.9308 76.4208 24.8966 76.3825 24.8615C76.3441 24.8264 76.3067 24.7904 76.2701 24.7533C76.2335 24.7164 76.1979 24.6786 76.1631 24.64C76.1285 24.6013 76.0948 24.5618 76.062 24.5215C76.0293 24.4812 75.9975 24.4401 75.9668 24.3982C75.9362 24.3563 75.9065 24.3137 75.878 24.2703C75.8494 24.227 75.8218 24.1831 75.7954 24.1384C75.7689 24.0937 75.7437 24.0484 75.7195 24.0025C75.6954 23.9566 75.6724 23.9101 75.6505 23.8632C75.6286 23.8161 75.6079 23.7686 75.5884 23.7205C75.569 23.6724 75.5506 23.624 75.5335 23.5751C75.5164 23.5262 75.5005 23.4769 75.4858 23.4272C75.4711 23.3774 75.4577 23.3274 75.4456 23.277C75.4334 23.2267 75.4224 23.176 75.4128 23.1251C75.4031 23.0742 75.3947 23.0231 75.3875 22.9718C75.3802 22.9214 75.3741 22.8708 75.3693 22.8201C75.3645 22.7693 75.361 22.7185 75.3588 22.6676C75.3565 22.6167 75.3555 22.5658 75.3558 22.5148C75.3561 22.4638 75.3577 22.4129 75.3606 22.362C75.3635 22.3111 75.3676 22.2604 75.373 22.2097C75.3784 22.159 75.3851 22.1085 75.3932 22.0581C75.4011 22.0078 75.4103 21.9577 75.4207 21.9078C75.4313 21.8579 75.443 21.8083 75.4559 21.759C75.469 21.7097 75.4832 21.6608 75.4987 21.6121C75.514 21.5635 75.5307 21.5153 75.5485 21.4675C75.5664 21.4198 75.5855 21.3725 75.6058 21.3256C75.626 21.2788 75.6474 21.2325 75.67 21.1868C75.6926 21.141 75.7163 21.0958 75.7411 21.0511C75.766 21.0066 75.7919 20.9627 75.819 20.9193C75.846 20.876 75.8742 20.8334 75.9034 20.7914C75.9326 20.7496 75.9628 20.7084 75.9941 20.668C76.5534 19.931 77.3012 19.5227 78.2089 19.3953Z" fill="#EDE7FF"/>
<path d="M31.5403 19.5906C31.5778 19.589 31.6152 19.5882 31.6527 19.5884C31.6901 19.5886 31.7275 19.5896 31.7649 19.5917C31.8022 19.5937 31.8395 19.5965 31.8768 19.6004C31.914 19.6041 31.9512 19.6087 31.9882 19.6143C32.0252 19.6198 32.0621 19.6263 32.0988 19.6337C32.1354 19.641 32.172 19.6492 32.2083 19.6584C32.2446 19.6675 32.2806 19.6774 32.3164 19.6882C32.3523 19.6991 32.3878 19.7108 32.423 19.7233C32.4583 19.7358 32.4932 19.7492 32.5278 19.7635C32.5623 19.7777 32.5966 19.7927 32.6305 19.8086C32.6643 19.8245 32.6977 19.8412 32.7308 19.8588C32.7637 19.8762 32.7963 19.8945 32.8284 19.9136C32.8607 19.9326 32.8923 19.9524 32.9234 19.973C32.9546 19.9936 32.9853 20.0149 33.0154 20.037C33.0456 20.059 33.0751 20.0818 33.1041 20.1054C33.1331 20.1288 33.1615 20.153 33.1894 20.1779C33.2172 20.2028 33.2444 20.2283 33.271 20.2545C33.2976 20.2806 33.3236 20.3074 33.3488 20.3348C33.3741 20.3623 33.3986 20.3903 33.4225 20.4189C33.4464 20.4475 33.4697 20.4767 33.4921 20.5064C33.5146 20.5361 33.5363 20.5663 33.5573 20.597C33.5783 20.6279 33.5985 20.6591 33.618 20.6909C33.6375 20.7226 33.6562 20.7548 33.6741 20.7875C33.692 20.8201 33.7091 20.8532 33.7253 20.8866C33.7416 20.92 33.7571 20.9539 33.7716 20.9881C33.7863 21.0223 33.8001 21.0569 33.813 21.0918C33.826 21.1266 33.8381 21.1618 33.8493 21.1972C33.8605 21.2327 33.8708 21.2685 33.8803 21.3044C33.8897 21.3403 33.8983 21.3765 33.906 21.4129C33.9137 21.4492 33.9205 21.4858 33.9264 21.5225C33.9323 21.5592 33.9373 21.596 33.9414 21.6329C33.9455 21.6699 33.9488 21.7069 33.9511 21.744C33.9534 21.781 33.9548 21.8182 33.9553 21.8553C33.9558 21.8925 33.9553 21.9297 33.954 21.9668C33.9527 22.004 33.9504 22.0411 33.9472 22.078C33.9441 22.1151 33.9401 22.1521 33.9352 22.1888C33.9302 22.2257 33.9244 22.2624 33.9177 22.2989C33.9109 22.3355 33.9032 22.3718 33.8948 22.4081C33.8862 22.4442 33.8768 22.4802 33.8665 22.516C33.8562 22.5516 33.845 22.5871 33.833 22.6223C33.821 22.6575 33.8082 22.6924 33.7945 22.727C33.7807 22.7616 33.7661 22.7958 33.7508 22.8298C33.7353 22.8636 33.7191 22.8971 33.7021 22.9302C33.6851 22.9633 33.6672 22.996 33.6486 23.0282C33.63 23.0604 33.6106 23.0922 33.5905 23.1235C33.5703 23.1547 33.5493 23.1855 33.5275 23.2159C33.5059 23.2462 33.4835 23.2759 33.4603 23.305C33.4372 23.3343 33.4133 23.3629 33.3888 23.391C33.3642 23.4191 33.339 23.4465 33.3132 23.4734C33.2872 23.5003 33.2607 23.5264 33.2335 23.552C33.2064 23.5776 33.1786 23.6025 33.1502 23.6268C33.1218 23.651 33.0928 23.6745 33.0633 23.6972C33.0338 23.7201 33.0037 23.7422 32.9731 23.7636C32.9425 23.785 32.9113 23.8056 32.8796 23.8255C32.848 23.8454 32.816 23.8645 32.7834 23.8829C32.7508 23.9012 32.7178 23.9187 32.6845 23.9355C32.651 23.9523 32.6172 23.9682 32.583 23.9833C32.5488 23.9984 32.5142 24.0127 32.4794 24.0262C32.4445 24.0397 32.4092 24.0523 32.3737 24.0641C32.3382 24.0758 32.3025 24.0866 32.2664 24.0967C32.2303 24.1067 32.1941 24.1159 32.1575 24.1243C32.121 24.1325 32.0844 24.1399 32.0476 24.1465C32.0107 24.153 31.9736 24.1586 31.9365 24.1633C31.8994 24.168 31.8622 24.1719 31.8248 24.1748C31.7739 24.1788 31.7229 24.1812 31.6718 24.1818C31.6208 24.1825 31.5698 24.1815 31.5188 24.1788C31.4678 24.1761 31.4169 24.1717 31.3662 24.1657C31.3155 24.1596 31.265 24.1519 31.2149 24.1426C31.1647 24.1333 31.1148 24.1223 31.0653 24.1097C31.0159 24.097 30.967 24.0828 30.9185 24.0669C30.8699 24.0511 30.822 24.0337 30.7747 24.0146C30.7273 23.9957 30.6806 23.9752 30.6347 23.9531C30.5887 23.931 30.5435 23.9075 30.4991 23.8825C30.4546 23.8575 30.4111 23.831 30.3684 23.8031C30.3258 23.7752 30.2841 23.7459 30.2435 23.7153C30.2028 23.6847 30.1631 23.6528 30.1245 23.6195C30.086 23.5862 30.0486 23.5517 30.0123 23.5161C29.976 23.4804 29.941 23.4435 29.9072 23.4055C29.8735 23.3675 29.841 23.3284 29.8098 23.2883C29.7786 23.2482 29.7487 23.207 29.7202 23.165C29.6917 23.1229 29.6647 23.0799 29.6392 23.036C29.6136 22.9922 29.5895 22.9475 29.5668 22.902C29.5443 22.8566 29.5232 22.8104 29.5036 22.7637C29.4842 22.7168 29.4662 22.6693 29.4498 22.6213C29.4335 22.5733 29.4187 22.5248 29.4056 22.4759C29.3924 22.4269 29.3809 22.3775 29.3711 22.3277C29.3613 22.278 29.3531 22.228 29.3465 22.1777C29.3401 22.1274 29.3353 22.077 29.3322 22.0264C29.329 21.9758 29.3276 21.9252 29.3278 21.8745C29.328 21.8237 29.33 21.7731 29.3336 21.7226C29.3372 21.672 29.3425 21.6216 29.3495 21.5714C29.3565 21.5212 29.3651 21.4713 29.3753 21.4216C29.3857 21.372 29.3977 21.3227 29.4113 21.2739C29.4248 21.225 29.44 21.1766 29.4568 21.1288C29.4736 21.0809 29.4921 21.0337 29.5121 20.987C29.532 20.9404 29.5535 20.8944 29.5765 20.8491C29.5996 20.8039 29.6241 20.7594 29.6501 20.7158C29.6761 20.6722 29.7036 20.6295 29.7324 20.5876C29.7612 20.5458 29.7914 20.505 29.8231 20.4651C29.8546 20.4253 29.8874 20.3866 29.9217 20.3489C29.9558 20.3112 29.9912 20.2746 30.0278 20.2392C30.0643 20.2039 30.1021 20.1698 30.141 20.1369C30.1799 20.104 30.2198 20.0725 30.2608 20.0423C30.3017 20.012 30.3436 19.9831 30.3866 19.9556C30.4295 19.9281 30.4733 19.9021 30.5179 19.8774C30.5625 19.8528 30.6079 19.8297 30.6541 19.808C30.7003 19.7864 30.7471 19.7663 30.7946 19.7478C30.8422 19.7292 30.8903 19.7122 30.9389 19.6969C30.9876 19.6815 31.0368 19.6677 31.0864 19.6555C31.1359 19.6433 31.1858 19.6328 31.2361 19.624C31.2864 19.6151 31.3369 19.6078 31.3877 19.6022C31.4385 19.5967 31.4893 19.5928 31.5403 19.5906Z" fill="#201D00"/>
<path d="M31.1997 19.9497C31.2311 19.9426 31.2625 19.9363 31.2941 19.9308C31.3258 19.9253 31.3575 19.9205 31.3893 19.9165C31.4212 19.9124 31.4531 19.9092 31.4852 19.9067C31.5172 19.9043 31.5492 19.9025 31.5814 19.9015C31.6134 19.9006 31.6455 19.9005 31.6775 19.901C31.7097 19.9016 31.7418 19.903 31.7738 19.9051C31.8059 19.9073 31.8378 19.9101 31.8697 19.9138C31.9016 19.9175 31.9333 19.9219 31.965 19.9271C31.9967 19.9323 32.0282 19.9382 32.0596 19.9449C32.091 19.9516 32.1222 19.9591 32.1533 19.9672C32.1843 19.9754 32.2151 19.9844 32.2457 19.9941C32.2763 20.0037 32.3067 20.0141 32.3368 20.0253C32.3668 20.0365 32.3966 20.0483 32.4261 20.0609C32.4556 20.0735 32.4848 20.0867 32.5137 20.1006C32.5425 20.1146 32.571 20.1292 32.5991 20.1446C32.6273 20.1599 32.655 20.1759 32.6824 20.1926C32.7098 20.2092 32.7368 20.2265 32.7632 20.2445C32.7898 20.2624 32.8159 20.281 32.8415 20.3002C32.8672 20.3195 32.8923 20.3393 32.9169 20.3597C32.9416 20.3801 32.9657 20.4011 32.9893 20.4227C33.013 20.4442 33.0361 20.4663 33.0587 20.489C33.0812 20.5117 33.1032 20.5349 33.1247 20.5587C33.146 20.5825 33.1668 20.6067 33.1871 20.6315C33.2073 20.6562 33.2269 20.6814 33.246 20.707C33.265 20.7327 33.2834 20.7588 33.3011 20.7854C33.3188 20.8119 33.3359 20.8389 33.3523 20.8663C33.3688 20.8937 33.3845 20.9215 33.3997 20.9496C33.4147 20.9778 33.4291 21.0062 33.4428 21.035C33.4566 21.0639 33.4695 21.093 33.4818 21.1225C33.494 21.1519 33.5056 21.1816 33.5164 21.2117C33.5273 21.2417 33.5373 21.2719 33.5466 21.3024C33.556 21.3329 33.5646 21.3636 33.5725 21.3945C33.5804 21.4254 33.5874 21.4565 33.5937 21.4878C33.6001 21.519 33.6057 21.5504 33.6105 21.5818C33.6154 21.6134 33.6194 21.645 33.6226 21.6767C33.6259 21.7084 33.6284 21.7401 33.6301 21.7719C33.6318 21.8037 33.6328 21.8356 33.6329 21.8675C33.6331 21.8994 33.6325 21.9313 33.6312 21.9631C33.6298 21.9949 33.6276 22.0267 33.6247 22.0584C33.6218 22.0901 33.6181 22.1218 33.6136 22.1534C33.6092 22.185 33.6039 22.2164 33.598 22.2478C33.5919 22.279 33.5852 22.3102 33.5777 22.3411C33.5702 22.3721 33.5619 22.4029 33.5528 22.4335C33.5438 22.4641 33.5341 22.4945 33.5236 22.5245C33.5131 22.5547 33.5019 22.5846 33.4899 22.6142C33.478 22.6437 33.4653 22.673 33.4519 22.702C33.4386 22.7309 33.4245 22.7595 33.4098 22.7879C33.395 22.8162 33.3795 22.8441 33.3634 22.8717C33.3472 22.8992 33.3305 22.9264 33.3131 22.9531C33.2956 22.9798 33.2775 23.0061 33.2588 23.0321C33.24 23.058 33.2206 23.0834 33.2006 23.1084C33.1807 23.1333 33.1602 23.1577 33.139 23.1817C33.1178 23.2056 33.096 23.2291 33.0737 23.252C33.0514 23.275 33.0286 23.2974 33.0052 23.3192C32.9818 23.3411 32.9579 23.3623 32.9334 23.3829C32.9091 23.4036 32.8842 23.4237 32.8587 23.4432C32.8333 23.4626 32.8075 23.4815 32.7812 23.4997C32.7548 23.518 32.728 23.5356 32.7009 23.5527C32.6737 23.5696 32.6462 23.5859 32.6182 23.6014C32.5902 23.6171 32.5619 23.6321 32.5331 23.6463C32.5044 23.6606 32.4754 23.6742 32.446 23.6871C32.4166 23.7 32.3869 23.7121 32.3569 23.7236C32.327 23.7351 32.2968 23.7458 32.2663 23.7559C32.2358 23.7658 32.2051 23.7751 32.1742 23.7836C32.1316 23.7954 32.0887 23.8057 32.0455 23.8145C32.0023 23.8234 31.9589 23.8309 31.9152 23.837C31.8714 23.843 31.8275 23.8476 31.7835 23.8507C31.7394 23.8539 31.6954 23.8556 31.6512 23.8558C31.6071 23.856 31.563 23.8548 31.519 23.8522C31.4749 23.8495 31.431 23.8454 31.3871 23.8398C31.3434 23.8343 31.2999 23.8272 31.2566 23.8187C31.2132 23.8103 31.1702 23.8004 31.1275 23.7892C31.0849 23.7779 31.0427 23.7652 31.0009 23.7512C30.9591 23.737 30.9178 23.7216 30.877 23.7048C30.8362 23.688 30.7961 23.6699 30.7565 23.6505C30.7169 23.6311 30.6781 23.6103 30.6399 23.5883C30.6017 23.5663 30.5643 23.5431 30.5277 23.5186C30.4911 23.4941 30.4554 23.4685 30.4205 23.4416C30.3856 23.4148 30.3516 23.3868 30.3187 23.3577C30.2856 23.3287 30.2536 23.2985 30.2226 23.2673C30.1915 23.2361 30.1616 23.204 30.1327 23.1709C30.1039 23.1376 30.0761 23.1035 30.0496 23.0686C30.023 23.0336 29.9977 22.9978 29.9734 22.961C29.9493 22.9244 29.9264 22.887 29.9048 22.8488C29.8831 22.8106 29.8627 22.7718 29.8437 22.7323C29.8246 22.6927 29.8069 22.6526 29.7905 22.6119C29.7741 22.5712 29.7591 22.53 29.7455 22.4883C29.7318 22.4466 29.7196 22.4045 29.7089 22.362C29.698 22.3196 29.6887 22.2768 29.6808 22.2336C29.6729 22.1905 29.6663 22.1472 29.6613 22.1037C29.6563 22.0602 29.6527 22.0165 29.6506 21.9727C29.6485 21.929 29.6478 21.8852 29.6486 21.8414C29.6495 21.7976 29.6518 21.7538 29.6555 21.7101C29.6593 21.6665 29.6645 21.623 29.6712 21.5797C29.6778 21.5363 29.6859 21.4933 29.6954 21.4505C29.705 21.4077 29.716 21.3653 29.7284 21.3233C29.7408 21.2812 29.7545 21.2396 29.7697 21.1985C29.7849 21.1573 29.8014 21.1167 29.8193 21.0767C29.8372 21.0366 29.8565 20.9971 29.8771 20.9584C29.8975 20.9196 29.9193 20.8815 29.9423 20.8442C29.9655 20.8069 29.9898 20.7703 30.0153 20.7345C30.0409 20.6988 30.0676 20.6639 30.0954 20.6299C30.1233 20.596 30.1523 20.563 30.1824 20.5309C30.2124 20.4988 30.2435 20.4677 30.2757 20.4377C30.3079 20.4077 30.341 20.3787 30.3751 20.3509C30.4092 20.3231 30.4441 20.2964 30.48 20.2709C30.5159 20.2453 30.5526 20.221 30.5901 20.1979C30.6277 20.1748 30.6659 20.1529 30.7049 20.1324C30.7438 20.1118 30.7834 20.0925 30.8237 20.0745C30.864 20.0566 30.9048 20.0399 30.9462 20.0247C30.9875 20.0094 31.0294 19.9955 31.0716 19.983C31.114 19.9704 31.1567 19.9594 31.1997 19.9497Z" fill="#CEC5FF"/>
<path d="M24.0044 19.607C24.0419 19.6039 24.0794 19.6017 24.1169 19.6004C24.1545 19.5992 24.1921 19.5989 24.2297 19.5994C24.2672 19.5999 24.3047 19.6014 24.3423 19.6039C24.3798 19.6062 24.4172 19.6095 24.4546 19.6136C24.4919 19.6178 24.5291 19.6229 24.5662 19.6289C24.6033 19.6349 24.6402 19.6418 24.677 19.6496C24.7137 19.6574 24.7502 19.666 24.7865 19.6755C24.8229 19.6851 24.859 19.6955 24.8948 19.7067C24.9306 19.7181 24.9662 19.7303 25.0014 19.7432C25.0366 19.7562 25.0714 19.7701 25.106 19.7848C25.1406 19.7995 25.1747 19.8151 25.2084 19.8314C25.2422 19.8478 25.2756 19.8649 25.3086 19.8828C25.3415 19.9008 25.3739 19.9196 25.406 19.9391C25.438 19.9586 25.4695 19.9789 25.5005 20C25.5315 20.021 25.5619 20.0429 25.5919 20.0655C25.6218 20.088 25.6512 20.1112 25.6801 20.1351C25.7089 20.1591 25.7371 20.1838 25.7646 20.209C25.7922 20.2344 25.8191 20.2604 25.8454 20.287C25.8718 20.3136 25.8975 20.3409 25.9224 20.3688C25.9474 20.3967 25.9717 20.4251 25.9953 20.4542C26.0189 20.4833 26.0417 20.5128 26.0638 20.5429C26.0859 20.5731 26.1073 20.6038 26.128 20.6349C26.1486 20.6661 26.1684 20.6978 26.1874 20.73C26.2064 20.7621 26.2247 20.7947 26.2423 20.8277C26.2597 20.8607 26.2763 20.8942 26.2921 20.928C26.308 20.9619 26.3229 20.9961 26.337 21.0306C26.3512 21.0652 26.3645 21.1001 26.377 21.1353C26.3894 21.1705 26.4009 21.2059 26.4116 21.2417C26.4223 21.2775 26.432 21.3135 26.4409 21.3498C26.4498 21.3859 26.4578 21.4224 26.465 21.4591C26.4721 21.4957 26.4784 21.5325 26.4837 21.5694C26.489 21.6062 26.4934 21.6433 26.4969 21.6804C26.5004 21.7176 26.503 21.7548 26.5046 21.7921C26.5063 21.8293 26.507 21.8666 26.5069 21.9039C26.5067 21.9412 26.5056 21.9785 26.5036 22.0158C26.5017 22.053 26.4987 22.0902 26.4949 22.1273C26.4911 22.1643 26.4864 22.2013 26.4808 22.2382C26.4752 22.2751 26.4686 22.3118 26.4612 22.3484C26.4537 22.385 26.4454 22.4213 26.4362 22.4576C26.4269 22.4937 26.4168 22.5296 26.4059 22.5653C26.3949 22.6009 26.383 22.6363 26.3702 22.6714C26.3575 22.7065 26.3439 22.7413 26.3295 22.7757C26.3151 22.8102 26.2998 22.8442 26.2837 22.8779C26.2675 22.9116 26.2506 22.945 26.2329 22.9779C26.2151 23.0107 26.1966 23.0431 26.1772 23.0751C26.1579 23.1071 26.1378 23.1386 26.1168 23.1697C26.096 23.2006 26.0744 23.2311 26.052 23.2611C26.0295 23.291 26.0064 23.3204 25.9826 23.3493C25.9588 23.3781 25.9343 23.4064 25.909 23.434C25.8838 23.4617 25.858 23.4887 25.8315 23.515C25.8049 23.5415 25.7777 23.5672 25.7499 23.5923C25.7221 23.6174 25.6937 23.6418 25.6647 23.6656C25.6357 23.6893 25.6061 23.7123 25.5759 23.7345C25.5457 23.7568 25.5151 23.7784 25.484 23.7991C25.4527 23.8199 25.421 23.84 25.3889 23.8592C25.3566 23.8785 25.324 23.8969 25.2909 23.9146C25.2578 23.9323 25.2243 23.9492 25.1904 23.9653C25.1564 23.9813 25.1221 23.9965 25.0875 24.0109C25.0528 24.0254 25.0178 24.0389 24.9825 24.0516C24.9472 24.0643 24.9115 24.0762 24.8756 24.0871C24.8397 24.0981 24.8036 24.1082 24.7671 24.1175C24.7307 24.1267 24.6941 24.135 24.6573 24.1425C24.6205 24.1499 24.5835 24.1565 24.5464 24.1622C24.5092 24.1679 24.4719 24.1726 24.4346 24.1765C24.384 24.1817 24.3334 24.1853 24.2827 24.1872C24.2319 24.1891 24.1811 24.1893 24.1303 24.1879C24.0796 24.1865 24.0289 24.1834 23.9783 24.1787C23.9277 24.1739 23.8774 24.1676 23.8272 24.1596C23.7771 24.1516 23.7272 24.1419 23.6777 24.1306C23.6282 24.1193 23.5791 24.1064 23.5306 24.0919C23.4819 24.0774 23.4338 24.0613 23.3862 24.0437C23.3386 24.026 23.2916 24.0069 23.2453 23.9862C23.199 23.9655 23.1534 23.9433 23.1085 23.9196C23.0638 23.8959 23.0198 23.8708 22.9766 23.8442C22.9334 23.8176 22.8912 23.7897 22.8498 23.7603C22.8085 23.731 22.7682 23.7003 22.7289 23.6684C22.6896 23.6363 22.6515 23.6031 22.6144 23.5687C22.5774 23.5342 22.5415 23.4985 22.5068 23.4617C22.472 23.4249 22.4386 23.387 22.4065 23.3479C22.3743 23.309 22.3434 23.269 22.3139 23.2279C22.2844 23.1869 22.2563 23.1449 22.2295 23.1021C22.2028 23.0592 22.1775 23.0155 22.1537 22.9709C22.1298 22.9265 22.1075 22.8812 22.0866 22.8352C22.0658 22.7892 22.0465 22.7427 22.0287 22.6954C22.011 22.6481 21.9948 22.6003 21.9803 22.5521C21.9657 22.5037 21.9528 22.455 21.9414 22.4058C21.9301 22.3567 21.9204 22.3072 21.9123 22.2575C21.9043 22.2077 21.8979 22.1577 21.8932 22.1075C21.8885 22.0573 21.8854 22.007 21.884 21.9566C21.8826 21.9062 21.8829 21.8558 21.8849 21.8054C21.8869 21.755 21.8905 21.7047 21.8957 21.6546C21.9011 21.6045 21.908 21.5545 21.9166 21.5048C21.9253 21.4551 21.9355 21.4057 21.9473 21.3567C21.9593 21.3077 21.9728 21.2592 21.9879 21.211C22.003 21.1629 22.0197 21.1153 22.038 21.0682C22.0562 21.0212 22.076 20.9748 22.0974 20.9291C22.1188 20.8833 22.1417 20.8383 22.166 20.7941C22.1903 20.7498 22.2162 20.7064 22.2434 20.6638C22.2707 20.6212 22.2992 20.5796 22.3292 20.539C22.3592 20.4982 22.3906 20.4585 22.4232 20.4199C22.4557 20.3813 22.4896 20.3438 22.5247 20.3074C22.5599 20.2709 22.5962 20.2356 22.6337 20.2016C22.6711 20.1675 22.7097 20.1347 22.7493 20.1032C22.7889 20.0717 22.8296 20.0415 22.8713 20.0127C22.9129 19.9837 22.9554 19.9562 22.9988 19.9302C23.0423 19.9041 23.0866 19.8795 23.1317 19.8562C23.1769 19.833 23.2227 19.8113 23.2693 19.7912C23.3158 19.771 23.3629 19.7524 23.4108 19.7352C23.4586 19.7181 23.5068 19.7026 23.5556 19.6887C23.6045 19.6747 23.6537 19.6624 23.7034 19.6516C23.753 19.6409 23.8029 19.6319 23.8531 19.6244C23.9033 19.6169 23.9538 19.6111 24.0044 19.607Z" fill="#201D00"/>
<path d="M23.8696 19.9351C23.9019 19.9297 23.9343 19.9251 23.9667 19.9214C23.9992 19.9175 24.0318 19.9145 24.0646 19.9123C24.0973 19.91 24.13 19.9086 24.1627 19.9079C24.1954 19.9073 24.2281 19.9075 24.2608 19.9084C24.2936 19.9093 24.3263 19.9111 24.3589 19.9136C24.3916 19.9161 24.4242 19.9194 24.4566 19.9235C24.4891 19.9276 24.5215 19.9324 24.5537 19.9381C24.5859 19.9438 24.618 19.9503 24.65 19.9575C24.6819 19.9647 24.7136 19.9727 24.7452 19.9813C24.7767 19.9901 24.8079 19.9996 24.8389 20.0099C24.8701 20.0202 24.9009 20.0312 24.9315 20.043C24.9619 20.0548 24.9921 20.0672 25.022 20.0804C25.0519 20.0937 25.0815 20.1077 25.1108 20.1223C25.1399 20.137 25.1688 20.1523 25.1973 20.1684C25.2257 20.1845 25.2538 20.2012 25.2814 20.2187C25.3091 20.236 25.3363 20.2541 25.3631 20.2728C25.3898 20.2915 25.4161 20.3109 25.4419 20.331C25.4677 20.351 25.493 20.3716 25.5178 20.3928C25.5425 20.4141 25.5668 20.4359 25.5905 20.4583C25.6142 20.4807 25.6374 20.5037 25.66 20.5271C25.6826 20.5507 25.7045 20.5747 25.7259 20.5994C25.7473 20.624 25.7681 20.6491 25.7883 20.6747C25.8084 20.7003 25.828 20.7264 25.8469 20.7529C25.8658 20.7794 25.884 20.8064 25.9016 20.8338C25.9192 20.8613 25.936 20.8892 25.9522 20.9174C25.9684 20.9456 25.9839 20.9742 25.9987 21.0032C26.0134 21.0323 26.0275 21.0617 26.0408 21.0914C26.0542 21.121 26.0668 21.151 26.0787 21.1813C26.0905 21.2116 26.1016 21.2421 26.1119 21.2729C26.1223 21.3037 26.1319 21.3348 26.1408 21.3662C26.1497 21.3974 26.1577 21.4289 26.165 21.4607C26.1723 21.4923 26.1787 21.5241 26.1845 21.5561C26.1902 21.5881 26.1952 21.6203 26.1993 21.6526C26.2034 21.6847 26.2067 21.717 26.2093 21.7494C26.2119 21.7819 26.2136 21.8143 26.2145 21.8468C26.2155 21.8793 26.2157 21.9118 26.215 21.9443C26.2145 21.9768 26.213 22.0092 26.2108 22.0417C26.2085 22.0741 26.2055 22.1064 26.2017 22.1387C26.1978 22.1709 26.1932 22.2031 26.1878 22.2352C26.1824 22.2673 26.1762 22.2992 26.1692 22.3309C26.1622 22.3627 26.1545 22.3942 26.146 22.4257C26.1374 22.457 26.1281 22.4882 26.1181 22.519C26.108 22.55 26.0972 22.5807 26.0857 22.6111C26.0741 22.6415 26.0618 22.6716 26.0487 22.7015C26.0357 22.7312 26.0219 22.7607 26.0074 22.7898C25.9929 22.819 25.9777 22.8477 25.9617 22.8761C25.9458 22.9045 25.9292 22.9325 25.9119 22.9602C25.8946 22.9878 25.8767 23.0149 25.8581 23.0416C25.8395 23.0684 25.8202 23.0946 25.8003 23.1205C25.7803 23.1463 25.7598 23.1716 25.7387 23.1964C25.7175 23.2212 25.6957 23.2454 25.6734 23.2692C25.651 23.2929 25.6281 23.3161 25.6047 23.3388C25.5811 23.3614 25.5571 23.3835 25.5324 23.405C25.5079 23.4264 25.4828 23.4473 25.4573 23.4675C25.4316 23.4877 25.4055 23.5074 25.3789 23.5263C25.3523 23.5453 25.3253 23.5637 25.2979 23.5813C25.2704 23.599 25.2425 23.6161 25.2142 23.6325C25.1859 23.6488 25.1572 23.6644 25.1281 23.6793C25.099 23.6942 25.0696 23.7085 25.0398 23.722C25.01 23.7355 24.9799 23.7483 24.9495 23.7604C24.9191 23.7725 24.8884 23.7838 24.8575 23.7944C24.8266 23.8049 24.7953 23.8147 24.7638 23.8238C24.7324 23.8328 24.7008 23.8411 24.6689 23.8486C24.637 23.8562 24.605 23.8629 24.5729 23.8689C24.5403 23.875 24.5076 23.8802 24.4747 23.8846C24.4419 23.8891 24.409 23.8927 24.3761 23.8955C24.343 23.8983 24.3099 23.9003 24.2768 23.9016C24.2438 23.9028 24.2106 23.9032 24.1775 23.9028C24.1444 23.9023 24.1113 23.901 24.0782 23.899C24.0452 23.897 24.0121 23.8942 23.9792 23.8905C23.9463 23.8869 23.9135 23.8824 23.8808 23.8772C23.8481 23.8719 23.8155 23.8658 23.7831 23.859C23.7508 23.8521 23.7186 23.8444 23.6865 23.8359C23.6545 23.8275 23.6227 23.8183 23.5911 23.8083C23.5596 23.7984 23.5283 23.7876 23.4973 23.7761C23.4663 23.7645 23.4355 23.7522 23.4051 23.7392C23.3747 23.7262 23.3446 23.7124 23.3149 23.6979C23.2851 23.6833 23.2558 23.6681 23.2269 23.6522C23.1979 23.6362 23.1693 23.6196 23.1412 23.6022C23.1131 23.5849 23.0853 23.5668 23.058 23.5481C23.0308 23.5294 23.0041 23.5101 22.9778 23.4901C22.9515 23.47 22.9257 23.4494 22.9005 23.428C22.8752 23.4068 22.8505 23.3849 22.8264 23.3624C22.8021 23.3399 22.7785 23.3168 22.7555 23.2932C22.7325 23.2695 22.7101 23.2453 22.6884 23.2205C22.6665 23.1958 22.6453 23.1706 22.6247 23.1448C22.6042 23.119 22.5843 23.0927 22.565 23.0659C22.5458 23.0392 22.5272 23.012 22.5093 22.9843C22.4914 22.9566 22.4742 22.9285 22.4578 22.9C22.4413 22.8715 22.4255 22.8426 22.4105 22.8132C22.3953 22.784 22.381 22.7544 22.3675 22.7244C22.3538 22.6943 22.341 22.664 22.3289 22.6333C22.3169 22.6027 22.3055 22.5718 22.295 22.5406C22.2845 22.5095 22.2748 22.478 22.2658 22.4464C22.2568 22.4148 22.2486 22.3829 22.2412 22.3509C22.2338 22.3188 22.2273 22.2866 22.2214 22.2542C22.2156 22.2219 22.2106 22.1893 22.2064 22.1567C22.2023 22.1241 22.199 22.0914 22.1965 22.0586C22.1939 22.0259 22.1921 21.993 22.1912 21.9601C22.1903 21.9273 22.1902 21.8944 22.1909 21.8615C22.1917 21.8286 22.1932 21.7958 22.1955 21.763C22.1979 21.7302 22.2011 21.6974 22.2051 21.6648C22.2091 21.6321 22.2139 21.5996 22.2195 21.5672C22.2251 21.5348 22.2315 21.5025 22.2387 21.4704C22.2459 21.4383 22.2539 21.4064 22.2627 21.3747C22.2715 21.3431 22.281 21.3116 22.2915 21.2804C22.3018 21.2491 22.3129 21.2182 22.3248 21.1874C22.3368 21.1567 22.3494 21.1264 22.3628 21.0963C22.3762 21.0663 22.3904 21.0365 22.4052 21.0071C22.4201 20.9778 22.4357 20.9488 22.4521 20.9203C22.4685 20.8916 22.4855 20.8634 22.5032 20.8356C22.5209 20.8079 22.5394 20.7806 22.5584 20.7536C22.5776 20.7268 22.5973 20.7005 22.6177 20.6745C22.6382 20.6486 22.6592 20.6233 22.6809 20.5984C22.7026 20.5735 22.7248 20.5491 22.7477 20.5254C22.7706 20.5016 22.794 20.4784 22.8181 20.4557C22.8421 20.4331 22.8667 20.4111 22.8919 20.3896C22.917 20.3682 22.9426 20.3475 22.9687 20.3273C22.9949 20.3071 23.0216 20.2876 23.0488 20.2687C23.0759 20.2499 23.1035 20.2317 23.1316 20.2142C23.1596 20.1967 23.188 20.1799 23.2169 20.1638C23.2458 20.1477 23.2751 20.1322 23.3047 20.1175C23.3344 20.1029 23.3644 20.089 23.3947 20.0758C23.425 20.0625 23.4557 20.05 23.4867 20.0384C23.5176 20.0267 23.5488 20.0157 23.5803 20.0055C23.6118 19.9954 23.6436 19.986 23.6755 19.9773C23.7075 19.9687 23.7397 19.9609 23.772 19.9539C23.8043 19.9468 23.8369 19.9405 23.8696 19.9351Z" fill="#573BFF"/>
<path d="M38.6206 19.6609C38.6577 19.6556 38.6948 19.6512 38.7321 19.6476C38.7694 19.644 38.8067 19.6414 38.844 19.6396C38.8814 19.6379 38.9188 19.6371 38.9562 19.6372C38.9936 19.6373 39.031 19.6383 39.0684 19.6402C39.1058 19.6422 39.1432 19.645 39.1804 19.6487C39.2176 19.6525 39.2547 19.6572 39.2918 19.6628C39.3288 19.6683 39.3656 19.6748 39.4023 19.6822C39.439 19.6895 39.4754 19.6977 39.5117 19.7069C39.548 19.7161 39.584 19.7261 39.6198 19.737C39.6556 19.7479 39.691 19.7597 39.7263 19.7723C39.7615 19.785 39.7963 19.7985 39.8309 19.8129C39.8654 19.8273 39.8996 19.8424 39.9333 19.8584C39.9671 19.8744 40.0004 19.8913 40.0333 19.9089C40.0663 19.9266 40.0988 19.945 40.1308 19.9642C40.1629 19.9835 40.1944 20.0035 40.2254 20.0243C40.2565 20.0451 40.287 20.0666 40.317 20.0888C40.3469 20.1111 40.3762 20.134 40.4051 20.1578C40.4339 20.1815 40.4621 20.2059 40.4897 20.231C40.5173 20.2561 40.5443 20.2818 40.5706 20.3082C40.597 20.3346 40.6226 20.3617 40.6476 20.3894C40.6726 20.4169 40.6969 20.4452 40.7206 20.4741C40.7442 20.5029 40.767 20.5322 40.7891 20.5622C40.8113 20.5922 40.8327 20.6227 40.8533 20.6537C40.8739 20.6847 40.8937 20.7162 40.9127 20.7481C40.9318 20.7801 40.9501 20.8125 40.9676 20.8454C40.985 20.8783 41.0016 20.9116 41.0174 20.9453C41.0333 20.979 41.0482 21.013 41.0623 21.0474C41.0764 21.0818 41.0897 21.1165 41.1021 21.1516C41.1145 21.1867 41.126 21.222 41.1366 21.2576C41.1473 21.2932 41.157 21.3291 41.1658 21.3652C41.1747 21.4013 41.1827 21.4376 41.1897 21.4741C41.1968 21.5106 41.2029 21.5472 41.2082 21.584C41.2135 21.6208 41.2178 21.6577 41.2212 21.6946C41.2246 21.7316 41.2271 21.7687 41.2287 21.8059C41.2302 21.8429 41.2309 21.8801 41.2305 21.9172C41.2303 21.9544 41.2292 21.9915 41.227 22.0286C41.2249 22.0657 41.2219 22.1027 41.218 22.1397C41.214 22.1767 41.2091 22.2135 41.2033 22.2502C41.1976 22.2869 41.1909 22.3235 41.1833 22.3599C41.1757 22.3962 41.1673 22.4324 41.1579 22.4683C41.1484 22.5043 41.1382 22.54 41.127 22.5755C41.1159 22.611 41.1039 22.6462 41.091 22.681C41.078 22.7159 41.0642 22.7504 41.0496 22.7846C41.035 22.8188 41.0196 22.8527 41.0033 22.8861C40.987 22.9196 40.97 22.9526 40.9521 22.9853C40.9341 23.0179 40.9154 23.05 40.8959 23.0817C40.8763 23.1134 40.856 23.1446 40.8349 23.1753C40.8139 23.2061 40.7921 23.2363 40.7695 23.2658C40.7469 23.2955 40.7236 23.3246 40.6996 23.3531C40.6756 23.3816 40.6509 23.4095 40.6255 23.4367C40.6002 23.4641 40.5741 23.4908 40.5473 23.5168C40.5206 23.5428 40.4933 23.5681 40.4653 23.5928C40.4373 23.6175 40.4087 23.6415 40.3795 23.6648C40.3504 23.6881 40.3207 23.7106 40.2904 23.7324C40.2601 23.7543 40.2293 23.7754 40.198 23.7957C40.1667 23.8161 40.1348 23.8357 40.1025 23.8545C40.0702 23.8732 40.0375 23.8912 40.0043 23.9083C39.9712 23.9255 39.9376 23.9418 39.9036 23.9574C39.8695 23.9729 39.8352 23.9876 39.8004 24.0014C39.7656 24.0153 39.7306 24.0284 39.6953 24.0405C39.6599 24.0527 39.6242 24.064 39.5882 24.0743C39.5524 24.0847 39.5162 24.0942 39.4798 24.1028C39.4434 24.1114 39.4067 24.1192 39.37 24.1261C39.3332 24.1329 39.2962 24.1388 39.2591 24.1439C39.2223 24.1489 39.1853 24.153 39.1482 24.1562C39.1111 24.1594 39.074 24.1617 39.0368 24.1631C38.9997 24.1645 38.9625 24.1651 38.9252 24.1647C38.888 24.1642 38.8509 24.1629 38.8137 24.1607C38.7766 24.1585 38.7395 24.1554 38.7025 24.1514C38.6654 24.1474 38.6286 24.1425 38.5919 24.1366C38.5551 24.1308 38.5185 24.1241 38.4821 24.1165C38.4456 24.1089 38.4094 24.1005 38.3734 24.0911C38.3374 24.0818 38.3017 24.0716 38.2661 24.0605C38.2306 24.0495 38.1954 24.0376 38.1605 24.0247C38.1256 24.012 38.0911 23.9984 38.0568 23.9839C38.0225 23.9694 37.9887 23.9541 37.9552 23.938C37.9217 23.9218 37.8886 23.9049 37.856 23.8872C37.8233 23.8695 37.7911 23.8511 37.7594 23.8318C37.7276 23.8125 37.6963 23.7924 37.6656 23.7715C37.6349 23.7508 37.6046 23.7292 37.5749 23.707C37.5453 23.6847 37.5162 23.6617 37.4876 23.6381C37.4591 23.6143 37.4311 23.59 37.4037 23.565C37.3763 23.5399 37.3496 23.5142 37.3235 23.4879C37.2974 23.4615 37.272 23.4345 37.2473 23.4069C37.2225 23.3794 37.1984 23.3512 37.175 23.3224C37.1517 23.2937 37.1291 23.2644 37.1072 23.2346C37.0852 23.2047 37.064 23.1743 37.0436 23.1435C37.0232 23.1126 37.0036 23.0812 36.9847 23.0494C36.9658 23.0176 36.9477 22.9853 36.9304 22.9525C36.9132 22.9199 36.8967 22.8867 36.881 22.8532C36.8653 22.8197 36.8505 22.7858 36.8366 22.7516C36.8226 22.7174 36.8094 22.6828 36.7971 22.648C36.7849 22.6131 36.7735 22.5779 36.7629 22.5425C36.7523 22.5071 36.7427 22.4714 36.734 22.4354C36.7252 22.3996 36.7173 22.3635 36.7102 22.3272C36.7032 22.291 36.6971 22.2546 36.6919 22.2179C36.6867 22.1813 36.6824 22.1447 36.679 22.108C36.6756 22.0712 36.6731 22.0343 36.6716 21.9973C36.6699 21.9604 36.6692 21.9235 36.6695 21.8866C36.6697 21.8496 36.6709 21.8127 36.673 21.7758C36.675 21.7389 36.678 21.7021 36.6818 21.6654C36.6856 21.6286 36.6904 21.592 36.6961 21.5555C36.7018 21.5189 36.7084 21.4826 36.7158 21.4465C36.7234 21.4103 36.7318 21.3743 36.741 21.3386C36.7502 21.3027 36.7603 21.2672 36.7713 21.2319C36.7823 21.1966 36.7941 21.1616 36.8069 21.1268C36.8196 21.0922 36.8332 21.0578 36.8477 21.0238C36.8621 20.9897 36.8773 20.956 36.8934 20.9227C36.9095 20.8893 36.9264 20.8564 36.9441 20.824C36.9618 20.7915 36.9803 20.7595 36.9996 20.7278C37.0189 20.6962 37.0389 20.6651 37.0598 20.6345C37.0806 20.6039 37.1022 20.5738 37.1245 20.5442C37.1468 20.5146 37.1698 20.4856 37.1935 20.4571C37.2172 20.4287 37.2416 20.4009 37.2667 20.3736C37.2918 20.3463 37.3176 20.3197 37.344 20.2937C37.3705 20.2677 37.3976 20.2424 37.4252 20.2177C37.4529 20.193 37.4812 20.1689 37.5101 20.1455C37.5389 20.1222 37.5683 20.0996 37.5982 20.0778C37.6282 20.0558 37.6588 20.0347 37.6898 20.0142C37.7208 19.9938 37.7523 19.9742 37.7843 19.9553C37.8163 19.9364 37.8487 19.9183 37.8815 19.901C37.9144 19.8837 37.9477 19.8672 37.9815 19.8516C38.0151 19.8358 38.0492 19.821 38.0837 19.807C38.118 19.7929 38.1528 19.7797 38.1879 19.7673C38.223 19.755 38.2583 19.7435 38.294 19.7329C38.3296 19.7223 38.3655 19.7125 38.4016 19.7037C38.4378 19.6948 38.4741 19.6868 38.5106 19.6797C38.5471 19.6725 38.5838 19.6663 38.6206 19.6609Z" fill="#201D00"/>
<path d="M38.453 20.0051C38.4947 19.994 38.5368 19.9843 38.5791 19.976C38.6216 19.9677 38.6643 19.9607 38.7071 19.9552C38.7499 19.9496 38.7929 19.9454 38.836 19.9427C38.8791 19.9401 38.9223 19.9387 38.9655 19.9388C39.0088 19.9389 39.052 19.9404 39.0951 19.9434C39.1382 19.9463 39.1812 19.9506 39.224 19.9564C39.2667 19.9621 39.3093 19.9693 39.3516 19.9779C39.394 19.9864 39.436 19.9963 39.4777 20.0076C39.5195 20.0189 39.5607 20.0315 39.6016 20.0456C39.6424 20.0595 39.6827 20.0748 39.7226 20.0914C39.7624 20.1082 39.8017 20.1261 39.8403 20.1453C39.8789 20.1645 39.9169 20.185 39.9541 20.2067C39.9914 20.2284 40.028 20.2513 40.0637 20.2754C40.0995 20.2995 40.1344 20.3247 40.1684 20.3511C40.2024 20.3775 40.2356 20.405 40.268 20.4335C40.3002 20.462 40.3314 20.4916 40.3617 20.5222C40.392 20.5529 40.4212 20.5844 40.4494 20.6169C40.4776 20.6494 40.5046 20.6828 40.5306 20.7171C40.5565 20.7514 40.5813 20.7865 40.605 20.8224C40.6285 20.8584 40.651 20.8951 40.6722 20.9324C40.6934 20.9698 40.7133 21.0078 40.7319 21.0465C40.7506 21.0852 40.7679 21.1245 40.784 21.1644C40.8 21.2041 40.8147 21.2444 40.8281 21.2853C40.8414 21.3261 40.8534 21.3673 40.8641 21.4089C40.8746 21.4504 40.8839 21.4922 40.8917 21.5345C40.8996 21.5766 40.906 21.619 40.911 21.6616C40.916 21.7042 40.9196 21.747 40.9218 21.7899C40.924 21.8327 40.9247 21.8755 40.9239 21.9184C40.9233 21.9613 40.9212 22.0041 40.9177 22.0469C40.9142 22.0896 40.9092 22.1322 40.9029 22.1747C40.8965 22.2171 40.8887 22.2593 40.8795 22.3011C40.8704 22.3431 40.8599 22.3847 40.8479 22.4259C40.836 22.4671 40.8227 22.5079 40.808 22.5483C40.7934 22.5886 40.7774 22.6284 40.7601 22.6678C40.7428 22.7071 40.7242 22.7457 40.7044 22.7838C40.6845 22.8219 40.6634 22.8593 40.6411 22.8961C40.6187 22.9328 40.5951 22.9687 40.5704 23.0038C40.5456 23.039 40.5197 23.0734 40.4927 23.1068C40.4656 23.1403 40.4375 23.1728 40.4083 23.2044C40.3791 23.2361 40.3489 23.2667 40.3176 23.2964C40.2864 23.326 40.2542 23.3545 40.2211 23.3821C40.1879 23.4096 40.1539 23.436 40.1191 23.4613C40.0842 23.4866 40.0485 23.5108 40.012 23.5337C39.9755 23.5566 39.9382 23.5784 39.9003 23.5989C39.8624 23.6195 39.8238 23.6387 39.7846 23.6567C39.7454 23.6747 39.7056 23.6914 39.6653 23.7068C39.6248 23.7222 39.584 23.7362 39.5427 23.7489C39.5015 23.7616 39.4598 23.773 39.4178 23.783C39.3869 23.7904 39.3558 23.797 39.3245 23.8029C39.2931 23.8087 39.2617 23.8138 39.2301 23.8182C39.1985 23.8225 39.1669 23.8261 39.1352 23.8289C39.1034 23.8316 39.0716 23.8336 39.0398 23.8349C39.008 23.8362 38.9761 23.8367 38.9442 23.8365C38.9124 23.8362 38.8806 23.8352 38.8488 23.8334C38.817 23.8315 38.7853 23.8289 38.7536 23.8256C38.7219 23.8223 38.6903 23.8182 38.6588 23.8134C38.6273 23.8085 38.596 23.8028 38.5648 23.7964C38.5336 23.79 38.5025 23.7829 38.4717 23.7751C38.4409 23.7672 38.4102 23.7586 38.3797 23.7493C38.3494 23.7398 38.3192 23.7297 38.2892 23.7189C38.2593 23.7081 38.2296 23.6966 38.2003 23.6844C38.1709 23.6721 38.1418 23.6592 38.1131 23.6455C38.0844 23.6318 38.056 23.6175 38.0279 23.6025C37.9999 23.5875 37.9722 23.5718 37.945 23.5555C37.9177 23.539 37.8909 23.522 37.8645 23.5044C37.838 23.4867 37.812 23.4684 37.7865 23.4495C37.761 23.4306 37.7359 23.4111 37.7113 23.391C37.6868 23.3708 37.6627 23.3501 37.6391 23.3288C37.6155 23.3076 37.5925 23.2858 37.5701 23.2633C37.5476 23.2409 37.5257 23.218 37.5043 23.1945C37.483 23.1711 37.4622 23.1471 37.4419 23.1227C37.4218 23.0981 37.4022 23.0732 37.3833 23.0478C37.3643 23.0224 37.3459 22.9966 37.3283 22.9703C37.3106 22.944 37.2935 22.9173 37.2771 22.8902C37.2607 22.8631 37.2451 22.8356 37.23 22.8077C37.215 22.7798 37.2006 22.7515 37.1869 22.723C37.1732 22.6944 37.1603 22.6655 37.148 22.6364C37.1358 22.6071 37.1243 22.5777 37.1135 22.548C37.1028 22.5182 37.0927 22.4882 37.0834 22.4579C37.074 22.4276 37.0654 22.3972 37.0576 22.3666C37.0498 22.336 37.0427 22.3051 37.0364 22.2742C37.0301 22.2432 37.0245 22.212 37.0197 22.1808C37.0149 22.1495 37.0109 22.1181 37.0076 22.0867C37.0044 22.0551 37.0019 22.0236 37.0002 21.9921C36.9985 21.9605 36.9976 21.9289 36.9975 21.8973C36.9973 21.8657 36.9979 21.834 36.9993 21.8024C37.0007 21.7709 37.0029 21.7393 37.0058 21.7078C37.0087 21.6763 37.0124 21.6449 37.0169 21.6136C37.0214 21.5823 37.0266 21.5512 37.0327 21.5201C37.0387 21.489 37.0454 21.4581 37.053 21.4274C37.0605 21.3967 37.0688 21.3662 37.0778 21.3358C37.0869 21.3055 37.0966 21.2754 37.107 21.2455C37.1175 21.2157 37.1288 21.1861 37.1408 21.1567C37.1527 21.1274 37.1654 21.0984 37.1788 21.0698C37.1921 21.0411 37.2061 21.0127 37.2209 20.9847C37.2357 20.9567 37.2511 20.929 37.2672 20.9017C37.2833 20.8744 37.3001 20.8476 37.3176 20.8211C37.335 20.7947 37.3531 20.7686 37.3719 20.743C37.3906 20.7174 37.4098 20.6923 37.4297 20.6676C37.4497 20.6429 37.4703 20.6187 37.4914 20.5951C37.5125 20.5715 37.5342 20.5483 37.5565 20.5257C37.5787 20.5031 37.6015 20.481 37.6249 20.4594C37.6482 20.438 37.6721 20.417 37.6965 20.3967C37.7209 20.3763 37.7458 20.3565 37.7711 20.3374C37.7964 20.3182 37.8222 20.2997 37.8485 20.2818C37.8747 20.2638 37.9014 20.2466 37.9285 20.23C37.9556 20.2133 37.9831 20.1973 38.0109 20.182C38.0388 20.1668 38.0671 20.1522 38.0957 20.1382C38.1243 20.1242 38.1532 20.111 38.1824 20.0985C38.2117 20.0859 38.2413 20.0741 38.2711 20.063C38.3009 20.0519 38.331 20.0416 38.3613 20.0319C38.3917 20.0222 38.4222 20.0133 38.453 20.0051Z" fill="white"/>
</svg>
