<svg width="140" height="144" viewBox="0 0 140 144" fill="none" xmlns="http://www.w3.org/2000/svg">
<path d="M23.6626 25.7262L85.6206 25.7966L106.19 25.8088L112.092 25.8056C113.182 25.8025 114.319 25.7305 115.402 25.836C116.426 25.9357 117.412 26.4675 118.185 27.1201C119.487 28.2182 119.931 29.5414 120.073 31.1851C120.281 31.2739 120.484 31.3719 120.683 31.479C120.882 31.5862 121.075 31.7019 121.264 31.8264C121.452 31.9508 121.634 32.0834 121.811 32.2242C121.987 32.3649 122.157 32.5133 122.319 32.6693C122.401 32.7477 122.481 32.8281 122.559 32.9105C122.637 32.9929 122.712 33.0772 122.786 33.1633C122.86 33.2495 122.931 33.3374 123 33.4271C123.069 33.5168 123.136 33.6081 123.2 33.7011C123.265 33.7941 123.327 33.8887 123.387 33.9848C123.447 34.081 123.504 34.1785 123.559 34.2774C123.614 34.3764 123.666 34.4766 123.716 34.5781C123.765 34.6797 123.813 34.7824 123.857 34.8863C123.902 34.9901 123.944 35.0951 123.983 35.2011C124.022 35.3071 124.059 35.414 124.093 35.5218C124.127 35.6295 124.158 35.7381 124.187 35.8475C124.215 35.9568 124.241 36.0668 124.264 36.1773C124.286 36.288 124.307 36.3992 124.324 36.5108C124.341 36.6224 124.356 36.7344 124.367 36.8467C124.379 36.959 124.388 37.0716 124.394 37.1844C124.4 37.2971 124.403 37.4099 124.403 37.5229L124.393 90.9781L124.388 106.404L124.375 111.103C124.37 111.888 124.429 112.731 124.326 113.508C124.173 114.666 123.584 115.781 122.753 116.602C121.019 118.313 118.897 118.241 116.623 118.225L51.453 118.156L34.414 118.175C31.7715 118.178 29.0691 118.296 26.4334 118.154C25.5027 118.104 24.5911 117.951 23.7344 117.574C21.8648 116.751 20.9822 115.22 20.2832 113.4C19.1793 113.104 18.2158 112.648 17.3915 111.844C16.4191 110.895 15.7943 109.565 15.6288 108.227C15.5179 107.33 15.5784 106.397 15.5871 105.494L15.6061 101.526L15.6095 87.0591L15.6431 36.1106L15.643 33.0041C15.6493 30.9797 15.6108 28.9318 17.1695 27.3974C19.0326 25.5633 21.2488 25.7233 23.6626 25.7262Z" fill="#201D00"/>
<path d="M16.0046 38.1026L119.811 38.1977C119.688 43.6089 119.837 49.0478 119.837 54.4624L119.82 89.0454L119.814 102.043C119.813 104.023 119.965 106.918 119.723 108.826C119.579 109.967 119.042 110.88 118.287 111.731C118.053 111.963 117.803 112.177 117.54 112.375C116.758 112.952 115.713 113.21 114.753 113.242C112.311 113.322 109.84 113.224 107.394 113.22L92.2395 113.205L47.6483 113.153L28.2022 113.169L23.4888 113.171C22.4366 113.174 21.2867 113.259 20.2489 113.072C18.9807 112.843 17.6748 111.864 16.9449 110.833C16.3714 110.023 15.9884 109.046 15.9285 108.055C15.8319 106.457 15.933 104.807 15.9335 103.204L15.9383 92.7535L15.9474 61.4467L15.9663 44.8332L15.9561 40.4377C15.9539 39.6853 15.8777 38.8418 16.0046 38.1026Z" fill="#EDE7FF"/>
<path d="M20.8351 25.994C21.7227 25.8723 22.729 25.9557 23.6306 25.9557L29.0699 25.96L47.6768 25.9612L112.867 26.0228C114.989 26.0185 116.691 25.9838 118.294 27.594C120.033 29.3402 119.868 31.5207 119.867 33.7875L119.853 37.9463L115.354 37.9407L15.9257 37.8769C15.8551 36.4438 15.9114 34.9866 15.9303 33.5516C15.946 32.3623 15.8422 31.0525 16.116 29.8909C16.1583 29.7076 16.211 29.5273 16.274 29.35C16.337 29.1727 16.41 28.9995 16.4929 28.8304C16.5757 28.6612 16.6679 28.4973 16.7697 28.3386C16.8713 28.18 16.9817 28.0276 17.1008 27.8814C18.0479 26.7233 19.3643 26.1487 20.8351 25.994Z" fill="#9E8EFF"/>
<path d="M78.2085 28.3788C80.5386 28.3129 82.8838 28.3648 85.2154 28.3667L97.8232 28.3739L108.82 28.3763C110.058 28.3764 111.374 28.274 112.601 28.371C113.136 28.4132 113.638 28.5725 114.088 28.8666C114.904 29.4002 115.483 30.2844 115.678 31.2314C115.859 32.105 115.672 32.9711 115.17 33.7077C114.572 34.5851 113.731 35.0752 112.703 35.2852L88.2744 35.2751L81.7762 35.2832C80.6001 35.2849 79.359 35.3631 78.1904 35.2494C77.5923 35.1911 77.0527 35.0277 76.5569 34.6817C75.7976 34.1516 75.2166 33.249 75.094 32.3273C74.9639 31.3477 75.1714 30.5297 75.7738 29.7363C76.3774 28.9416 77.2334 28.5096 78.2085 28.3788Z" fill="#201D00"/>
<path d="M78.2089 28.6522C80.4648 28.5792 82.7396 28.6371 84.9973 28.6387L97.6426 28.6475L108.2 28.6523C109.612 28.6467 111.111 28.5416 112.512 28.6645C113.097 28.7158 113.634 28.9003 114.108 29.2479C114.851 29.7921 115.284 30.5942 115.417 31.4898C115.537 32.3011 115.329 33.0184 114.834 33.6692C114.24 34.4492 113.526 34.8565 112.554 34.9836C110.672 35.084 108.752 35.0073 106.867 35.0013L92.6214 34.9602L82.9655 34.9902C81.4928 34.9922 79.9433 35.1018 78.4808 34.9742C77.808 34.9153 77.1699 34.7226 76.6227 34.3174C76.5811 34.2862 76.5402 34.254 76.5001 34.2207C76.4601 34.1876 76.4209 34.1535 76.3826 34.1183C76.3442 34.0832 76.3067 34.0472 76.2702 34.0102C76.2336 33.9733 76.1979 33.9355 76.1632 33.8968C76.1286 33.8581 76.0949 33.8187 76.0621 33.7783C76.0293 33.738 75.9976 33.6969 75.9669 33.655C75.9362 33.6131 75.9066 33.5705 75.878 33.5271C75.8494 33.4839 75.8219 33.4399 75.7955 33.3952C75.769 33.3505 75.7437 33.3052 75.7196 33.2594C75.6955 33.2134 75.6725 33.167 75.6506 33.12C75.6287 33.073 75.608 33.0254 75.5885 32.9773C75.569 32.9293 75.5507 32.8808 75.5335 32.8319C75.5165 32.783 75.5006 32.7337 75.4858 32.684C75.4712 32.6343 75.4578 32.5842 75.4457 32.5339C75.4334 32.4835 75.4225 32.4329 75.4129 32.382C75.4031 32.3311 75.3947 32.28 75.3876 32.2287C75.3803 32.1782 75.3742 32.1276 75.3693 32.0769C75.3645 32.0262 75.361 31.9754 75.3588 31.9245C75.3565 31.8735 75.3555 31.8226 75.3559 31.7716C75.3562 31.7207 75.3578 31.6698 75.3607 31.6189C75.3635 31.568 75.3676 31.5172 75.3731 31.4666C75.3785 31.4159 75.3852 31.3653 75.3932 31.315C75.4012 31.2646 75.4103 31.2145 75.4208 31.1646C75.4313 31.1147 75.4431 31.0651 75.456 31.0158C75.469 30.9665 75.4833 30.9176 75.4987 30.8689C75.5141 30.8203 75.5307 30.7721 75.5486 30.7244C75.5665 30.6766 75.5855 30.6293 75.6058 30.5825C75.626 30.5356 75.6474 30.4894 75.67 30.4436C75.6926 30.3978 75.7164 30.3526 75.7412 30.308C75.766 30.2634 75.792 30.2195 75.819 30.1762C75.8461 30.1329 75.8742 30.0902 75.9034 30.0483C75.9326 30.0064 75.9629 29.9653 75.9941 29.9248C76.5535 29.1878 77.3013 28.7795 78.2089 28.6522Z" fill="#EDE7FF"/>
<path d="M31.5404 28.8474C31.5778 28.8458 31.6153 28.8451 31.6527 28.8453C31.6902 28.8454 31.7276 28.8465 31.7649 28.8485C31.8023 28.8505 31.8396 28.8534 31.8768 28.8572C31.9141 28.8609 31.9512 28.8655 31.9883 28.8711C32.0253 28.8767 32.0621 28.8831 32.0988 28.8905C32.1355 28.8978 32.172 28.9061 32.2083 28.9152C32.2447 28.9243 32.2807 28.9342 32.3165 28.945C32.3523 28.9559 32.3879 28.9676 32.4231 28.9801C32.4584 28.9927 32.4933 29.0061 32.5278 29.0203C32.5624 29.0345 32.5966 29.0496 32.6305 29.0655C32.6643 29.0813 32.6978 29.0981 32.7308 29.1156C32.7638 29.1331 32.7964 29.1513 32.8285 29.1704C32.8607 29.1895 32.8924 29.2093 32.9235 29.2299C32.9547 29.2504 32.9853 29.2718 33.0154 29.2938C33.0456 29.3159 33.0752 29.3387 33.1042 29.3622C33.1331 29.3857 33.1616 29.4098 33.1894 29.4348C33.2173 29.4596 33.2445 29.4851 33.271 29.5113C33.2977 29.5374 33.3236 29.5642 33.3489 29.5916C33.3741 29.6191 33.3987 29.6472 33.4226 29.6758C33.4465 29.7044 33.4697 29.7335 33.4922 29.7632C33.5146 29.7929 33.5364 29.8232 33.5573 29.8539C33.5783 29.8847 33.5986 29.916 33.618 29.9477C33.6375 29.9794 33.6562 30.0117 33.6741 30.0443C33.6921 30.077 33.7091 30.11 33.7254 30.1434C33.7417 30.1769 33.7571 30.2107 33.7717 30.245C33.7864 30.2792 33.8001 30.3137 33.813 30.3486C33.826 30.3835 33.8381 30.4186 33.8493 30.454C33.8606 30.4895 33.8709 30.5253 33.8803 30.5613C33.8898 30.5971 33.8984 30.6333 33.9061 30.6697C33.9137 30.7061 33.9206 30.7426 33.9265 30.7793C33.9324 30.816 33.9374 30.8528 33.9415 30.8897C33.9456 30.9267 33.9488 30.9637 33.9511 31.0008C33.9534 31.0379 33.9549 31.075 33.9554 31.1122C33.9558 31.1493 33.9554 31.1865 33.9541 31.2237C33.9527 31.2608 33.9505 31.2979 33.9473 31.3349C33.9442 31.372 33.9402 31.4089 33.9352 31.4457C33.9303 31.4826 33.9245 31.5193 33.9177 31.5558C33.9109 31.5923 33.9033 31.6287 33.8948 31.6649C33.8862 31.7011 33.8768 31.737 33.8666 31.7728C33.8563 31.8085 33.8451 31.8439 33.8331 31.8792C33.8211 31.9144 33.8082 31.9493 33.7945 31.9839C33.7808 32.0184 33.7662 32.0527 33.7508 32.0866C33.7354 32.1204 33.7192 32.1539 33.7021 32.187C33.6851 32.2201 33.6673 32.2528 33.6487 32.2851C33.6301 32.3172 33.6107 32.349 33.5905 32.3803C33.5703 32.4116 33.5494 32.4424 33.5276 32.4727C33.5059 32.503 33.4835 32.5328 33.4604 32.5619C33.4372 32.5911 33.4134 32.6198 33.3888 32.6479C33.3643 32.6759 33.3391 32.7034 33.3132 32.7303C33.2873 32.7571 33.2607 32.7833 33.2336 32.8088C33.2065 32.8344 33.1787 32.8594 33.1502 32.8836C33.1219 32.9078 33.0929 32.9313 33.0633 32.9541C33.0339 32.9769 33.0038 32.9991 32.9731 33.0204C32.9425 33.0418 32.9114 33.0624 32.8797 33.0823C32.8481 33.1022 32.816 33.1214 32.7835 33.1397C32.7509 33.158 32.7179 33.1756 32.6845 33.1923C32.6511 33.2091 32.6172 33.225 32.583 33.2401C32.5488 33.2552 32.5143 33.2695 32.4795 33.2831C32.4445 33.2965 32.4093 33.3091 32.3738 33.3209C32.3383 33.3326 32.3025 33.3435 32.2665 33.3535C32.2304 33.3635 32.1941 33.3727 32.1576 33.3811C32.1211 33.3894 32.0844 33.3968 32.0476 33.4033C32.0107 33.4098 31.9737 33.4154 31.9365 33.4201C31.8995 33.4249 31.8622 33.4287 31.8249 33.4316C31.774 33.4357 31.723 33.438 31.6719 33.4386C31.6209 33.4393 31.5699 33.4383 31.5188 33.4356C31.4678 33.4329 31.417 33.4285 31.3662 33.4225C31.3155 33.4165 31.2651 33.4088 31.2149 33.3994C31.1647 33.3901 31.1149 33.3791 31.0654 33.3666C31.016 33.3539 30.967 33.3396 30.9185 33.3237C30.8699 33.3079 30.822 33.2905 30.7747 33.2715C30.7274 33.2525 30.6807 33.232 30.6347 33.21C30.5887 33.1879 30.5436 33.1643 30.4992 33.1393C30.4547 33.1143 30.4111 33.0878 30.3685 33.06C30.3259 33.032 30.2842 33.0027 30.2435 32.9722C30.2029 32.9415 30.1632 32.9096 30.1246 32.8764C30.086 32.8431 30.0486 32.8086 30.0123 32.773C29.9761 32.7372 29.9411 32.7004 29.9073 32.6624C29.8735 32.6243 29.841 32.5853 29.8098 32.5451C29.7786 32.505 29.7488 32.4639 29.7203 32.4218C29.6918 32.3797 29.6648 32.3367 29.6393 32.2928C29.6137 32.249 29.5895 32.2044 29.5669 32.1589C29.5443 32.1134 29.5233 32.0673 29.5037 32.0205C29.4842 31.9736 29.4663 31.9262 29.4499 31.8781C29.4335 31.8301 29.4188 31.7817 29.4056 31.7327C29.3925 31.6837 29.381 31.6343 29.3712 31.5845C29.3614 31.5348 29.3532 31.4848 29.3466 31.4345C29.3401 31.3843 29.3353 31.3338 29.3322 31.2832C29.3291 31.2327 29.3276 31.182 29.3279 31.1313C29.3281 31.0806 29.33 31.0299 29.3337 30.9794C29.3372 30.9289 29.3425 30.8785 29.3495 30.8282C29.3565 30.7781 29.3651 30.7281 29.3754 30.6784C29.3857 30.6288 29.3977 30.5796 29.4113 30.5307C29.4249 30.4818 29.4401 30.4335 29.4568 30.3856C29.4737 30.3378 29.4921 30.2905 29.5121 30.2439C29.532 30.1972 29.5535 30.1512 29.5766 30.106C29.5997 30.0607 29.6242 30.0163 29.6501 29.9727C29.6762 29.9291 29.7036 29.8863 29.7324 29.8445C29.7613 29.8026 29.7915 29.7618 29.8231 29.722C29.8546 29.6822 29.8875 29.6434 29.9217 29.6057C29.9558 29.568 29.9912 29.5315 30.0279 29.4961C30.0644 29.4608 30.1021 29.4267 30.1411 29.3938C30.1799 29.3609 30.2199 29.3293 30.2609 29.2991C30.3018 29.2689 30.3437 29.24 30.3866 29.2124C30.4296 29.185 30.4733 29.1589 30.518 29.1342C30.5626 29.1096 30.608 29.0865 30.6542 29.0649C30.7004 29.0432 30.7472 29.0232 30.7947 29.0046C30.8423 28.986 30.8904 28.9691 30.939 28.9537C30.9877 28.9383 31.0368 28.9245 31.0864 28.9123C31.136 28.9001 31.1859 28.8897 31.2361 28.8808C31.2864 28.8719 31.337 28.8647 31.3878 28.8591C31.4385 28.8535 31.4894 28.8496 31.5404 28.8474Z" fill="#201D00"/>
<path d="M31.1998 29.2065C31.2311 29.1995 31.2626 29.1932 31.2942 29.1876C31.3259 29.1821 31.3576 29.1774 31.3894 29.1733C31.4212 29.1693 31.4532 29.166 31.4853 29.1636C31.5172 29.1611 31.5493 29.1594 31.5814 29.1584C31.6135 29.1575 31.6455 29.1573 31.6776 29.1579C31.7097 29.1585 31.7418 29.1598 31.7739 29.1619C31.8059 29.1641 31.8379 29.167 31.8698 29.1706C31.9016 29.1743 31.9334 29.1787 31.9651 29.1839C31.9968 29.1891 32.0283 29.195 32.0597 29.2017C32.0911 29.2085 32.1223 29.2159 32.1533 29.224C32.1844 29.2323 32.2152 29.2412 32.2457 29.2509C32.2764 29.2605 32.3067 29.2709 32.3368 29.2821C32.3668 29.2933 32.3966 29.3052 32.4262 29.3177C32.4557 29.3303 32.4849 29.3435 32.5138 29.3575C32.5426 29.3714 32.571 29.3861 32.5992 29.4014C32.6273 29.4167 32.6551 29.4327 32.6825 29.4494C32.7099 29.4661 32.7368 29.4834 32.7633 29.5014C32.7899 29.5193 32.816 29.5378 32.8416 29.557C32.8672 29.5763 32.8923 29.5962 32.9169 29.6166C32.9416 29.637 32.9658 29.658 32.9894 29.6796C33.013 29.7011 33.0362 29.7232 33.0587 29.7459C33.0813 29.7686 33.1033 29.7918 33.1247 29.8155C33.1461 29.8393 33.1669 29.8636 33.1871 29.8883C33.2074 29.913 33.227 29.9382 33.246 29.9639C33.2651 29.9895 33.2834 30.0156 33.3012 30.0422C33.3189 30.0688 33.336 30.0958 33.3524 30.1232C33.3688 30.1506 33.3846 30.1783 33.3997 30.2065C33.4148 30.2346 33.4291 30.2631 33.4429 30.2919C33.4566 30.3207 33.4696 30.3499 33.4818 30.3793C33.4941 30.4087 33.5056 30.4385 33.5165 30.4686C33.5273 30.4985 33.5374 30.5287 33.5467 30.5592C33.556 30.5897 33.5647 30.6204 33.5725 30.6513C33.5804 30.6822 33.5875 30.7133 33.5938 30.7446C33.6002 30.7759 33.6058 30.8072 33.6106 30.8387C33.6154 30.8702 33.6194 30.9018 33.6227 30.9336C33.626 30.9652 33.6285 30.9969 33.6301 31.0288C33.6319 31.0606 33.6328 31.0924 33.633 31.1243C33.6332 31.1563 33.6326 31.1881 33.6313 31.2199C33.6298 31.2518 33.6277 31.2835 33.6248 31.3152C33.6219 31.347 33.6182 31.3786 33.6137 31.4103C33.6092 31.4418 33.604 31.4733 33.598 31.5046C33.592 31.5359 33.5852 31.567 33.5778 31.598C33.5702 31.629 33.5619 31.6598 33.5529 31.6904C33.5439 31.721 33.5341 31.7513 33.5237 31.7814C33.5132 31.8115 33.5019 31.8414 33.4899 31.871C33.478 31.9006 33.4654 31.9299 33.452 31.9588C33.4387 31.9878 33.4246 32.0164 33.4098 32.0447C33.395 32.073 33.3796 32.1009 33.3635 32.1285C33.3473 32.1561 33.3305 32.1832 33.3131 32.2099C33.2956 32.2367 33.2775 32.263 33.2589 32.2889C33.2401 32.3148 33.2207 32.3402 33.2007 32.3652C33.1808 32.3901 33.1602 32.4145 33.139 32.4385C33.1178 32.4625 33.0961 32.4859 33.0738 32.5089C33.0515 32.5318 33.0286 32.5542 33.0053 32.576C32.9819 32.5979 32.9579 32.6191 32.9335 32.6398C32.9091 32.6604 32.8842 32.6805 32.8587 32.7C32.8334 32.7195 32.8075 32.7383 32.7812 32.7566C32.7548 32.7748 32.7281 32.7925 32.7009 32.8095C32.6738 32.8265 32.6462 32.8427 32.6182 32.8583C32.5903 32.8739 32.5619 32.8889 32.5332 32.9032C32.5045 32.9175 32.4754 32.931 32.4461 32.9439C32.4167 32.9568 32.387 32.969 32.357 32.9804C32.3271 32.9919 32.2969 33.0027 32.2664 33.0127C32.2359 33.0226 32.2052 33.0319 32.1742 33.0405C32.1317 33.0522 32.0888 33.0625 32.0456 33.0714C32.0024 33.0803 31.9589 33.0878 31.9153 33.0938C31.8715 33.0999 31.8276 33.1045 31.7835 33.1076C31.7395 33.1108 31.6954 33.1124 31.6513 33.1126C31.6072 33.1129 31.5631 33.1117 31.519 33.1091C31.475 33.1064 31.431 33.1022 31.3872 33.0967C31.3434 33.0911 31.2999 33.0841 31.2566 33.0756C31.2132 33.0671 31.1702 33.0573 31.1276 33.046C31.085 33.0347 31.0427 33.0221 31.0009 33.008C30.9591 32.9939 30.9178 32.9784 30.8771 32.9616C30.8363 32.9449 30.7961 32.9268 30.7566 32.9073C30.717 32.8879 30.6781 32.8672 30.6399 32.8451C30.6018 32.8231 30.5644 32.7999 30.5278 32.7754C30.4912 32.751 30.4555 32.7253 30.4205 32.6985C30.3856 32.6716 30.3517 32.6436 30.3187 32.6146C30.2857 32.5855 30.2536 32.5554 30.2226 32.5242C30.1916 32.493 30.1617 32.4608 30.1328 32.4277C30.1039 32.3945 30.0762 32.3604 30.0497 32.3254C30.0231 32.2904 29.9977 32.2546 29.9735 32.2179C29.9494 32.1812 29.9265 32.1438 29.9049 32.1056C29.8831 32.0674 29.8628 32.0286 29.8438 31.9891C29.8246 31.9495 29.8069 31.9094 29.7906 31.8687C29.7742 31.828 29.7591 31.7869 29.7455 31.7452C29.7319 31.7035 29.7197 31.6614 29.7089 31.6188C29.6981 31.5764 29.6888 31.5336 29.6809 31.4904C29.6729 31.4474 29.6664 31.4041 29.6613 31.3605C29.6563 31.317 29.6528 31.2733 29.6507 31.2295C29.6486 31.1858 29.6479 31.142 29.6487 31.0982C29.6495 31.0544 29.6518 31.0107 29.6556 30.967C29.6593 30.9233 29.6646 30.8799 29.6713 30.8365C29.6779 30.7932 29.686 30.7501 29.6955 30.7073C29.7051 30.6645 29.7161 30.6221 29.7284 30.5801C29.7408 30.538 29.7546 30.4965 29.7698 30.4553C29.785 30.4141 29.8015 30.3735 29.8193 30.3335C29.8373 30.2934 29.8566 30.254 29.8771 30.2153C29.8976 30.1764 29.9193 30.1384 29.9424 30.101C29.9656 30.0637 29.9899 30.0271 30.0154 29.9914C30.0409 29.9556 30.0676 29.9207 30.0954 29.8867C30.1233 29.8528 30.1523 29.8198 30.1825 29.7877C30.2125 29.7556 30.2436 29.7246 30.2758 29.6945C30.3079 29.6645 30.3411 29.6356 30.3752 29.6077C30.4092 29.5799 30.4442 29.5532 30.48 29.5277C30.5159 29.5022 30.5526 29.4779 30.5902 29.4547C30.6277 29.4316 30.666 29.4098 30.7049 29.3892C30.7439 29.3686 30.7835 29.3493 30.8237 29.3313C30.864 29.3134 30.9049 29.2968 30.9462 29.2815C30.9876 29.2662 31.0294 29.2523 31.0717 29.2398C31.1141 29.2273 31.1568 29.2162 31.1998 29.2065Z" fill="#CEC5FF"/>
<path d="M24.0045 28.8638C24.0419 28.8607 24.0794 28.8585 24.117 28.8572C24.1546 28.8561 24.1922 28.8557 24.2297 28.8562C24.2672 28.8568 24.3048 28.8583 24.3423 28.8607C24.3799 28.863 24.4173 28.8663 24.4546 28.8705C24.492 28.8746 24.5292 28.8797 24.5663 28.8858C24.6033 28.8918 24.6403 28.8987 24.677 28.9064C24.7137 28.9142 24.7502 28.9229 24.7866 28.9324C24.823 28.9419 24.8591 28.9523 24.8948 28.9636C24.9307 28.9749 24.9662 28.9871 25.0014 29C25.0366 29.013 25.0715 29.0269 25.1061 29.0416C25.1406 29.0564 25.1748 29.0719 25.2085 29.0883C25.2423 29.1046 25.2757 29.1218 25.3086 29.1397C25.3415 29.1577 25.374 29.1764 25.406 29.1959C25.4381 29.2155 25.4696 29.2358 25.5006 29.2568C25.5315 29.2779 25.562 29.2997 25.592 29.3223C25.6219 29.3448 25.6513 29.368 25.6802 29.392C25.7089 29.4159 25.7371 29.4406 25.7647 29.4659C25.7923 29.4913 25.8192 29.5172 25.8455 29.5438C25.8719 29.5705 25.8975 29.5978 25.9225 29.6256C25.9475 29.6535 25.9718 29.682 25.9953 29.711C26.0189 29.7401 26.0418 29.7697 26.0638 29.7997C26.0859 29.8299 26.1073 29.8606 26.128 29.8918C26.1486 29.923 26.1685 29.9547 26.1875 29.9869C26.2065 30.019 26.2248 30.0515 26.2423 30.0845C26.2598 30.1176 26.2764 30.151 26.2922 30.1849C26.308 30.2187 26.323 30.2529 26.3371 30.2874C26.3513 30.322 26.3646 30.3569 26.377 30.3922C26.3895 30.4273 26.401 30.4628 26.4117 30.4986C26.4223 30.5344 26.4321 30.5704 26.441 30.6066C26.4499 30.6428 26.4579 30.6792 26.465 30.7159C26.4722 30.7525 26.4784 30.7893 26.4838 30.8262C26.489 30.8631 26.4934 30.9001 26.4969 30.9373C26.5005 30.9744 26.503 31.0117 26.5047 31.0489C26.5063 31.0862 26.5071 31.1234 26.507 31.1607C26.5068 31.198 26.5057 31.2354 26.5037 31.2726C26.5017 31.3099 26.4988 31.347 26.495 31.3841C26.4911 31.4212 26.4864 31.4582 26.4808 31.495C26.4752 31.5319 26.4687 31.5687 26.4612 31.6053C26.4538 31.6418 26.4454 31.6782 26.4362 31.7144C26.427 31.7506 26.4169 31.7865 26.4059 31.8222C26.3949 31.8577 26.3831 31.8931 26.3703 31.9282C26.3576 31.9634 26.344 31.9981 26.3295 32.0325C26.3151 32.067 26.2999 32.1011 26.2838 32.1347C26.2676 32.1685 26.2506 32.2018 26.233 32.2347C26.2152 32.2675 26.1966 32.2999 26.1773 32.3319C26.1579 32.3639 26.1378 32.3954 26.1169 32.4265C26.0961 32.4575 26.0744 32.4879 26.052 32.5179C26.0296 32.5479 26.0065 32.5773 25.9827 32.6061C25.9589 32.635 25.9343 32.6632 25.9091 32.6909C25.8839 32.7185 25.858 32.7455 25.8315 32.7719C25.8049 32.7983 25.7777 32.8241 25.7499 32.8491C25.7221 32.8742 25.6937 32.8986 25.6647 32.9224C25.6357 32.9461 25.6061 32.9691 25.5759 32.9914C25.5458 33.0137 25.5152 33.0352 25.484 33.0559C25.4528 33.0768 25.4211 33.0968 25.3889 33.116C25.3567 33.1353 25.324 33.1538 25.2909 33.1715C25.2578 33.1891 25.2243 33.206 25.1904 33.2222C25.1565 33.2382 25.1222 33.2534 25.0875 33.2677C25.0529 33.2822 25.0179 33.2958 24.9826 33.3085C24.9472 33.3212 24.9116 33.333 24.8756 33.344C24.8398 33.3549 24.8036 33.365 24.7672 33.3743C24.7308 33.3835 24.6942 33.3918 24.6574 33.3993C24.6206 33.4067 24.5836 33.4133 24.5464 33.419C24.5092 33.4247 24.472 33.4295 24.4346 33.4333C24.3841 33.4385 24.3334 33.4421 24.2827 33.444C24.232 33.4459 24.1812 33.4462 24.1304 33.4447C24.0797 33.4433 24.029 33.4403 23.9783 33.4355C23.9278 33.4308 23.8775 33.4244 23.8273 33.4165C23.7771 33.4084 23.7273 33.3987 23.6778 33.3875C23.6283 33.3762 23.5792 33.3633 23.5306 33.3488C23.4819 33.3343 23.4338 33.3182 23.3863 33.3005C23.3386 33.2829 23.2917 33.2637 23.2454 33.243C23.1991 33.2223 23.1535 33.2001 23.1086 33.1764C23.0638 33.1528 23.0199 33.1276 22.9767 33.1011C22.9335 33.0745 22.8912 33.0465 22.8499 33.0171C22.8086 32.9878 22.7683 32.9571 22.729 32.9252C22.6897 32.8932 22.6515 32.86 22.6145 32.8255C22.5774 32.791 22.5416 32.7554 22.5068 32.7185C22.4721 32.6817 22.4387 32.6438 22.4066 32.6048C22.3744 32.5658 22.3435 32.5258 22.314 32.4848C22.2844 32.4437 22.2563 32.4018 22.2296 32.359C22.2029 32.3161 22.1776 32.2723 22.1537 32.2278C22.1299 32.1833 22.1075 32.138 22.0866 32.092C22.0659 32.0461 22.0466 31.9995 22.0288 31.9523C22.011 31.9049 21.9949 31.8572 21.9803 31.8089C21.9658 31.7606 21.9528 31.7118 21.9414 31.6627C21.9301 31.6135 21.9204 31.5641 21.9124 31.5143C21.9043 31.4645 21.898 31.4146 21.8933 31.3644C21.8886 31.3141 21.8855 31.2638 21.884 31.2134C21.8827 31.163 21.883 31.1126 21.885 31.0622C21.8869 31.0118 21.8906 30.9615 21.8958 30.9115C21.9011 30.8613 21.9081 30.8114 21.9167 30.7617C21.9253 30.712 21.9356 30.6626 21.9474 30.6135C21.9593 30.5646 21.9728 30.516 21.9879 30.4679C22.0031 30.4198 22.0198 30.3721 22.038 30.325C22.0563 30.278 22.0761 30.2316 22.0975 30.1859C22.1189 30.1402 22.1417 30.0952 22.166 30.0509C22.1904 30.0067 22.2162 29.9632 22.2435 29.9207C22.2707 29.8781 22.2993 29.8364 22.3293 29.7958C22.3593 29.7551 22.3906 29.7154 22.4233 29.6767C22.4558 29.6381 22.4897 29.6006 22.5248 29.5642C22.5599 29.5277 22.5962 29.4925 22.6337 29.4585C22.6712 29.4244 22.7097 29.3915 22.7493 29.36C22.789 29.3285 22.8297 29.2983 22.8713 29.2695C22.913 29.2406 22.9555 29.2131 22.9989 29.187C23.0424 29.1609 23.0867 29.1363 23.1318 29.1131C23.1769 29.0899 23.2228 29.0682 23.2694 29.048C23.3158 29.0278 23.363 29.0092 23.4108 28.9921C23.4586 28.9749 23.5069 28.9594 23.5557 28.9455C23.6046 28.9316 23.6538 28.9192 23.7034 28.9084C23.7531 28.8978 23.803 28.8887 23.8531 28.8813C23.9034 28.8737 23.9539 28.8679 24.0045 28.8638Z" fill="#201D00"/>
<path d="M23.8696 29.192C23.902 29.1865 23.9343 29.182 23.9668 29.1782C23.9993 29.1743 24.0319 29.1713 24.0646 29.1691C24.0973 29.1668 24.13 29.1654 24.1627 29.1648C24.1954 29.1641 24.2281 29.1643 24.2608 29.1652C24.2936 29.1662 24.3263 29.1679 24.359 29.1704C24.3917 29.1729 24.4242 29.1762 24.4566 29.1803C24.4892 29.1844 24.5215 29.1893 24.5538 29.1949C24.586 29.2006 24.6181 29.2071 24.6501 29.2143C24.6819 29.2215 24.7136 29.2295 24.7452 29.2382C24.7767 29.247 24.808 29.2565 24.839 29.2667C24.8701 29.277 24.901 29.288 24.9315 29.2999C24.962 29.3116 24.9922 29.3241 25.0221 29.3373C25.052 29.3506 25.0816 29.3645 25.1108 29.3791C25.14 29.3938 25.1688 29.4092 25.1974 29.4252C25.2258 29.4413 25.2538 29.4581 25.2815 29.4755C25.3092 29.4929 25.3364 29.5109 25.3631 29.5296C25.3899 29.5484 25.4162 29.5678 25.442 29.5878C25.4678 29.6078 25.4931 29.6285 25.5179 29.6497C25.5426 29.6709 25.5668 29.6927 25.5906 29.7152C25.6143 29.7376 25.6374 29.7605 25.6601 29.784C25.6827 29.8075 25.7046 29.8316 25.726 29.8562C25.7474 29.8808 25.7682 29.9059 25.7883 29.9315C25.8085 29.9572 25.828 29.9832 25.847 30.0097C25.8658 30.0363 25.8841 30.0633 25.9017 30.0907C25.9192 30.1182 25.9361 30.146 25.9522 30.1743C25.9685 30.2025 25.984 30.2311 25.9987 30.2601C26.0135 30.2891 26.0275 30.3185 26.0409 30.3482C26.0542 30.3778 26.0669 30.4078 26.0787 30.4381C26.0906 30.4684 26.1017 30.4989 26.112 30.5297C26.1224 30.5606 26.132 30.5916 26.1409 30.623C26.1497 30.6543 26.1578 30.6858 26.1651 30.7175C26.1723 30.7491 26.1788 30.781 26.1845 30.813C26.1903 30.845 26.1952 30.8771 26.1994 30.9094C26.2035 30.9416 26.2068 30.9739 26.2094 31.0062C26.2119 31.0387 26.2137 31.0712 26.2146 31.1036C26.2156 31.1361 26.2158 31.1686 26.2151 31.2012C26.2145 31.2336 26.2131 31.2661 26.2108 31.2985C26.2086 31.3309 26.2056 31.3632 26.2017 31.3955C26.1979 31.4278 26.1933 31.46 26.1879 31.4921C26.1825 31.5241 26.1763 31.5561 26.1693 31.5878C26.1623 31.6195 26.1545 31.6511 26.1461 31.6825C26.1375 31.7139 26.1282 31.745 26.1181 31.7759C26.1081 31.8069 26.0973 31.8376 26.0857 31.868C26.0742 31.8983 26.0619 31.9284 26.0487 31.9583C26.0357 31.9881 26.0219 32.0175 26.0074 32.0467C25.9929 32.0758 25.9777 32.1046 25.9618 32.133C25.9459 32.1614 25.9293 32.1894 25.912 32.217C25.8947 32.2446 25.8767 32.2717 25.8581 32.2985C25.8395 32.3252 25.8203 32.3515 25.8004 32.3773C25.7804 32.4031 25.7599 32.4284 25.7387 32.4532C25.7175 32.478 25.6958 32.5023 25.6735 32.5261C25.6511 32.5497 25.6282 32.5729 25.6047 32.5956C25.5812 32.6183 25.5571 32.6403 25.5325 32.6618C25.5079 32.6833 25.4829 32.7041 25.4573 32.7243C25.4317 32.7446 25.4056 32.7642 25.379 32.7832C25.3524 32.8022 25.3254 32.8205 25.298 32.8382C25.2704 32.8559 25.2426 32.8729 25.2143 32.8893C25.186 32.9056 25.1572 32.9212 25.1281 32.9361C25.0991 32.9511 25.0696 32.9653 25.0399 32.9788C25.0101 32.9924 24.98 33.0052 24.9496 33.0172C24.9192 33.0293 24.8885 33.0406 24.8576 33.0512C24.8266 33.0617 24.7954 33.0715 24.7639 33.0806C24.7325 33.0896 24.7008 33.0979 24.669 33.1055C24.6371 33.113 24.6051 33.1197 24.5729 33.1257C24.5404 33.1318 24.5077 33.137 24.4748 33.1414C24.442 33.1459 24.4091 33.1496 24.3761 33.1523C24.343 33.1551 24.31 33.1572 24.2769 33.1585C24.2438 33.1596 24.2107 33.16 24.1775 33.1596C24.1444 33.1592 24.1114 33.1579 24.0783 33.1558C24.0452 33.1539 24.0122 33.151 23.9792 33.1473C23.9463 33.1437 23.9135 33.1393 23.8808 33.134C23.8481 33.1287 23.8156 33.1227 23.7831 33.1158C23.7508 33.109 23.7186 33.1013 23.6866 33.0928C23.6545 33.0844 23.6227 33.0752 23.5911 33.0652C23.5596 33.0552 23.5284 33.0444 23.4974 33.0329C23.4663 33.0213 23.4356 33.0091 23.4051 32.996C23.3747 32.983 23.3447 32.9693 23.315 32.9548C23.2852 32.9402 23.2558 32.9249 23.2269 32.909C23.198 32.8931 23.1694 32.8764 23.1413 32.8591C23.1131 32.8417 23.0854 32.8236 23.0581 32.8049C23.0309 32.7863 23.0041 32.7669 22.9779 32.7469C22.9516 32.7269 22.9258 32.7062 22.9005 32.6849C22.8753 32.6636 22.8506 32.6418 22.8264 32.6192C22.8022 32.5967 22.7786 32.5737 22.7556 32.55C22.7325 32.5263 22.7102 32.5021 22.6884 32.4774C22.6666 32.4526 22.6454 32.4274 22.6248 32.4017C22.6043 32.3758 22.5844 32.3495 22.5651 32.3228C22.5458 32.296 22.5273 32.2688 22.5094 32.2411C22.4914 32.2134 22.4743 32.1853 22.4578 32.1568C22.4413 32.1283 22.4256 32.0994 22.4105 32.0701C22.3954 32.0408 22.3811 32.0112 22.3675 31.9812C22.3539 31.9511 22.341 31.9208 22.329 31.8902C22.3169 31.8595 22.3056 31.8286 22.295 31.7975C22.2845 31.7663 22.2748 31.7349 22.2658 31.7032C22.2568 31.6716 22.2486 31.6398 22.2412 31.6078C22.2339 31.5757 22.2273 31.5434 22.2215 31.5111C22.2157 31.4787 22.2107 31.4462 22.2065 31.4135C22.2023 31.381 22.199 31.3483 22.1965 31.3154C22.194 31.2827 22.1922 31.2499 22.1913 31.2169C22.1904 31.1841 22.1903 31.1512 22.1909 31.1183C22.1917 31.0855 22.1933 31.0526 22.1956 31.0198C22.198 30.987 22.2011 30.9542 22.2052 30.9216C22.2092 30.889 22.214 30.8565 22.2196 30.8241C22.2252 30.7916 22.2316 30.7594 22.2387 30.7273C22.246 30.6952 22.254 30.6633 22.2628 30.6316C22.2715 30.5999 22.2811 30.5685 22.2915 30.5372C22.3019 30.506 22.313 30.475 22.3249 30.4443C22.3368 30.4136 22.3495 30.3832 22.3629 30.3531C22.3763 30.3231 22.3904 30.2934 22.4053 30.2639C22.4202 30.2346 22.4358 30.2057 22.4522 30.1771C22.4686 30.1484 22.4856 30.1202 22.5032 30.0925C22.521 30.0647 22.5394 30.0374 22.5585 30.0105C22.5776 29.9837 22.5974 29.9573 22.6178 29.9314C22.6382 29.9055 22.6593 29.8801 22.681 29.8552C22.7026 29.8303 22.7249 29.806 22.7478 29.7822C22.7706 29.7584 22.7941 29.7352 22.8182 29.7125C22.8422 29.69 22.8668 29.6679 22.892 29.6465C22.9171 29.6251 22.9427 29.6043 22.9688 29.5841C22.995 29.5639 23.0217 29.5444 23.0488 29.5255C23.076 29.5067 23.1036 29.4886 23.1316 29.4711C23.1596 29.4536 23.1881 29.4367 23.217 29.4206C23.2459 29.4045 23.2751 29.3891 23.3048 29.3743C23.3344 29.3597 23.3644 29.3458 23.3947 29.3326C23.4251 29.3194 23.4558 29.3069 23.4867 29.2952C23.5177 29.2835 23.5489 29.2725 23.5804 29.2623C23.6119 29.2522 23.6436 29.2428 23.6756 29.2342C23.7076 29.2255 23.7397 29.2177 23.7721 29.2107C23.8044 29.2036 23.8369 29.1974 23.8696 29.192Z" fill="#573BFF"/>
<path d="M38.6207 28.9178C38.6577 28.9125 38.6949 28.908 38.7322 28.9044C38.7694 28.9009 38.8067 28.8982 38.8441 28.8965C38.8814 28.8948 38.9188 28.894 38.9563 28.8941C38.9937 28.8942 39.0311 28.8952 39.0685 28.897C39.1059 28.899 39.1432 28.9018 39.1805 28.9056C39.2177 28.9094 39.2548 28.914 39.2918 28.9196C39.3288 28.9252 39.3656 28.9316 39.4023 28.939C39.439 28.9463 39.4755 28.9546 39.5117 28.9637C39.5481 28.9729 39.5841 28.9829 39.6199 28.9938C39.6556 29.0047 39.6911 29.0165 39.7263 29.0292C39.7615 29.0418 39.7964 29.0554 39.831 29.0698C39.8655 29.0841 39.8996 29.0992 39.9334 29.1152C39.9672 29.1313 40.0005 29.1481 40.0334 29.1658C40.0664 29.1834 40.0989 29.2018 40.1309 29.221C40.1629 29.2403 40.1945 29.2604 40.2255 29.2811C40.2565 29.3019 40.287 29.3234 40.317 29.3456C40.3469 29.3679 40.3763 29.3909 40.4052 29.4146C40.434 29.4383 40.4622 29.4627 40.4897 29.4878C40.5174 29.5129 40.5444 29.5387 40.5707 29.5651C40.597 29.5915 40.6227 29.6185 40.6477 29.6462C40.6726 29.6738 40.697 29.702 40.7206 29.7309C40.7442 29.7597 40.7671 29.7891 40.7892 29.8191C40.8113 29.849 40.8327 29.8795 40.8533 29.9105C40.8739 29.9415 40.8938 29.973 40.9128 30.0049C40.9319 30.0369 40.9502 30.0694 40.9676 30.1022C40.9851 30.1351 41.0017 30.1685 41.0175 30.2021C41.0333 30.2358 41.0483 30.2698 41.0624 30.3042C41.0765 30.3387 41.0898 30.3734 41.1022 30.4084C41.1145 30.4435 41.126 30.4788 41.1367 30.5144C41.1474 30.55 41.1571 30.5859 41.1659 30.6221C41.1748 30.6581 41.1828 30.6944 41.1898 30.731C41.1968 30.7674 41.203 30.804 41.2083 30.8408C41.2135 30.8776 41.2179 30.9145 41.2213 30.9515C41.2247 30.9885 41.2272 31.0255 41.2287 31.0627C41.2303 31.0998 41.2309 31.1369 41.2306 31.1741C41.2304 31.2112 41.2292 31.2484 41.2271 31.2854C41.225 31.3225 41.222 31.3595 41.2181 31.3965C41.214 31.4335 41.2091 31.4703 41.2034 31.507C41.1977 31.5437 41.191 31.5803 41.1834 31.6167C41.1758 31.653 41.1673 31.6892 41.1579 31.7252C41.1485 31.7611 41.1382 31.7968 41.127 31.8323C41.116 31.8678 41.104 31.903 41.091 31.9379C41.0781 31.9727 41.0643 32.0073 41.0497 32.0415C41.0351 32.0757 41.0196 32.1095 41.0034 32.143C40.9871 32.1764 40.97 32.2095 40.9522 32.2421C40.9342 32.2748 40.9155 32.3069 40.8959 32.3385C40.8764 32.3702 40.8561 32.4014 40.835 32.4321C40.8139 32.4629 40.7921 32.4931 40.7695 32.5227C40.7469 32.5524 40.7236 32.5814 40.6997 32.6099C40.6757 32.6384 40.651 32.6663 40.6256 32.6936C40.6002 32.7209 40.5741 32.7476 40.5474 32.7736C40.5207 32.7996 40.4933 32.825 40.4654 32.8497C40.4374 32.8744 40.4088 32.8984 40.3796 32.9217C40.3505 32.9449 40.3208 32.9674 40.2905 32.9893C40.2602 33.0111 40.2294 33.0322 40.1981 33.0526C40.1667 33.0729 40.1349 33.0925 40.1026 33.1113C40.0703 33.1301 40.0376 33.148 40.0044 33.1652C39.9712 33.1823 39.9376 33.1987 39.9036 33.2142C39.8696 33.2298 39.8352 33.2445 39.8005 33.2583C39.7657 33.2722 39.7307 33.2852 39.6954 33.2974C39.6599 33.3095 39.6243 33.3208 39.5883 33.3312C39.5524 33.3416 39.5163 33.3511 39.4798 33.3596C39.4434 33.3683 39.4068 33.376 39.37 33.3829C39.3332 33.3897 39.2963 33.3956 39.2592 33.4007C39.2223 33.4057 39.1853 33.4099 39.1483 33.4131C39.1112 33.4163 39.0741 33.4186 39.0369 33.4199C38.9997 33.4214 38.9625 33.4219 38.9253 33.4215C38.8881 33.421 38.8509 33.4197 38.8138 33.4176C38.7766 33.4153 38.7395 33.4122 38.7026 33.4082C38.6655 33.4042 38.6286 33.3993 38.5919 33.3935C38.5551 33.3876 38.5185 33.3809 38.4821 33.3734C38.4457 33.3658 38.4095 33.3573 38.3734 33.348C38.3375 33.3386 38.3017 33.3284 38.2661 33.3173C38.2307 33.3063 38.1954 33.2944 38.1605 33.2816C38.1257 33.2688 38.0911 33.2552 38.0569 33.2407C38.0226 33.2262 37.9887 33.2109 37.9553 33.1948C37.9218 33.1787 37.8887 33.1617 37.8561 33.144C37.8234 33.1264 37.7912 33.1079 37.7594 33.0886C37.7277 33.0693 37.6964 33.0492 37.6657 33.0284C37.6349 33.0076 37.6047 32.9861 37.575 32.9638C37.5454 32.9415 37.5162 32.9185 37.4876 32.8949C37.4591 32.8712 37.4312 32.8468 37.4038 32.8218C37.3764 32.7967 37.3497 32.771 37.3236 32.7447C37.2975 32.7183 37.2721 32.6913 37.2474 32.6637C37.2226 32.6362 37.1985 32.6081 37.1751 32.5793C37.1518 32.5505 37.1292 32.5212 37.1073 32.4914C37.0853 32.4615 37.0641 32.4311 37.0437 32.4003C37.0232 32.3694 37.0036 32.3381 36.9848 32.3062C36.9658 32.2744 36.9477 32.2421 36.9305 32.2094C36.9132 32.1767 36.8968 32.1436 36.8811 32.11C36.8654 32.0765 36.8506 32.0427 36.8367 32.0084C36.8227 31.9742 36.8095 31.9397 36.7972 31.9048C36.7849 31.8699 36.7735 31.8348 36.763 31.7994C36.7524 31.7639 36.7428 31.7282 36.734 31.6923C36.7252 31.6564 36.7173 31.6203 36.7103 31.5841C36.7032 31.5478 36.6971 31.5114 36.692 31.4748C36.6868 31.4382 36.6825 31.4015 36.6791 31.3648C36.6757 31.328 36.6732 31.2911 36.6716 31.2541C36.67 31.2172 36.6693 31.1803 36.6696 31.1434C36.6698 31.1065 36.6709 31.0695 36.673 31.0326C36.6751 30.9958 36.678 30.959 36.6819 30.9223C36.6857 30.8855 36.6905 30.8488 36.6962 30.8123C36.7018 30.7758 36.7084 30.7394 36.7159 30.7033C36.7234 30.6671 36.7318 30.6312 36.741 30.5954C36.7503 30.5595 36.7604 30.524 36.7713 30.4888C36.7823 30.4535 36.7942 30.4184 36.807 30.3837C36.8197 30.349 36.8333 30.3146 36.8477 30.2806C36.8621 30.2465 36.8774 30.2128 36.8935 30.1795C36.9096 30.1462 36.9265 30.1132 36.9442 30.0808C36.9618 30.0483 36.9803 30.0163 36.9997 29.9847C37.0189 29.9531 37.039 29.922 37.0598 29.8913C37.0806 29.8607 37.1022 29.8306 37.1245 29.8011C37.1469 29.7715 37.1699 29.7424 37.1936 29.7139C37.2173 29.6856 37.2417 29.6577 37.2668 29.6304C37.2919 29.6032 37.3177 29.5765 37.3441 29.5505C37.3706 29.5245 37.3976 29.4992 37.4252 29.4745C37.4529 29.4498 37.4812 29.4257 37.5101 29.4023C37.539 29.379 37.5683 29.3565 37.5983 29.3346C37.6283 29.3127 37.6588 29.2915 37.6899 29.271C37.7208 29.2507 37.7523 29.2311 37.7844 29.2122C37.8164 29.1933 37.8488 29.1752 37.8816 29.1579C37.9145 29.1406 37.9478 29.1241 37.9815 29.1084C38.0152 29.0927 38.0492 29.0778 38.0837 29.0638C38.1181 29.0497 38.1529 29.0365 38.188 29.0242C38.223 29.0118 38.2584 29.0004 38.2941 28.9898C38.3297 28.9791 38.3655 28.9694 38.4017 28.9605C38.4378 28.9516 38.4742 28.9436 38.5107 28.9365C38.5472 28.9294 38.5839 28.9231 38.6207 28.9178Z" fill="#201D00"/>
<path d="M38.4531 29.262C38.4948 29.2508 38.5368 29.2411 38.5792 29.2329C38.6217 29.2245 38.6643 29.2176 38.7071 29.212C38.75 29.2064 38.793 29.2023 38.8361 29.1995C38.8792 29.1969 38.9223 29.1956 38.9655 29.1956C39.0088 29.1957 39.052 29.1973 39.0952 29.2003C39.1383 29.2031 39.1812 29.2075 39.2241 29.2132C39.2668 29.219 39.3093 29.2261 39.3517 29.2347C39.3941 29.2432 39.4361 29.2531 39.4778 29.2644C39.5195 29.2757 39.5608 29.2884 39.6017 29.3024C39.6425 29.3164 39.6828 29.3316 39.7226 29.3483C39.7625 29.365 39.8017 29.383 39.8404 29.4022C39.879 29.4214 39.9169 29.4418 39.9542 29.4635C39.9915 29.4852 40.0281 29.5081 40.0638 29.5322C40.0996 29.5563 40.1344 29.5815 40.1684 29.6079C40.2025 29.6343 40.2357 29.6618 40.268 29.6903C40.3002 29.7188 40.3315 29.7484 40.3617 29.779C40.392 29.8097 40.4213 29.8412 40.4495 29.8737C40.4776 29.9062 40.5047 29.9396 40.5307 29.9739C40.5566 30.0083 40.5814 30.0434 40.605 30.0793C40.6286 30.1152 40.651 30.1519 40.6723 30.1893C40.6934 30.2266 40.7133 30.2647 40.732 30.3033C40.7506 30.3421 40.768 30.3814 40.784 30.4212C40.8001 30.461 40.8148 30.5013 40.8281 30.5421C40.8415 30.5829 40.8535 30.6241 40.8641 30.6657C40.8747 30.7072 40.8839 30.7491 40.8918 30.7913C40.8997 30.8335 40.9061 30.8759 40.9111 30.9185C40.9161 30.9611 40.9197 31.0038 40.9219 31.0467C40.9241 31.0895 40.9248 31.1323 40.924 31.1752C40.9233 31.2181 40.9213 31.2609 40.9178 31.3037C40.9142 31.3464 40.9093 31.389 40.9029 31.4315C40.8966 31.474 40.8888 31.5161 40.8796 31.558C40.8704 31.5999 40.8599 31.6415 40.848 31.6827C40.8361 31.7239 40.8228 31.7647 40.8081 31.8051C40.7934 31.8454 40.7775 31.8853 40.7602 31.9246C40.7429 31.9639 40.7243 32.0026 40.7045 32.0406C40.6846 32.0787 40.6635 32.1162 40.6411 32.1529C40.6187 32.1896 40.5952 32.2255 40.5704 32.2607C40.5457 32.2959 40.5198 32.3302 40.4927 32.3637C40.4657 32.3971 40.4375 32.4297 40.4083 32.4613C40.3792 32.4929 40.3489 32.5235 40.3177 32.5532C40.2865 32.5828 40.2543 32.6114 40.2212 32.6389C40.188 32.6665 40.154 32.6929 40.1191 32.7181C40.0843 32.7435 40.0486 32.7676 40.012 32.7905C39.9755 32.8135 39.9383 32.8352 39.9004 32.8558C39.8625 32.8763 39.8239 32.8955 39.7847 32.9135C39.7454 32.9316 39.7057 32.9483 39.6653 32.9636C39.6249 32.979 39.5841 32.9931 39.5428 33.0058C39.5015 33.0185 39.4599 33.0298 39.4179 33.0398C39.387 33.0472 39.3558 33.0538 39.3245 33.0597C39.2932 33.0655 39.2617 33.0706 39.2302 33.075C39.1986 33.0793 39.1669 33.0829 39.1352 33.0857C39.1035 33.0885 39.0717 33.0905 39.0399 33.0918C39.008 33.093 38.9762 33.0936 38.9443 33.0934C38.9124 33.0931 38.8806 33.092 38.8488 33.0902C38.8171 33.0884 38.7853 33.0858 38.7537 33.0824C38.722 33.0791 38.6904 33.075 38.6589 33.0702C38.6274 33.0653 38.5961 33.0596 38.5648 33.0533C38.5336 33.0469 38.5026 33.0398 38.4718 33.0319C38.4409 33.024 38.4103 33.0154 38.3798 33.0061C38.3494 32.9967 38.3192 32.9866 38.2892 32.9758C38.2593 32.9649 38.2297 32.9534 38.2003 32.9413C38.171 32.929 38.1419 32.916 38.1131 32.9023C38.0844 32.8887 38.056 32.8743 38.028 32.8594C37.9999 32.8443 37.9723 32.8286 37.9451 32.8123C37.9178 32.7959 37.891 32.7788 37.8646 32.7612C37.8381 32.7436 37.8121 32.7253 37.7866 32.7064C37.761 32.6874 37.736 32.6679 37.7113 32.6478C37.6868 32.6277 37.6628 32.607 37.6392 32.5856C37.6156 32.5644 37.5926 32.5426 37.5701 32.5202C37.5476 32.4977 37.5257 32.4748 37.5044 32.4514C37.483 32.4279 37.4622 32.404 37.442 32.3795C37.4218 32.355 37.4023 32.33 37.3834 32.3047C37.3643 32.2793 37.346 32.2534 37.3284 32.2272C37.3106 32.2009 37.2936 32.1741 37.2771 32.147C37.2608 32.1199 37.2451 32.0924 37.2301 32.0645C37.215 32.0366 37.2007 32.0084 37.1869 31.9799C37.1733 31.9513 37.1604 31.9224 37.1481 31.8932C37.1359 31.864 37.1244 31.8345 37.1136 31.8048C37.1028 31.775 37.0928 31.745 37.0834 31.7147C37.0741 31.6845 37.0655 31.654 37.0577 31.6234C37.0498 31.5928 37.0427 31.562 37.0364 31.531C37.0301 31.5 37.0246 31.4689 37.0198 31.4376C37.015 31.4063 37.0109 31.375 37.0077 31.3435C37.0045 31.312 37.002 31.2804 37.0002 31.2489C36.9986 31.2174 36.9977 31.1858 36.9975 31.1541C36.9974 31.1225 36.998 31.0909 36.9994 31.0592C37.0008 31.0277 37.003 30.9962 37.0059 30.9646C37.0088 30.9332 37.0125 30.9018 37.0169 30.8704C37.0214 30.8392 37.0267 30.808 37.0328 30.7769C37.0387 30.7458 37.0455 30.715 37.053 30.6842C37.0606 30.6535 37.0689 30.623 37.0779 30.5927C37.0869 30.5624 37.0966 30.5322 37.1071 30.5024C37.1176 30.4725 37.1289 30.4429 37.1409 30.4136C37.1528 30.3843 37.1654 30.3553 37.1788 30.3266C37.1921 30.2979 37.2062 30.2696 37.221 30.2415C37.2358 30.2135 37.2512 30.1859 37.2673 30.1586C37.2834 30.1313 37.3002 30.1044 37.3177 30.078C37.335 30.0515 37.3531 30.0255 37.3719 29.9998C37.3906 29.9742 37.4099 29.9491 37.4298 29.9245C37.4498 29.8998 37.4703 29.8756 37.4915 29.8519C37.5126 29.8283 37.5343 29.8052 37.5566 29.7825C37.5788 29.7599 37.6016 29.7378 37.6249 29.7163C37.6483 29.6948 37.6721 29.6739 37.6966 29.6535C37.721 29.6331 37.7458 29.6134 37.7712 29.5942C37.7965 29.575 37.8223 29.5565 37.8486 29.5387C37.8748 29.5207 37.9015 29.5034 37.9286 29.4868C37.9557 29.4702 37.9831 29.4542 38.011 29.4389C38.0389 29.4236 38.0671 29.409 38.0958 29.3951C38.1244 29.3811 38.1533 29.3678 38.1825 29.3553C38.2118 29.3428 38.2413 29.3309 38.2711 29.3198C38.301 29.3088 38.331 29.2984 38.3613 29.2887C38.3917 29.2791 38.4223 29.2701 38.4531 29.262Z" fill="white"/>
<path d="M120.062 31.4278C121.403 32.1365 122.492 33.0233 123.276 34.3358C123.822 35.2501 124.067 36.2193 124.114 37.277C124.2 39.1705 124.152 41.0868 124.161 42.9833L124.176 54.419L124.164 88.1771L124.156 105.239L124.159 109.874C124.159 111.224 124.3 112.767 123.95 114.075C123.927 114.157 123.902 114.239 123.875 114.32C123.849 114.401 123.82 114.482 123.789 114.562C123.758 114.641 123.725 114.72 123.691 114.798C123.656 114.877 123.619 114.954 123.581 115.03C123.542 115.106 123.502 115.182 123.459 115.256C123.417 115.331 123.373 115.404 123.327 115.476C123.281 115.548 123.233 115.619 123.184 115.689C123.134 115.759 123.083 115.828 123.03 115.895C122.977 115.963 122.923 116.029 122.867 116.093C122.811 116.158 122.753 116.221 122.693 116.283C122.634 116.345 122.573 116.406 122.511 116.464C122.449 116.523 122.385 116.581 122.32 116.637C122.255 116.692 122.188 116.746 122.12 116.799C122.053 116.852 121.984 116.902 121.913 116.952C121.843 117.001 121.771 117.048 121.698 117.094C121.626 117.139 121.552 117.183 121.477 117.225C120.589 117.733 119.661 117.871 118.651 117.903C115.719 117.995 112.775 117.925 109.842 117.924L95.742 117.939L53.0903 117.898L33.9929 117.881L29.3496 117.879C27.8888 117.88 26.2356 118.02 24.8169 117.649C24.4369 117.537 24.065 117.428 23.7062 117.258C22.0525 116.477 21.1796 115.072 20.5782 113.42C20.9345 113.464 21.3021 113.465 21.661 113.469C30.1123 113.564 38.5745 113.464 47.0265 113.441L83.0369 113.451L104.958 113.505L111.418 113.525C112.695 113.53 114.013 113.604 115.284 113.484C115.357 113.477 115.43 113.468 115.502 113.458C115.575 113.448 115.647 113.436 115.719 113.423C115.791 113.41 115.863 113.395 115.934 113.379C116.006 113.362 116.077 113.345 116.147 113.325C116.218 113.306 116.288 113.286 116.358 113.263C116.428 113.241 116.497 113.218 116.566 113.192C116.635 113.167 116.703 113.141 116.77 113.113C116.838 113.085 116.905 113.056 116.971 113.025C117.038 112.994 117.104 112.962 117.169 112.928C117.234 112.895 117.298 112.86 117.361 112.824C117.425 112.788 117.488 112.75 117.55 112.711C117.612 112.672 117.673 112.632 117.733 112.591C117.793 112.549 117.852 112.507 117.911 112.463C117.969 112.419 118.027 112.374 118.083 112.328C118.139 112.281 118.195 112.234 118.249 112.185C118.304 112.136 118.357 112.087 118.41 112.036C118.465 111.981 118.52 111.925 118.573 111.868C118.626 111.811 118.678 111.752 118.729 111.693C118.78 111.634 118.829 111.574 118.878 111.512C118.926 111.451 118.973 111.389 119.019 111.326C119.064 111.262 119.109 111.198 119.152 111.133C119.195 111.068 119.237 111.002 119.277 110.936C119.317 110.869 119.356 110.801 119.394 110.733C119.431 110.665 119.467 110.596 119.502 110.526C119.537 110.456 119.57 110.386 119.602 110.314C119.633 110.243 119.663 110.171 119.692 110.099C119.721 110.027 119.748 109.954 119.774 109.88C119.8 109.807 119.824 109.733 119.847 109.658C119.869 109.584 119.89 109.509 119.91 109.433C119.93 109.358 119.948 109.282 119.964 109.206C119.98 109.13 119.995 109.054 120.008 108.977C120.022 108.9 120.033 108.823 120.043 108.746C120.151 107.848 120.103 106.915 120.101 106.01L120.094 101.447L120.093 85.9307L120.062 31.4278Z" fill="#7B63DC"/>
<rect x="3" y="62" width="134" height="22.0833" rx="11.0417" fill="white"/>
<rect x="3.2" y="62.2" width="133.6" height="21.6833" rx="10.8417" stroke="#5C24C6" stroke-opacity="0.5" stroke-width="0.4"/>
<path d="M19.5113 66.0633C19.8204 66.0264 20.173 66.063 20.4745 66.1282C21.2862 66.3036 22.0543 66.8151 22.4968 67.4819C22.5112 67.5035 22.5253 67.5252 22.539 67.5471C22.5528 67.569 22.5663 67.591 22.5795 67.6132C22.5927 67.6354 22.6056 67.6577 22.6183 67.6802C22.6309 67.7027 22.6432 67.7253 22.6552 67.7481C22.6673 67.7709 22.679 67.7938 22.6904 67.8169C22.7018 67.8399 22.7129 67.8631 22.7238 67.8864C22.7346 67.9097 22.7451 67.9332 22.7553 67.9567C22.7655 67.9803 22.7754 68.004 22.7849 68.0278C22.7945 68.0515 22.8038 68.0754 22.8127 68.0994C22.8217 68.1234 22.8303 68.1475 22.8387 68.1717C22.847 68.1959 22.855 68.2202 22.8627 68.2446C22.8703 68.269 22.8777 68.2935 22.8847 68.3181C22.8917 68.3426 22.8985 68.3673 22.9049 68.392C22.9113 68.4167 22.9173 68.4415 22.9231 68.4663C22.9288 68.4912 22.9342 68.5161 22.9393 68.5411C22.9444 68.5661 22.9491 68.5911 22.9536 68.6162C22.958 68.6413 22.9621 68.6664 22.9658 68.6916C22.9696 68.7168 22.973 68.742 22.9761 68.7673C22.9792 68.7926 22.982 68.8179 22.9845 68.8432C22.9869 68.8685 22.989 68.8939 22.9908 68.9193C22.9926 68.9446 22.994 68.97 22.9951 68.9955C22.9962 69.0209 22.997 69.0463 22.9974 69.0718C22.9979 69.0972 22.998 69.1226 22.9977 69.148C22.9975 69.1735 22.997 69.1989 22.9961 69.2243C22.9952 69.2498 22.9939 69.2752 22.9924 69.3006C22.9908 69.326 22.9889 69.3513 22.9867 69.3767C22.9845 69.402 22.9819 69.4273 22.979 69.4526C22.9761 69.4779 22.9729 69.5032 22.9693 69.5284C22.9658 69.5536 22.9619 69.5788 22.9577 69.6039C22.9534 69.629 22.9489 69.6541 22.944 69.6791C22.9391 69.7042 22.9339 69.7291 22.9284 69.754C22.9229 69.7789 22.917 69.8037 22.9108 69.8285C22.8201 70.1913 22.6761 70.5365 22.4491 70.8431C22.254 71.1066 22.0165 71.3209 21.7803 71.5502L20.6728 72.6061L19.8709 73.3722C19.6625 73.5739 19.4585 73.7913 19.2232 73.9654C18.9939 74.1349 18.7364 74.229 18.4945 74.3728L18.4813 74.3808C18.4415 74.5436 18.4176 74.7092 18.3723 74.8713C18.2722 75.2299 18.0787 75.6089 17.8386 75.904C17.6117 76.183 17.3436 76.4132 17.0791 76.6586L16.1194 77.555L15.0244 78.584C14.6907 78.8976 14.3554 79.2337 13.9627 79.483C13.5043 79.774 13.035 79.9481 12.4869 80.0173C12.1156 80.063 11.7226 80.0193 11.3659 79.9152C10.5328 79.6721 9.78583 79.1306 9.38253 78.3963C8.97596 77.6559 8.88614 76.8495 9.15734 76.0551C9.18754 75.9691 9.22156 75.8845 9.2594 75.8012C9.29723 75.7179 9.33878 75.6363 9.38403 75.5564C9.42926 75.4765 9.47801 75.3985 9.53028 75.3225C9.58258 75.2464 9.63821 75.1726 9.69717 75.101C9.87939 74.8806 10.0969 74.6847 10.3061 74.487L11.271 73.5875L12.2815 72.6448C12.5025 72.4386 12.7177 72.2262 12.9537 72.0349C13.144 71.8805 13.3414 71.7414 13.5656 71.6339C13.6812 71.0527 13.8626 70.5731 14.2687 70.1135C14.5084 69.8423 14.7907 69.6033 15.0575 69.3558L16.2264 68.2602L17.3385 67.2001C17.596 66.9574 17.853 66.6931 18.1566 66.501C18.5551 66.2488 19.0354 66.1043 19.5113 66.0633Z" fill="#201D00"/>
<path d="M15.3982 71.0195C16.1698 71.0407 16.9168 71.3999 17.4627 71.9012C17.4815 71.9186 17.5 71.9362 17.5183 71.954C17.5365 71.9718 17.5546 71.9898 17.5724 72.0081C17.5902 72.0263 17.6077 72.0447 17.625 72.0634C17.6423 72.082 17.6594 72.1008 17.6762 72.1199C17.693 72.1389 17.7096 72.1581 17.7259 72.1776C17.7422 72.197 17.7583 72.2166 17.7741 72.2364C17.7899 72.2562 17.8054 72.2762 17.8207 72.2963C17.8359 72.3165 17.8509 72.3368 17.8657 72.3573C17.8804 72.3778 17.8948 72.3985 17.909 72.4194C17.9232 72.4402 17.9371 72.4612 17.9508 72.4824C17.9644 72.5035 17.9778 72.5249 17.9908 72.5464C18.0039 72.5678 18.0167 72.5895 18.0292 72.6113C18.0417 72.633 18.0539 72.6549 18.0658 72.677C18.0778 72.6991 18.0894 72.7213 18.1007 72.7436C18.1121 72.7659 18.1231 72.7884 18.1339 72.811C18.1446 72.8336 18.1551 72.8563 18.1652 72.8792C18.1754 72.902 18.1852 72.925 18.1947 72.948C18.2043 72.9711 18.2135 72.9943 18.2225 73.0176C18.2314 73.0408 18.24 73.0642 18.2484 73.0877C18.2567 73.1112 18.2647 73.1348 18.2724 73.1584C18.2801 73.1821 18.2875 73.2059 18.2945 73.2297C18.3016 73.2535 18.3083 73.2775 18.3148 73.3015C18.3212 73.3255 18.3273 73.3495 18.3331 73.3737C18.339 73.3978 18.3445 73.422 18.3496 73.4463C18.3548 73.4706 18.3596 73.4949 18.3642 73.5193C18.3687 73.5437 18.3729 73.5681 18.3768 73.5926C18.3807 73.6171 18.3842 73.6416 18.3875 73.6662C18.3907 73.6907 18.3936 73.7153 18.3962 73.7399C18.3988 73.7646 18.4011 73.7892 18.403 73.8139C18.405 73.8386 18.4066 73.8633 18.4079 73.8881C18.4092 73.9128 18.4101 73.9375 18.4108 73.9623C18.4114 73.987 18.4117 74.0118 18.4117 74.0365C18.4175 74.874 18.0709 75.6422 17.4468 76.236C16.9468 76.7117 16.4312 77.1732 15.9296 77.6473L15.0078 78.5113C14.6031 78.8903 14.2123 79.2835 13.7168 79.5598C13.2486 79.8209 12.7312 79.9613 12.1857 79.9615C11.3708 79.9619 10.5543 79.599 9.98385 79.0602C9.96565 79.0428 9.94767 79.0253 9.92993 79.0075C9.91218 78.9897 9.89468 78.9717 9.8774 78.9535C9.86011 78.9354 9.84306 78.917 9.82628 78.8984C9.80947 78.8798 9.79292 78.8611 9.77662 78.8421C9.7603 78.8232 9.74424 78.804 9.72843 78.7847C9.71262 78.7653 9.69707 78.7458 9.68177 78.7262C9.66647 78.7065 9.65143 78.6866 9.63664 78.6666C9.62185 78.6465 9.60733 78.6263 9.59307 78.606C9.57881 78.5856 9.56483 78.5651 9.55113 78.5444C9.5374 78.5237 9.52395 78.5028 9.51078 78.4818C9.4976 78.4608 9.4847 78.4396 9.47208 78.4183C9.45946 78.397 9.44712 78.3756 9.43505 78.354C9.42298 78.3324 9.4112 78.3107 9.3997 78.2888C9.3882 78.267 9.377 78.245 9.36607 78.2228C9.35515 78.2007 9.34452 78.1785 9.33417 78.1561C9.32382 78.1338 9.31377 78.1113 9.30401 78.0887C9.29426 78.0661 9.2848 78.0434 9.27565 78.0206C9.26647 77.9977 9.25759 77.9748 9.24903 77.9518C9.24047 77.9288 9.2322 77.9057 9.22423 77.8825C9.21628 77.8593 9.20863 77.836 9.20128 77.8125C9.19393 77.7892 9.18687 77.7657 9.18011 77.7421C9.17337 77.7186 9.16694 77.695 9.16082 77.6713C9.15468 77.6476 9.14886 77.6238 9.14335 77.6C9.13785 77.5761 9.13266 77.5522 9.12779 77.5283C9.1229 77.5043 9.11833 77.4803 9.11408 77.4563C9.10981 77.4322 9.10586 77.4081 9.10225 77.3839C9.09861 77.3598 9.09529 77.3356 9.0923 77.3114C9.0893 77.2871 9.08662 77.2629 9.08425 77.2386C9.08189 77.2143 9.07985 77.19 9.07813 77.1657C9.0764 77.1413 9.07498 77.117 9.07388 77.0926C9.07279 77.0682 9.07202 77.0439 9.07157 77.0195C9.0711 76.9951 9.07095 76.9707 9.07114 76.9463C9.07239 76.6558 9.12588 76.3786 9.2175 76.1016C9.49182 75.2723 10.0273 74.8277 10.6547 74.2419L11.8269 73.1429C12.3789 72.6346 12.9026 72.0756 13.5614 71.6872C13.498 72.0975 13.559 72.5119 13.6798 72.9073C13.2214 73.3279 12.7924 73.7797 12.3337 74.2012C12.0078 74.4959 11.6848 74.7932 11.3646 75.0933C11.13 75.309 10.8697 75.5227 10.6773 75.7732C10.6552 75.8022 10.634 75.8317 10.6137 75.8618C10.5935 75.8919 10.5741 75.9225 10.5557 75.9537C10.5372 75.9848 10.5197 76.0164 10.5032 76.0485C10.4866 76.0805 10.4711 76.113 10.4565 76.1459C10.4419 76.1788 10.4283 76.2121 10.4157 76.2457C10.4031 76.2793 10.3915 76.3132 10.3809 76.3475C10.3704 76.3817 10.3609 76.4162 10.3524 76.4509C10.3439 76.4857 10.3365 76.5206 10.3301 76.5557C10.3243 76.5874 10.3194 76.6191 10.3153 76.651C10.3112 76.6828 10.308 76.7148 10.3056 76.7468C10.3032 76.7788 10.3017 76.8108 10.301 76.8429C10.3004 76.875 10.3006 76.9071 10.3016 76.9392C10.3026 76.9712 10.3045 77.0033 10.3073 77.0353C10.31 77.0673 10.3136 77.0992 10.3181 77.131C10.3225 77.1628 10.3278 77.1945 10.3339 77.2261C10.3401 77.2576 10.347 77.289 10.3549 77.3203C10.3626 77.3515 10.3713 77.3825 10.3808 77.4134C10.3902 77.4442 10.4005 77.4748 10.4116 77.5051C10.4227 77.5355 10.4346 77.5655 10.4473 77.5953C10.46 77.6251 10.4734 77.6546 10.4877 77.6838C10.502 77.7129 10.517 77.7417 10.5328 77.7701C10.5486 77.7986 10.5652 77.8266 10.5824 77.8543C10.5997 77.8819 10.6178 77.9092 10.6365 77.936C10.6552 77.9628 10.6747 77.9891 10.6949 78.015C10.7138 78.0393 10.7333 78.0632 10.7534 78.0866C10.7736 78.11 10.7943 78.133 10.8156 78.1554C10.8369 78.1779 10.8588 78.1999 10.8813 78.2213C10.9037 78.2428 10.9267 78.2637 10.9503 78.2842C10.9738 78.3046 10.9979 78.3244 11.0224 78.3438C11.047 78.3631 11.072 78.3818 11.0976 78.4C11.1231 78.4182 11.1491 78.4357 11.1755 78.4527C11.2019 78.4697 11.2288 78.4861 11.2561 78.5018C11.2834 78.5176 11.311 78.5327 11.3391 78.5472C11.3672 78.5617 11.3956 78.5756 11.4244 78.5887C11.4531 78.6019 11.4822 78.6145 11.5117 78.6263C11.5411 78.6382 11.5708 78.6494 11.6008 78.6599C11.6308 78.6704 11.6611 78.6802 11.6916 78.6893C11.7221 78.6984 11.7528 78.7069 11.7838 78.7146C11.8147 78.7223 11.8458 78.7293 11.8771 78.7356C11.9084 78.7419 11.9399 78.7475 11.9715 78.7523C12.0044 78.7569 12.0375 78.7607 12.0706 78.7637C12.1038 78.7667 12.137 78.769 12.1703 78.7704C12.2035 78.7719 12.2368 78.7726 12.2702 78.7725C12.3035 78.7724 12.3367 78.7716 12.37 78.77C12.4033 78.7683 12.4365 78.7659 12.4696 78.7627C12.5028 78.7596 12.5358 78.7556 12.5687 78.7509C12.6017 78.7462 12.6344 78.7407 12.6671 78.7345C12.6997 78.7283 12.7322 78.7213 12.7645 78.7135C12.7968 78.7058 12.8288 78.6973 12.8606 78.688C12.8925 78.6788 12.924 78.6688 12.9553 78.6581C12.9867 78.6474 13.0177 78.636 13.0484 78.6238C13.0791 78.6117 13.1094 78.5988 13.1395 78.5852C13.1695 78.5717 13.1991 78.5574 13.2284 78.5425C13.2577 78.5275 13.2866 78.5119 13.315 78.4956C13.3435 78.4793 13.3715 78.4624 13.3991 78.4448C13.4266 78.4272 13.4537 78.4089 13.4803 78.3901C13.7062 78.233 13.8983 78.0269 14.0958 77.8398L14.884 77.1017L16.0669 75.9854C16.3585 75.7096 16.686 75.435 16.9174 75.1114C17.0684 74.9004 17.145 74.6371 17.1831 74.387C17.2661 73.842 17.1252 73.3344 16.7705 72.8961C16.329 72.3507 15.7795 72.1957 15.087 72.1102C15.0638 71.7064 15.1589 71.3572 15.3982 71.0195Z" fill="#FF00EA"/>
<path d="M19.6864 66.1241C20.063 66.1199 20.439 66.1667 20.7957 66.2831C21.5713 66.5363 22.2606 67.1204 22.6136 67.8168C23.0001 68.5792 23.0207 69.4238 22.7207 70.2153C22.6158 70.4922 22.4633 70.74 22.2695 70.9703C21.8914 71.4198 21.3556 71.8629 20.9253 72.2786L19.8838 73.2764C19.6602 73.4918 19.4402 73.7314 19.19 73.9185C18.9762 74.0784 18.7253 74.1922 18.4796 74.3014C18.4994 73.8995 18.4565 73.5517 18.3424 73.1654C18.5194 72.9882 18.7128 72.8236 18.8973 72.6531C19.3814 72.2056 19.8503 71.7439 20.3296 71.292C20.6354 71.0037 21.1771 70.5563 21.3975 70.2333C21.612 69.9191 21.7414 69.5401 21.7423 69.1661C21.742 69.135 21.741 69.1039 21.7391 69.0729C21.7373 69.0418 21.7347 69.0108 21.7312 68.9799C21.7278 68.9489 21.7235 68.9181 21.7185 68.8874C21.7135 68.8566 21.7077 68.826 21.701 68.7955C21.6944 68.765 21.6871 68.7347 21.6789 68.7046C21.6707 68.6745 21.6618 68.6445 21.6521 68.6148C21.6424 68.5851 21.6319 68.5556 21.6207 68.5263C21.6095 68.497 21.5975 68.4681 21.5848 68.4393C21.5721 68.4106 21.5587 68.3822 21.5445 68.3541C21.5304 68.326 21.5155 68.2982 21.4999 68.2708C21.4843 68.2434 21.468 68.2164 21.451 68.1897C21.434 68.163 21.4163 68.1367 21.398 68.1108C21.3797 68.085 21.3607 68.0595 21.341 68.0345C21.3214 68.0095 21.3011 67.9849 21.2802 67.9608C21.2593 67.9367 21.2378 67.9131 21.2156 67.89C21.1935 67.8669 21.1708 67.8443 21.1476 67.8222C20.7868 67.4848 20.2369 67.2786 19.7293 67.2841C18.9927 67.2921 18.6282 67.5863 18.1397 68.0538L16.3887 69.7059C16.1597 69.9202 15.9326 70.1363 15.7073 70.3541C15.5173 70.5373 15.3124 70.7162 15.1655 70.9334C14.954 71.2462 14.8218 71.6477 14.8221 72.0193C14.8224 72.5024 15.0377 72.9979 15.4055 73.3356C15.8502 73.7438 16.3662 73.8869 16.9754 73.8785C17.0059 74.2929 16.9584 74.6415 16.7297 75.0032C15.9785 75.0131 15.224 74.7017 14.6718 74.2315C14.0531 73.7047 13.6568 72.9868 13.6161 72.1975C13.5739 71.3767 13.8599 70.6012 14.4507 69.9949C14.6342 69.8066 14.8408 69.6351 15.0335 69.4547L16.3685 68.2032L17.3303 67.2914C17.5953 67.0383 17.8714 66.738 18.1889 66.544C18.6373 66.27 19.1578 66.1457 19.6864 66.1241Z" fill="#FF00EA"/>
<path d="M13.757 73.1836C13.8408 73.2321 13.9684 73.5334 14.0371 73.6304C14.1468 73.7878 14.2696 73.9356 14.4055 74.0737C14.998 74.6699 15.8149 75.0443 16.685 75.07C16.473 75.321 16.2246 75.5428 15.9837 75.7689L15.0301 76.6635L14.245 77.4166C13.9215 77.7303 13.6076 78.0797 13.203 78.3021C12.882 78.4633 12.5508 78.5554 12.1845 78.5363C11.7236 78.5122 11.2846 78.2914 10.9825 77.9672C10.6821 77.6449 10.4967 77.1967 10.5296 76.7654C10.5499 76.4987 10.6471 76.2037 10.8013 75.9781C11.0925 75.5523 11.6413 75.1249 12.0285 74.7639C12.5985 74.2325 13.1503 73.6781 13.757 73.1836Z" fill="white"/>
<path d="M19.6228 67.5325C19.6278 67.532 19.6327 67.5313 19.6377 67.531C20.124 67.5073 20.6173 67.698 20.9653 68.014C21.3034 68.3208 21.479 68.7526 21.4818 69.1922C21.4838 69.4977 21.3796 69.8174 21.2076 70.076C20.9462 70.4692 20.4693 70.8503 20.1182 71.1826L18.2684 72.9272C18.1744 72.7347 18.0719 72.5514 17.9522 72.3721C17.8311 72.1939 17.697 72.026 17.5385 71.8756C16.9853 71.3505 16.215 70.9706 15.4186 70.9675C15.4484 70.9295 15.4796 70.8925 15.5122 70.8566C15.7427 70.6011 16.0089 70.3686 16.2579 70.1288C16.7699 69.635 17.2872 69.1461 17.8099 68.6623C18.126 68.3701 18.4331 68.0098 18.8009 67.7788C19.0546 67.6195 19.3224 67.5568 19.6228 67.5325Z" fill="white"/>
<path d="M19.5911 67.3674C19.9305 67.3368 20.2722 67.4081 20.5778 67.5467C21.0511 67.7614 21.3923 68.1347 21.5641 68.6011C21.7419 69.0836 21.6761 69.5565 21.441 70.0093C21.3668 70.1521 21.2823 70.2705 21.1702 70.3897C20.8566 70.7231 20.4967 71.0276 20.1652 71.3461C19.5921 71.8967 19.0244 72.4687 18.4254 72.9935C18.3924 73.0224 18.3671 73.0435 18.3244 73.0572L18.3029 73.0431L18.3023 72.9977C18.4697 72.8034 18.7147 72.6148 18.9034 72.4335L20.7233 70.71C21.2026 70.2512 21.5554 69.8397 21.5458 69.1612C21.5394 68.7107 21.3578 68.2775 21.0121 67.9625C20.99 67.9423 20.9674 67.9226 20.9443 67.9034C20.9211 67.8843 20.8975 67.8656 20.8734 67.8476C20.8493 67.8295 20.8247 67.8121 20.7996 67.7952C20.7746 67.7783 20.7491 67.7619 20.7232 67.7462C20.6973 67.7305 20.671 67.7154 20.6443 67.7009C20.6176 67.6865 20.5905 67.6726 20.5631 67.6594C20.5356 67.6462 20.5079 67.6336 20.4798 67.6217C20.4517 67.6098 20.4233 67.5985 20.3946 67.588C20.3659 67.5774 20.3369 67.5675 20.3077 67.5583C20.2785 67.549 20.249 67.5405 20.2194 67.5326C20.1897 67.5248 20.1598 67.5176 20.1298 67.5112C20.0997 67.5047 20.0695 67.499 20.0392 67.4939C20.0088 67.4889 19.9784 67.4846 19.9478 67.481C19.9172 67.4774 19.8865 67.4745 19.8558 67.4723C19.8251 67.4701 19.7943 67.4687 19.7635 67.4679C19.7327 67.4672 19.7019 67.4672 19.671 67.4679C19.0694 67.4826 18.6785 67.7401 18.2766 68.1359C17.5966 68.8023 16.8829 69.4415 16.1934 70.1001C15.9071 70.3736 15.5533 70.6591 15.3262 70.9783C15.1725 71.1943 15.0688 71.4814 15.0261 71.7373C15.0213 71.7651 15.0172 71.7929 15.0139 71.8209C15.0106 71.8488 15.008 71.8769 15.0061 71.905C15.0043 71.933 15.0032 71.9611 15.0028 71.9893C15.0025 72.0174 15.0029 72.0455 15.004 72.0737C15.0051 72.1018 15.007 72.1299 15.0096 72.1579C15.0122 72.1859 15.0156 72.2139 15.0197 72.2418C15.0238 72.2696 15.0286 72.2974 15.0341 72.325C15.0397 72.3527 15.046 72.3802 15.053 72.4075C15.06 72.4349 15.0678 72.462 15.0762 72.489C15.0847 72.516 15.0939 72.5428 15.1038 72.5694C15.1136 72.5959 15.1242 72.6222 15.1355 72.6483C15.1467 72.6743 15.1587 72.7001 15.1713 72.7256C15.184 72.7511 15.1973 72.7763 15.2112 72.8012C15.2252 72.8261 15.2398 72.8506 15.2551 72.8748C15.2703 72.899 15.2862 72.9228 15.3028 72.9463C15.3193 72.9697 15.3364 72.9928 15.3542 73.0154C15.6096 73.3377 16.089 73.6565 16.5269 73.6872C16.6577 73.6963 16.788 73.6597 16.9193 73.6785C16.9246 73.6869 16.9308 73.6948 16.9351 73.7038C16.9512 73.7378 16.9437 73.7659 16.926 73.7962C16.9071 73.8034 16.901 73.8068 16.8781 73.8093C16.8155 73.8161 16.7388 73.8052 16.6755 73.8011C16.2687 73.7742 15.9121 73.6376 15.5961 73.3961C15.572 73.3779 15.5483 73.3591 15.5252 73.3398C15.502 73.3205 15.4794 73.3007 15.4574 73.2803C15.4353 73.2599 15.4138 73.239 15.3928 73.2176C15.3719 73.1962 15.3515 73.1743 15.3317 73.1519C15.3119 73.1296 15.2928 73.1067 15.2742 73.0834C15.2556 73.0602 15.2377 73.0365 15.2204 73.0123C15.2031 72.9882 15.1865 72.9637 15.1705 72.9387C15.1546 72.9138 15.1393 72.8885 15.1246 72.8629C15.11 72.8372 15.0961 72.8113 15.0828 72.785C15.0696 72.7587 15.0571 72.7321 15.0453 72.7052C15.0335 72.6783 15.0224 72.6511 15.0121 72.6237C15.0017 72.5963 14.9921 72.5686 14.9832 72.5407C14.9744 72.5128 14.9662 72.4848 14.9589 72.4565C14.9515 72.4282 14.9449 72.3998 14.9391 72.3712C14.9332 72.3426 14.9282 72.3139 14.9238 72.2851C14.9196 72.2563 14.916 72.2274 14.9133 72.1984C14.8645 71.7171 15.0228 71.1776 15.3543 70.8045C15.5463 70.5884 15.7684 70.3894 15.9781 70.1884L17.2673 68.9745L18.1012 68.1894C18.3057 67.9969 18.5093 67.7787 18.7506 67.6271C18.9992 67.4708 19.2956 67.391 19.5911 67.3674Z" fill="#FEFEFE"/>
<path d="M15.0862 72.1914C15.583 72.2228 16.0746 72.3613 16.4539 72.6753C16.4783 72.6956 16.5023 72.7164 16.5256 72.7377C16.549 72.759 16.5718 72.7809 16.594 72.8033C16.6163 72.8257 16.6379 72.8486 16.6589 72.872C16.68 72.8954 16.7004 72.9193 16.7202 72.9436C16.74 72.9679 16.7591 72.9927 16.7776 73.0179C16.7961 73.0431 16.8139 73.0688 16.8311 73.0948C16.8482 73.1209 16.8647 73.1473 16.8805 73.1741C16.8963 73.2009 16.9113 73.228 16.9257 73.2556C16.9401 73.2831 16.9537 73.3109 16.9666 73.339C16.9795 73.3672 16.9917 73.3956 17.0031 73.4243C17.0145 73.453 17.0252 73.4819 17.0351 73.5111C17.045 73.5403 17.0542 73.5697 17.0626 73.5993C17.0709 73.6289 17.0785 73.6587 17.0854 73.6887C17.0922 73.7186 17.0982 73.7487 17.1035 73.779C17.1087 73.8092 17.1132 73.8396 17.1169 73.87C17.1205 73.9005 17.1234 73.931 17.1255 73.9616C17.1582 74.4799 17.0072 74.9489 16.6387 75.3373C16.1889 75.8113 15.6797 76.2477 15.2048 76.7006L14.1783 77.6737C13.9253 77.9133 13.6698 78.1873 13.3707 78.3759C13.0781 78.5605 12.7251 78.684 12.372 78.7014C12.3407 78.7028 12.3095 78.7035 12.2783 78.7034C12.247 78.7034 12.2158 78.7026 12.1846 78.7011C12.1534 78.6996 12.1222 78.6974 12.0911 78.6945C12.06 78.6915 12.029 78.6879 11.9981 78.6835C11.9672 78.6791 11.9364 78.674 11.9058 78.6681C11.8752 78.6623 11.8447 78.6557 11.8145 78.6485C11.7842 78.6413 11.7541 78.6333 11.7242 78.6246C11.6943 78.616 11.6647 78.6066 11.6353 78.5966C11.606 78.5866 11.5769 78.5759 11.5481 78.5645C11.5193 78.5531 11.4908 78.541 11.4626 78.5283C11.4344 78.5156 11.4066 78.5022 11.3791 78.4882C11.3517 78.4742 11.3246 78.4595 11.2979 78.4442C11.2711 78.429 11.2449 78.4131 11.219 78.3965C11.1932 78.38 11.1677 78.3629 11.1428 78.3452C11.1178 78.3275 11.0933 78.3093 11.0693 78.2904C11.0453 78.2716 11.0219 78.2522 10.9989 78.2323C10.9757 78.2121 10.953 78.1914 10.9308 78.1702C10.9087 78.149 10.8871 78.1273 10.8661 78.1051C10.8451 78.0829 10.8246 78.0603 10.8048 78.0371C10.7849 78.014 10.7657 77.9904 10.7471 77.9664C10.7285 77.9424 10.7105 77.9179 10.6931 77.8931C10.6758 77.8682 10.6591 77.843 10.6431 77.8174C10.627 77.7918 10.6117 77.7658 10.597 77.7395C10.5823 77.7131 10.5683 77.6865 10.555 77.6595C10.5417 77.6326 10.5291 77.6053 10.5172 77.5778C10.5053 77.5502 10.4941 77.5224 10.4837 77.4944C10.4732 77.4663 10.4635 77.438 10.4545 77.4095C10.4456 77.381 10.4373 77.3523 10.4298 77.3234C10.4224 77.2946 10.4156 77.2655 10.4096 77.2363C10.4037 77.2071 10.3985 77.1778 10.394 77.1483C10.3895 77.1189 10.3859 77.0894 10.3829 77.0598C10.38 77.0302 10.3779 77.0005 10.3765 76.9708C10.3586 76.5963 10.4511 76.2444 10.6569 75.9224C10.8682 75.5922 11.2105 75.3387 11.4974 75.0673C12.1889 74.4129 12.9127 73.7818 13.5778 73.1033C13.5987 73.0794 13.6208 73.0494 13.6457 73.0294C13.6774 73.0039 13.6859 73.0056 13.7234 73.0108C13.7966 73.1258 13.501 73.3119 13.4191 73.385C12.9216 73.8294 12.4425 74.2953 11.9535 74.7484C11.6019 75.0742 11.0516 75.5263 10.7844 75.8969C10.6261 76.1165 10.5213 76.3817 10.4826 76.6442C10.4786 76.6726 10.4753 76.701 10.4729 76.7295C10.4704 76.758 10.4687 76.7865 10.4677 76.8151C10.4668 76.8437 10.4666 76.8723 10.4671 76.9009C10.4677 76.9295 10.469 76.9581 10.4711 76.9866C10.4731 77.0152 10.476 77.0436 10.4796 77.072C10.4831 77.1004 10.4875 77.1287 10.4926 77.1569C10.4976 77.1851 10.5035 77.2132 10.51 77.2411C10.5166 77.269 10.5239 77.2968 10.5319 77.3244C10.54 77.3519 10.5488 77.3793 10.5583 77.4065C10.5678 77.4337 10.578 77.4606 10.5889 77.4873C10.5998 77.514 10.6114 77.5404 10.6238 77.5665C10.6361 77.5927 10.6491 77.6185 10.6628 77.6441C10.6765 77.6696 10.6909 77.6948 10.7059 77.7197C10.7209 77.7445 10.7366 77.769 10.7529 77.7931C10.7693 77.8173 10.7862 77.841 10.8038 77.8643C10.8214 77.8876 10.8396 77.9105 10.8584 77.933C10.8766 77.9551 10.8954 77.9768 10.9147 77.9981C10.934 78.0194 10.9539 78.0402 10.9743 78.0606C10.9947 78.0809 11.0157 78.1008 11.0371 78.1202C11.0586 78.1396 11.0805 78.1585 11.1029 78.1769C11.1254 78.1953 11.1482 78.2131 11.1716 78.2304C11.195 78.2478 11.2188 78.2646 11.243 78.2808C11.2672 78.297 11.2919 78.3127 11.3169 78.3278C11.342 78.3429 11.3674 78.3574 11.3932 78.3713C11.419 78.3853 11.4451 78.3986 11.4716 78.4113C11.4981 78.424 11.5249 78.4361 11.5521 78.4476C11.5792 78.4591 11.6066 78.47 11.6343 78.4802C11.662 78.4905 11.6899 78.5001 11.7181 78.509C11.7463 78.5179 11.7747 78.5262 11.8033 78.5339C11.8319 78.5415 11.8607 78.5485 11.8897 78.5548C11.9187 78.5611 11.9478 78.5667 11.9771 78.5717C12.0064 78.5766 12.0357 78.5809 12.0652 78.5846C12.5777 78.6431 13.0948 78.483 13.4962 78.1832C13.7076 78.0252 13.8891 77.834 14.0786 77.6539L14.9832 76.796L16.0022 75.8374C16.2712 75.585 16.5765 75.3268 16.7891 75.0288C16.9303 74.8309 17.0201 74.548 17.0474 74.3117C17.0509 74.2824 17.0537 74.253 17.0558 74.2236C17.0578 74.1942 17.059 74.1648 17.0595 74.1353C17.0599 74.1058 17.0595 74.0764 17.0584 74.0469C17.0572 74.0175 17.0553 73.988 17.0526 73.9587C17.0499 73.9293 17.0463 73.9 17.042 73.8708C17.0377 73.8417 17.0327 73.8126 17.0268 73.7836C17.0209 73.7547 17.0143 73.7259 17.0069 73.6972C16.9995 73.6686 16.9913 73.6402 16.9823 73.6119C16.9734 73.5837 16.9637 73.5556 16.9533 73.5278C16.9428 73.5001 16.9316 73.4725 16.9197 73.4453C16.9078 73.418 16.8951 73.3911 16.8818 73.3644C16.8684 73.3378 16.8543 73.3114 16.8395 73.2855C16.8248 73.2595 16.8093 73.2339 16.7931 73.2086C16.7769 73.1834 16.7601 73.1585 16.7426 73.1341C16.7251 73.1096 16.707 73.0856 16.6882 73.062C16.6694 73.0384 16.65 73.0153 16.63 72.9927C16.3764 72.7013 15.9947 72.4666 15.6025 72.3837C15.4476 72.351 15.2852 72.3411 15.1274 72.3262C15.0964 72.2902 15.095 72.2369 15.0862 72.1914Z" fill="#FEFEFE"/>
<path d="M15.1212 72.3818C15.6319 72.4062 16.1072 72.5761 16.4696 72.924C16.6054 73.0545 16.898 73.4272 16.896 73.6106C16.5263 73.6373 16.2225 73.5845 15.9068 73.3964C15.5308 73.1724 15.2198 72.7947 15.1212 72.3818Z" fill="white"/>
<path d="M28.9588 77.542V68.8147H32.0696C32.7486 68.8147 33.3111 68.9383 33.7571 69.1855C34.2031 69.4326 34.5369 69.7707 34.7585 70.1997C34.9801 70.6258 35.0909 71.1059 35.0909 71.64C35.0909 72.1769 34.9787 72.6599 34.7543 73.0889C34.5327 73.515 34.1974 73.8531 33.7486 74.1031C33.3026 74.3502 32.7415 74.4738 32.0653 74.4738H29.9261V73.3573H31.946C32.375 73.3573 32.723 73.2835 32.9901 73.1357C33.2571 72.9852 33.4531 72.7806 33.5781 72.5221C33.7031 72.2636 33.7656 71.9695 33.7656 71.64C33.7656 71.3105 33.7031 71.0178 33.5781 70.7622C33.4531 70.5065 33.2557 70.3062 32.9858 70.1613C32.7188 70.0164 32.3665 69.944 31.929 69.944H30.2756V77.542H28.9588ZM38.3786 77.6869C37.9638 77.6869 37.5888 77.6102 37.2536 77.4568C36.9183 77.3005 36.6527 77.0747 36.4567 76.7792C36.2635 76.4838 36.1669 76.1215 36.1669 75.6926C36.1669 75.3232 36.2379 75.0193 36.38 74.7806C36.522 74.542 36.7138 74.3531 36.9553 74.2139C37.1967 74.0747 37.4666 73.9695 37.7649 73.8985C38.0632 73.8275 38.3672 73.7735 38.6768 73.7366C39.0689 73.6911 39.3871 73.6542 39.6314 73.6258C39.8757 73.5945 40.0533 73.5448 40.1641 73.4767C40.2749 73.4085 40.3303 73.2977 40.3303 73.1443V73.1144C40.3303 72.7423 40.2251 72.4539 40.0149 72.2494C39.8075 72.0448 39.4979 71.9426 39.0859 71.9426C38.657 71.9426 38.3189 72.0377 38.0717 72.2281C37.8274 72.4156 37.6584 72.6244 37.5646 72.8545L36.3672 72.5818C36.5092 72.184 36.7166 71.863 36.9893 71.6187C37.2649 71.3715 37.5817 71.1926 37.9396 71.0818C38.2976 70.9681 38.674 70.9113 39.0689 70.9113C39.3303 70.9113 39.6072 70.9426 39.8999 71.0051C40.1953 71.0647 40.4709 71.1755 40.7266 71.3374C40.9851 71.4994 41.1967 71.7309 41.3615 72.032C41.5263 72.3303 41.6087 72.7181 41.6087 73.1954V77.542H40.3643V76.6471H40.3132C40.2308 76.8119 40.1072 76.9738 39.9425 77.1329C39.7777 77.292 39.5661 77.4241 39.3075 77.5292C39.049 77.6343 38.7393 77.6869 38.3786 77.6869ZM38.6555 76.6642C39.0078 76.6642 39.3089 76.5945 39.5589 76.4553C39.8118 76.3161 40.0036 76.1343 40.1342 75.9099C40.2678 75.6826 40.3345 75.4397 40.3345 75.1812V74.3374C40.2891 74.3829 40.201 74.4255 40.0703 74.4653C39.9425 74.5022 39.7962 74.5349 39.6314 74.5633C39.4666 74.5889 39.3061 74.613 39.1499 74.6357C38.9936 74.6556 38.8629 74.6727 38.7578 74.6869C38.5107 74.7181 38.2848 74.7707 38.0803 74.8445C37.8786 74.9184 37.7166 75.0249 37.5945 75.1642C37.4751 75.3005 37.4155 75.4823 37.4155 75.7096C37.4155 76.0249 37.532 76.2636 37.7649 76.4255C37.9979 76.5846 38.2947 76.6642 38.6555 76.6642ZM48.2106 72.5945L47.0558 72.7991C47.0075 72.6514 46.9308 72.5107 46.8256 72.3772C46.7234 72.2437 46.5842 72.1343 46.408 72.0491C46.2319 71.9639 46.0117 71.9213 45.7475 71.9213C45.3867 71.9213 45.0856 72.0022 44.8441 72.1642C44.6026 72.3232 44.4819 72.5292 44.4819 72.782C44.4819 73.0008 44.5629 73.1769 44.7248 73.3105C44.8867 73.444 45.1481 73.5534 45.5089 73.6386L46.5487 73.8772C47.1509 74.0164 47.5998 74.2309 47.8952 74.5207C48.1907 74.8105 48.3384 75.1869 48.3384 75.6499C48.3384 76.042 48.2248 76.3914 47.9975 76.6982C47.7731 77.0022 47.4592 77.2409 47.0558 77.4142C46.6552 77.5874 46.1907 77.6741 45.6623 77.6741C44.9293 77.6741 44.3313 77.5178 43.8683 77.2053C43.4052 76.89 43.1211 76.4426 43.016 75.863L44.2475 75.6755C44.3242 75.9965 44.4819 76.2394 44.7205 76.4042C44.9592 76.5661 45.2702 76.6471 45.6538 76.6471C46.0714 76.6471 46.4052 76.5605 46.6552 76.3872C46.9052 76.211 47.0302 75.9965 47.0302 75.7437C47.0302 75.5392 46.9535 75.3673 46.8001 75.2281C46.6495 75.0889 46.418 74.9838 46.1055 74.9127L44.9975 74.6698C44.3867 74.5306 43.935 74.309 43.6424 74.0051C43.3526 73.7011 43.2077 73.3161 43.2077 72.8502C43.2077 72.4639 43.3157 72.1258 43.5316 71.836C43.7475 71.5463 44.0458 71.3204 44.4265 71.1585C44.8072 70.9937 45.2433 70.9113 45.7347 70.9113C46.4421 70.9113 46.9989 71.0647 47.4052 71.3715C47.8114 71.6755 48.0799 72.0832 48.2106 72.5945ZM52.7947 70.9965V72.0193H49.2195V70.9965H52.7947ZM50.1783 69.4284H51.4524V75.6201C51.4524 75.8673 51.4893 76.0534 51.5632 76.1784C51.6371 76.3005 51.7322 76.3843 51.8487 76.4298C51.968 76.4724 52.0973 76.4937 52.2365 76.4937C52.3388 76.4937 52.4283 76.4866 52.505 76.4724C52.5817 76.4582 52.6413 76.4468 52.6839 76.4383L52.9141 77.4909C52.8402 77.5193 52.7351 77.5477 52.5987 77.5761C52.4624 77.6073 52.2919 77.6244 52.0874 77.6272C51.7521 77.6329 51.4396 77.5732 51.1499 77.4482C50.8601 77.3232 50.6257 77.1301 50.4467 76.8687C50.2678 76.6073 50.1783 76.2792 50.1783 75.8843V69.4284ZM60.4354 70.9965V72.0193H56.8601V70.9965H60.4354ZM57.8189 69.4284H59.093V75.6201C59.093 75.8673 59.13 76.0534 59.2038 76.1784C59.2777 76.3005 59.3729 76.3843 59.4893 76.4298C59.6087 76.4724 59.7379 76.4937 59.8771 76.4937C59.9794 76.4937 60.0689 76.4866 60.1456 76.4724C60.2223 76.4582 60.282 76.4468 60.3246 76.4383L60.5547 77.4909C60.4808 77.5193 60.3757 77.5477 60.2393 77.5761C60.103 77.6073 59.9325 77.6244 59.728 77.6272C59.3928 77.6329 59.0803 77.5732 58.7905 77.4482C58.5007 77.3232 58.2663 77.1301 58.0874 76.8687C57.9084 76.6073 57.8189 76.2792 57.8189 75.8843V69.4284ZM63.2596 73.6556V77.542H61.9854V68.8147H63.2425V72.0619H63.3235C63.4769 71.7096 63.7113 71.4298 64.0266 71.2224C64.342 71.015 64.7539 70.9113 65.2624 70.9113C65.7113 70.9113 66.1033 71.0036 66.4386 71.1883C66.7766 71.373 67.038 71.6485 67.2227 72.015C67.4102 72.3786 67.5039 72.8332 67.5039 73.3786V77.542H66.2298V73.532C66.2298 73.0519 66.1062 72.6798 65.859 72.4156C65.6119 72.1485 65.2681 72.015 64.8278 72.015C64.5266 72.015 64.2567 72.0789 64.0181 72.2068C63.7823 72.3346 63.5962 72.5221 63.4599 72.7693C63.3263 73.0136 63.2596 73.309 63.2596 73.6556ZM72.0252 77.6741C71.3803 77.6741 70.8249 77.5363 70.359 77.2607C69.896 76.9823 69.538 76.5917 69.2852 76.0889C69.0352 75.5832 68.9102 74.9909 68.9102 74.3119C68.9102 73.6414 69.0352 73.0505 69.2852 72.5392C69.538 72.0278 69.8903 71.6286 70.342 71.3417C70.7965 71.0548 71.3278 70.9113 71.9357 70.9113C72.305 70.9113 72.663 70.9724 73.0096 71.0945C73.3562 71.2167 73.6673 71.4085 73.9428 71.6698C74.2184 71.9312 74.4357 72.2707 74.5948 72.6883C74.7539 73.1031 74.8335 73.6073 74.8335 74.2011V74.6528H69.6303V73.6982H73.5849C73.5849 73.363 73.5167 73.0661 73.3803 72.8076C73.244 72.5463 73.0522 72.3403 72.805 72.1897C72.5607 72.0392 72.2738 71.9639 71.9442 71.9639C71.5863 71.9639 71.2738 72.0519 71.0067 72.2281C70.7425 72.4014 70.538 72.6286 70.3931 72.9099C70.2511 73.1883 70.18 73.4909 70.18 73.8176V74.5633C70.18 75.0008 70.2567 75.373 70.4102 75.6798C70.5664 75.9866 70.7837 76.221 71.0621 76.3829C71.3406 76.542 71.6658 76.6215 72.038 76.6215C72.2795 76.6215 72.4996 76.5874 72.6985 76.5193C72.8974 76.4482 73.0692 76.3431 73.2141 76.2039C73.359 76.0647 73.4698 75.8928 73.5465 75.6883L74.7525 75.9056C74.6559 76.2607 74.4826 76.5718 74.2326 76.8389C73.9854 77.1031 73.6744 77.309 73.2994 77.4568C72.9272 77.6017 72.5025 77.6741 72.0252 77.6741ZM80.6971 68.8147V77.542H79.4229V68.8147H80.6971ZM82.4112 77.542V70.9965H83.6854V77.542H82.4112ZM83.0547 69.9866C82.8331 69.9866 82.6428 69.9127 82.4837 69.765C82.3274 69.6144 82.2493 69.4355 82.2493 69.2281C82.2493 69.0178 82.3274 68.8389 82.4837 68.6911C82.6428 68.5406 82.8331 68.4653 83.0547 68.4653C83.2763 68.4653 83.4652 68.5406 83.6214 68.6911C83.7805 68.8389 83.8601 69.0178 83.8601 69.2281C83.8601 69.4355 83.7805 69.6144 83.6214 69.765C83.4652 69.9127 83.2763 69.9866 83.0547 69.9866ZM86.6737 73.6556V77.542H85.3995V70.9965H86.6225V72.0619H86.7035C86.854 71.7153 87.0898 71.4369 87.4109 71.2267C87.7347 71.0164 88.1424 70.9113 88.6339 70.9113C89.0799 70.9113 89.4705 71.0051 89.8058 71.1926C90.141 71.3772 90.4009 71.6528 90.5856 72.0193C90.7702 72.3857 90.8626 72.8389 90.8626 73.3786V77.542H89.5884V73.532C89.5884 73.0576 89.4648 72.6869 89.2177 72.4198C88.9705 72.1499 88.631 72.015 88.1992 72.015C87.9038 72.015 87.641 72.0789 87.4109 72.2068C87.1836 72.3346 87.0032 72.5221 86.8697 72.7693C86.739 73.0136 86.6737 73.309 86.6737 73.6556ZM93.7433 75.3218L93.7347 73.7664H93.9563L96.5643 70.9965H98.0898L95.1154 74.1499H94.9151L93.7433 75.3218ZM92.5714 77.542V68.8147H93.8455V77.542H92.5714ZM96.7049 77.542L94.3612 74.4312L95.239 73.5406L98.2688 77.542H96.7049Z" fill="#5C24C6"/>
<circle cx="125.958" cy="73.0417" r="11.0417" fill="#FFFDFD"/>
<path d="M114.917 73.0413C114.917 66.9463 119.863 61.9997 125.958 61.9997C132.053 61.9997 137 66.9463 137 73.0413C137 79.1363 132.053 84.083 125.958 84.083C119.863 84.083 114.917 79.1363 114.917 73.0413ZM125.958 71.9372H121.542V74.1455H125.958V77.458L130.375 73.0413L125.958 68.6247V71.9372Z" fill="#5C24C6"/>
</svg>
